<svg xmlns="http://www.w3.org/2000/svg" width="211.347" height="246.681" viewBox="0 0 211.347 246.681">
  <g id="Group_11" data-name="Group 11" transform="translate(-3775.972 1007.057)">
    <ellipse id="Ellipse_5" data-name="Ellipse 5" cx="72.866" cy="20.178" rx="72.866" ry="20.178" transform="translate(3797.189 -800.733)" fill="#ccc" opacity="0.103"/>
    <g id="_3700_5_03" data-name="3700_5_03" transform="translate(2968.87 -1663.057)">
      <path id="Path_102" data-name="Path 102" d="M1025.806,959.046v53.91a16.532,16.532,0,0,1-16.483,16.482h-54.5a16.531,16.531,0,0,1-16.482-16.482v-53.91a16.529,16.529,0,0,1,16.482-16.482h54.5a16.538,16.538,0,0,1,16.483,16.482" transform="translate(-86.993 -189.954)" fill="#fff" fill-rule="evenodd"/>
      <path id="Path_103" data-name="Path 103" d="M1003.772,934h-54.5A19.289,19.289,0,0,0,930,953.258v53.858a19.289,19.289,0,0,0,19.276,19.258h54.5a19.289,19.289,0,0,0,19.276-19.258V953.258A19.289,19.289,0,0,0,1003.772,934m.124,2.7a16.528,16.528,0,0,1,16.455,16.5v53.976a16.527,16.527,0,0,1-16.455,16.5H949.488a16.526,16.526,0,0,1-16.454-16.5V953.2a16.527,16.527,0,0,1,16.454-16.5H1003.9" transform="translate(-81.466 -184.278)" fill="#371a45" fill-rule="evenodd"/>
      <path id="Path_104" data-name="Path 104" d="M1129.529,936.84c20.3,6.971,21.8,23.047,35.843,32.379,6.079,4.039,12.429,3.053,20.012,1.018,4.042-1.084,5.981,2.922,6.247,9.782.37,9.555-2.918,16.317-22.8,16.7-23.178.453-27.191-26.986-27.191-26.986l-12.107-32.9" transform="translate(-213.727 -186.16)" fill="#fff" fill-rule="evenodd"/>
      <path id="Path_105" data-name="Path 105" d="M1191.212,1050.555a21.508,21.508,0,0,1-14.99-5.649,7.255,7.255,0,0,0-.079-1.15,7.18,7.18,0,0,0-5.474-5.971c-.339-.6-.655-1.2-.949-1.791-.031-.133-.062-.266-.094-.4a67.577,67.577,0,0,0-4.539-14.151.475.475,0,0,0-.428-.272.318.318,0,0,0-.047,0,.41.41,0,0,0-.083.016q-.15-.521-.3-1.043c7.474,7.094,7.628,24.462,26.955,24.462.214,0,.426,0,.645-.006a53.682,53.682,0,0,0,10.977-1.172,16.4,16.4,0,0,0,4.362,4.366c-3.452,1.712-8.53,2.616-15.366,2.75q-.295.006-.586.006" transform="translate(-236.727 -241.383)" fill="#b9afbe" fill-rule="evenodd"/>
      <path id="Path_106" data-name="Path 106" d="M1165.524,995.379c-9.752,0-17.676-4.842-22.945-14.032a44.421,44.421,0,0,1-5.074-14.155,1.4,1.4,0,1,1,2.765-.4,42.381,42.381,0,0,0,4.773,13.239c4.9,8.506,11.975,12.745,21.008,12.552,9.486-.185,15.588-1.855,18.655-5.107,2.108-2.234,2.965-5.363,2.78-10.146-.225-5.8-1.587-7.64-2.379-8.223a2.263,2.263,0,0,0-2.11-.263c-7.258,1.947-14.338,3.32-21.147-1.2-5.922-3.935-9.713-9.058-13.379-14.013-5.41-7.311-10.52-14.215-22.144-18.208a1.4,1.4,0,1,1,.907-2.643c12.448,4.274,18.058,11.856,23.484,19.188,3.686,4.98,7.166,9.684,12.679,13.347,5.315,3.532,10.734,3.017,18.876.834a5.1,5.1,0,0,1,4.492.712c2.125,1.566,3.308,5.053,3.513,10.365.146,3.766-.125,8.552-3.539,12.172-3.66,3.879-10.217,5.78-20.635,5.984-.193,0-.388.006-.581.006" transform="translate(-210.979 -183.412)" fill="#371a45" fill-rule="evenodd"/>
      <path id="Path_107" data-name="Path 107" d="M877.03,936.84c-20.3,6.971-23.236,23.6-37.055,33.264-4.124,2.883-9.8,4.464-18.792,3.057-4.134-.647-9.05-1.223-9.9,5.589-.691,5.536,8.881,18.012,26.451,17.973,23.182-.052,27.19-26.986,27.19-26.986l12.107-32.9" transform="translate(-2.748 -186.16)" fill="#fff" fill-rule="evenodd"/>
      <path id="Path_108" data-name="Path 108" d="M842.218,1055.319h-.082c-12.313,0-19.162-6.258-21.538-8.953a17.386,17.386,0,0,1-2.6-3.787c4.033,5.894,12.835,9.34,24.535,9.34h.127c13.071-.028,16.768-8,20.192-15.48a19.787,19.787,0,0,1,1,5.026c-.176.327-.361.656-.552.984a7.214,7.214,0,0,0-5.573,6.031,7.308,7.308,0,0,0-.079,1.05,22.443,22.443,0,0,1-15.428,5.788m22.751-18.205a23.547,23.547,0,0,0-1.119-3.337,23.506,23.506,0,0,1,4.383-6.777c-.335.7-.635,1.408-.919,2.123a30.607,30.607,0,0,0-1.192,3.49c-.334,1.181-.655,2.367-.939,3.561-.076.312-.146.625-.213.94" transform="translate(-7.224 -245.924)" fill="#b9afbe" fill-rule="evenodd"/>
      <path id="Path_109" data-name="Path 109" d="M834.9,995.373c-13.415,0-20.947-6.874-23.567-9.835-2.962-3.348-4.527-6.977-4.186-9.709.334-2.67,1.3-4.624,2.868-5.807,2.572-1.938,6.076-1.39,8.635-.989,7.66,1.2,13.307.3,17.776-2.822,5.292-3.7,8.908-8.421,12.736-13.421,5.9-7.7,12-15.67,24.666-20.02a1.4,1.4,0,0,1,.907,2.643c-11.867,4.075-17.706,11.7-23.354,19.076-3.789,4.948-7.706,10.064-13.354,14.012-5.027,3.515-11.506,4.593-19.809,3.293-2.578-.4-5.018-.671-6.521.461-.956.72-1.538,2-1.777,3.92-.179,1.435.631,4.263,3.506,7.512,2.368,2.677,9.2,8.891,21.473,8.891h.082c21.728-.048,25.772-25.537,25.811-25.795a1.4,1.4,0,1,1,2.765.412,43.713,43.713,0,0,1-5.074,13.967c-5.366,9.274-13.49,14.188-23.495,14.21H834.9" transform="translate(0 -183.412)" fill="#371a45" fill-rule="evenodd"/>
      <path id="Path_110" data-name="Path 110" d="M931.877,1031.135a.976.976,0,0,1-.976-.976c0-11.579-11.173-19.883-11.285-19.966a.975.975,0,0,1,1.15-1.576c.493.36,12.087,8.958,12.087,21.542a.976.976,0,0,1-.976.976" transform="translate(-74.317 -233.615)" fill="#371a45" fill-rule="evenodd"/>
      <path id="Path_111" data-name="Path 111" d="M842.427,1037.945c-3.669-4.239.228-6.89,4.145-4.647,3.559,2.038,6.739,4.5,10.775,3.328,0,0-.306,2.563-3.547,5.376s-11.373-4.057-11.373-4.057" transform="translate(-22.443 -249.558)" fill="#fff" fill-rule="evenodd"/>
      <path id="Path_112" data-name="Path 112" d="M838.36,1036a6.684,6.684,0,0,1-1.786-2.935,3.991,3.991,0,0,1-.014-2.154,3.49,3.49,0,0,1,1.335-1.922,4.362,4.362,0,0,1,1.939-.771,5.672,5.672,0,0,1,1.847.06,6.508,6.508,0,0,1,1.632.543,8.179,8.179,0,0,1,.73.4c.124.073.227.14.322.2l.3.2a51.478,51.478,0,0,0,4.553,2.962,9.432,9.432,0,0,0,2.422.9,7.858,7.858,0,0,0,2.645.088h0a.2.2,0,0,1,.109.384,7.265,7.265,0,0,1-2.854.623,9.608,9.608,0,0,1-2.945-.453,34.821,34.821,0,0,1-5.2-2.332l-.3-.153c-.1-.054-.2-.1-.284-.135-.172-.081-.347-.144-.521-.205a4.851,4.851,0,0,0-1.033-.219,2.195,2.195,0,0,0-1.527.326.63.63,0,0,0-.21.324,1.274,1.274,0,0,0,.016.591,3.824,3.824,0,0,0,.343.88,10.13,10.13,0,0,0,.6.966l.045.066A1.4,1.4,0,0,1,838.36,1036" transform="translate(-19.433 -246.7)" fill="#371a45" fill-rule="evenodd"/>
      <path id="Path_113" data-name="Path 113" d="M843.625,1056.962a4.381,4.381,0,0,1-2-.237,5.22,5.22,0,0,1-1.72-1.142,13.159,13.159,0,0,1-1.305-1.485l-1.161-1.492a23.547,23.547,0,0,0-2.434-2.7,20,20,0,0,0-2.815-2.189c-1.057-.7-2.077-1.357-3.122-1.939a23.675,23.675,0,0,0-3.192-1.489,17.324,17.324,0,0,0-6.729-1.087h-.037a1.4,1.4,0,0,1-.242-2.782,15.465,15.465,0,0,1,8.107,1.043,26.068,26.068,0,0,1,6.691,4.211,19.811,19.811,0,0,1,2.886,2.766,22.29,22.29,0,0,1,2.261,3.223c.656,1.108,1.219,2.236,1.906,3.189a4.306,4.306,0,0,0,1.233,1.179,4.222,4.222,0,0,0,1.673.528h0a.2.2,0,0,1,0,.4" transform="translate(-7.009 -254.719)" fill="#371a45" fill-rule="evenodd"/>
      <path id="Path_114" data-name="Path 114" d="M1028.1,1027.279H945.381a199.326,199.326,0,0,1,1.538-22.969c.29-2.463.638-5.073,1.055-7.8a206.681,206.681,0,0,1,10.213-40.553q1.192-3.209,2.534-6.4,1.07-2.534,2.239-5.04.852-1.836,1.765-3.653h44.033q.911,1.817,1.765,3.653,1.187,2.534,2.263,5.1,1.536,3.653,2.876,7.33a207.739,207.739,0,0,1,9.844,39.562c.417,2.737.764,5.357,1.058,7.828a199.237,199.237,0,0,1,1.535,22.944" transform="translate(-91.661 -188.826)" fill="#fff" fill-rule="evenodd"/>
      <path id="Path_115" data-name="Path 115" d="M1001.045,1090.959c-1.911-.335-3.685-.672-5.344-1.011h9.777c-1.383.34-2.856.677-4.433,1.011m19.941-6.405a8.087,8.087,0,0,0,.333-2.306v-.728a35.571,35.571,0,0,0,5.4.545c-1.994.856-3.865,1.685-5.731,2.489m-48.21-2.023-.353-.145-.321-.132q.338-.027.674-.06v.337m-8.091-14.834q-.859-.021-1.686-.051.193-.9.4-1.8l.191-.849q.5,1.371,1.094,2.7m67.426-.337q.5-1.158.922-2.36.079.443.157.886.138.713.269,1.429-.661.025-1.349.045" transform="translate(-103.34 -271.113)" fill="#b9afbe" fill-rule="evenodd"/>
      <path id="Path_116" data-name="Path 116" d="M1017.269,1022.981a67.575,67.575,0,0,1,4.539,14.151c.579,2.409.989,4.853,1.427,7.29.208,1.22.379,2.446.571,3.669l.286,1.834.253,1.839.5,3.679.454,3.683c.269,2.459.528,4.921.73,7.387.411,4.942.7,9.858.715,14.871l.005,1.384H983.283v-2.8h1.408v2.8H941.227l0-1.384c.019-5.038.307-9.976.721-14.942s.979-9.9,1.713-14.816l.266-1.846.3-1.84c.207-1.226.395-2.455.618-3.679.47-2.442.9-4.893,1.385-7.333.243-1.22.454-2.448.752-3.657s.621-2.411.963-3.609a30.778,30.778,0,0,1,1.222-3.538,28.184,28.184,0,0,1,1.606-3.417.479.479,0,0,1,.9.244v.014a44.468,44.468,0,0,1-.985,7.378c-.238,1.206-.49,2.407-.779,3.6l-.829,3.589c-1.141,4.779-1.922,9.638-2.655,14.5s-1.28,9.748-1.693,14.646-.692,9.829-.711,14.681l-1.4-1.384h42.061v2.8h-1.408v-2.8h42.062l-1.4,1.384c-.018-4.828-.3-9.746-.7-14.61s-.942-9.741-1.7-14.574l-.272-1.814-.311-1.808c-.217-1.2-.415-2.41-.648-3.61-.481-2.4-.916-4.8-1.412-7.194-.9-4.81-2.03-9.549-2.53-14.507v-.011a.472.472,0,0,1,.9-.247" transform="translate(-88.908 -242.919)" fill="#371a45" fill-rule="evenodd"/>
      <path id="Path_117" data-name="Path 117" d="M963.14,1085.26c-5.125,2.075-13.056,1.641-18.463.987a5.81,5.81,0,0,1,.967-11.571c5.058.237,12.644.348,17.448-.717l.048,11.3" transform="translate(-87.81 -277.051)" fill="#fff" fill-rule="evenodd"/>
      <path id="Path_118" data-name="Path 118" d="M955.656,1095.522q-1.356,0-2.816-.072-.575-.226-1.169-.456a15.931,15.931,0,0,0-5.755-1.07c-.232,0-.463,0-.695.015a4.43,4.43,0,0,1-.6-.643,4.383,4.383,0,0,1-.858-3.326,4.47,4.47,0,0,1,.168-.72,5.779,5.779,0,0,0,3.492,1.746,70.151,70.151,0,0,0,8.292.542,42.467,42.467,0,0,0,4.38-.211v3.972a41.088,41.088,0,0,1-4.441.223" transform="translate(-90.558 -287.188)" fill="#b9afbe" fill-rule="evenodd"/>
      <path id="Path_119" data-name="Path 119" d="M943.107,1073.391a4.469,4.469,0,0,0-3.5,7.17,4.368,4.368,0,0,0,2.977,1.718c7.746.946,14.072.625,17.815-.9,1.078-.44,1.4-2.2,1.489-2.942a9.494,9.494,0,0,0-.977-5.735c-4.886,1.03-12.238.952-17.591.7-.07,0-.141-.005-.211-.005m7.6,12.117a71.288,71.288,0,0,1-8.4-.546,7.144,7.144,0,0,1,1.195-14.229c5.244.245,12.45.324,17-.68.722-.159,2.519-.166,3.574,3.212,1.067,3.416.945,9.157-2.7,10.629a29.613,29.613,0,0,1-10.661,1.615" transform="translate(-85.443 -274.428)" fill="#371a45" fill-rule="evenodd"/>
      <path id="Path_120" data-name="Path 120" d="M1144.221,1086.244a68.843,68.843,0,0,1-8.734.538c-.213,0-.424,0-.637-.01s-.45-.009-.674-.019c-.151,0-.3-.009-.446-.016l-.527-.03c-.223-.012-.447-.029-.667-.045h-.016c-.22-.016-.443-.035-.663-.058-.145-.013-.291-.03-.433-.045-.123-.01-.246-.026-.366-.039-.19-.023-.382-.048-.566-.075s-.353-.051-.525-.08a.492.492,0,0,1-.1-.016c-.2-.029-.4-.065-.6-.1s-.4-.074-.592-.116l-.048-.01c-.11-.026-.22-.048-.327-.075s-.239-.055-.359-.087h0c-.365-.091-.725-.194-1.074-.3-.188-.058-.375-.123-.56-.188s-.366-.136-.541-.207l.049-11.3a33.036,33.036,0,0,0,4.148.6,103.81,103.81,0,0,0,13.3.113c.091,0,.181-.006.275-.006a5.81,5.81,0,0,1,.693,11.576" transform="translate(-211.227 -277.05)" fill="#fff" fill-rule="evenodd"/>
      <path id="Path_121" data-name="Path 121" d="M1142.627,1094.89a34.984,34.984,0,0,1-6.854-.592v-4.4l.128.023c.2.038.4.074.6.1a.51.51,0,0,0,.1.016c.172.029.346.055.524.081s.375.052.567.074c.12.013.243.029.365.039.143.016.288.032.434.045.22.023.443.042.663.058h.016c.22.016.443.033.667.046l.528.029c.145.006.294.013.447.016.223.009.45.016.673.019s.424.01.638.01l.48,0a70.012,70.012,0,0,0,8.253-.539,5.767,5.767,0,0,0,3.374-1.627,4.449,4.449,0,0,1,.285,1.042,4.407,4.407,0,0,1-3.827,5.025,67.577,67.577,0,0,1-8.065.527" transform="translate(-217.866 -286.556)" fill="#b9afbe" fill-rule="evenodd"/>
      <path id="Path_122" data-name="Path 122" d="M1119.259,1081.375c3.743,1.528,10.07,1.849,17.815.9a4.37,4.37,0,0,0,2.977-1.718,4.466,4.466,0,0,0-3.714-7.164c-5.353.252-12.7.332-17.589-.7a9.494,9.494,0,0,0-.978,5.736c.088.738.411,2.5,1.489,2.942m9.69,4.133a29.594,29.594,0,0,1-10.662-1.615c-3.649-1.472-3.77-7.212-2.7-10.628,1.054-3.379,2.85-3.374,3.573-3.212,4.548,1.005,11.755.924,17,.68a7.143,7.143,0,0,1,1.195,14.228,71.3,71.3,0,0,1-8.4.546" transform="translate(-204.096 -274.428)" fill="#371a45" fill-rule="evenodd"/>
      <path id="Path_123" data-name="Path 123" d="M1042.023,1050.872v18.112a6.13,6.13,0,0,1-6.111,6.111h-33.356a6.129,6.129,0,0,1-6.107-6.111v-18.112a6.125,6.125,0,0,1,6.107-6.107h33.356a6.125,6.125,0,0,1,6.111,6.107" transform="translate(-125.513 -257.7)" fill="#fff" fill-rule="evenodd"/>
      <path id="Path_124" data-name="Path 124" d="M1038.663,1092.277h-28.471c-3.521-1.124-6.5-2.285-9.439-3.5a4.689,4.689,0,0,1-.158-1.211v-4.726c4,4.616,12.308,6.822,20.2,6.822a40.754,40.754,0,0,0,4.106-.2,3.72,3.72,0,0,0,3.295-4.524,8.637,8.637,0,0,1-.244-2.054,8.414,8.414,0,0,1,.68-3.35,5.268,5.268,0,0,0,10.337,0,8.356,8.356,0,0,1,.673,2.967,20.175,20.175,0,0,0,3.73-9.7v14.771a4.717,4.717,0,0,1-2.738,4.277q-.333.125-.671.25a4.685,4.685,0,0,1-1.3.183" transform="translate(-128.261 -276.281)" fill="#b9afbe" fill-rule="evenodd"/>
      <path id="Path_125" data-name="Path 125" d="M1000.412,1043.7a4.728,4.728,0,0,0-4.715,4.729v18.186a4.727,4.727,0,0,0,4.715,4.729H1033.8a4.727,4.727,0,0,0,4.714-4.729v-18.186a4.727,4.727,0,0,0-4.714-4.729h-33.387m33.317,30.342h-33.248a7.491,7.491,0,0,1-7.481-7.485v-18.068a7.492,7.492,0,0,1,7.481-7.485h33.248a7.492,7.492,0,0,1,7.48,7.485v18.068a7.492,7.492,0,0,1-7.48,7.485" transform="translate(-123.226 -255.205)" fill="#371a45" fill-rule="evenodd"/>
      <path id="Path_126" data-name="Path 126" d="M1094,1079.387a5.268,5.268,0,1,1-5.268-5.267,5.268,5.268,0,0,1,5.268,5.267" transform="translate(-183.194 -277.159)" fill="#22a7f0" fill-rule="evenodd"/>
      <path id="Path_127" data-name="Path 127" d="M1094,1079.389a4.958,4.958,0,0,1-.069.839,5.267,5.267,0,0,0-10.4,0,4.958,4.958,0,0,1-.069-.839,5.269,5.269,0,0,1,10.537,0" transform="translate(-183.191 -277.159)" fill="#fff" fill-rule="evenodd"/>
      <path id="Path_128" data-name="Path 128" d="M1088.862,1092.9a5.267,5.267,0,0,1-5.2-4.434s0,.006,0,.009a5.218,5.218,0,0,1,.707-1.912,5.265,5.265,0,0,0,8.986,0,4.137,4.137,0,0,1-4.494,6.337" transform="translate(-183.323 -285.408)" fill="#2976b4" fill-rule="evenodd"/>
      <path id="Path_129" data-name="Path 129" d="M1084.058,1086.7s0-.006,0-.009a5.868,5.868,0,0,1-.057-.817,5.621,5.621,0,0,1,.315-1.871,5.386,5.386,0,0,0,.359.821,5.546,5.546,0,0,0-.616,1.876m10.334,0a5.567,5.567,0,0,0-.616-1.877,5.463,5.463,0,0,0,.359-.82,5.621,5.621,0,0,1,.315,1.873,5.775,5.775,0,0,1-.058.824" transform="translate(-183.547 -283.708)" fill="#b9afbe" fill-rule="evenodd"/>
      <path id="Path_130" data-name="Path 130" d="M1054.46,1053.327a4.214,4.214,0,1,0,4.214,4.214A4.218,4.218,0,0,0,1054.46,1053.327Zm0,10.451a6.237,6.237,0,1,1,6.237-6.237,6.244,6.244,0,0,1-6.237,6.237Zm-15.065,10.181a1.171,1.171,0,0,1-1.171-1.171v-8.741a7.237,7.237,0,0,0-2.869-5.751,9.587,9.587,0,0,1-3.8-7.621v-8.218a1.171,1.171,0,1,1,2.342,0v8.218a7.236,7.236,0,0,0,2.868,5.751,9.587,9.587,0,0,1,3.8,7.621v8.741a1.171,1.171,0,0,1-1.171,1.171" transform="translate(-148.782 -255.395)" fill="#371a45" fill-rule="evenodd"/>
      <path id="Path_131" data-name="Path 131" d="M1031.289,953.371q-.556-.574-1.143-1.133.946-.76,1.859-1.564.43.341.839.715-.758,1.014-1.555,1.982m-71.864-.674q-.729-.857-1.425-1.75a16.3,16.3,0,0,1,1.4-.947c.534.459,1.079.911,1.63,1.35q-.83.662-1.61,1.347m63.844,8.273q-.653-1.72-1.35-3.436a56.556,56.556,0,0,0,6-3.559q.845.733,1.629,1.5a51.418,51.418,0,0,1-6.277,5.5" transform="translate(-100.026 -194.883)" fill="#b9afbe" fill-rule="evenodd"/>
      <path id="Path_132" data-name="Path 132" d="M1167.017,960.014q-.786-.763-1.629-1.5,1.182-.8,2.321-1.666.615.55,1.2,1.115-.919,1.051-1.889,2.048" transform="translate(-237.497 -199.425)" fill="#371a45" fill-rule="evenodd"/>
      <path id="Path_133" data-name="Path 133" d="M973.549,966.218a51.631,51.631,0,0,1-6-5.489q1-.886,2.078-1.73a56.262,56.262,0,0,0,5.415,3.47q-.773,1.871-1.5,3.748" transform="translate(-106.358 -200.849)" fill="#b9afbe" fill-rule="evenodd"/>
      <path id="Path_134" data-name="Path 134" d="M963.884,957.266q-.958-1.025-1.865-2.1.795-.707,1.638-1.388,1.129.91,2.3,1.762-1.082.842-2.078,1.73" transform="translate(-102.69 -197.385)" fill="#371a45" fill-rule="evenodd"/>
      <path id="Path_135" data-name="Path 135" d="M1013.891,983.018q-1.645,0-3.308-.121a46.45,46.45,0,0,1-25.243-9.855q.722-1.877,1.5-3.748a56.041,56.041,0,0,0,23.891,7.088q1.871.123,3.72.122a55.977,55.977,0,0,0,25.594-6.18q.7,1.715,1.35,3.436a46.051,46.051,0,0,1-27.5,9.259" transform="translate(-118.149 -207.672)" fill="#b9afbe" fill-rule="evenodd"/>
      <path id="Path_136" data-name="Path 136" d="M1227,805.935a1.118,1.118,0,0,1-1.125-1.112l-.181-32.22a1.118,1.118,0,0,1,1.112-1.125,11.736,11.736,0,0,1,11.8,11.669l.062,10.987a11.736,11.736,0,0,1-11.669,11.8" transform="translate(-277.47 -76.546)" fill="#fff" fill-rule="evenodd"/>
      <path id="Path_137" data-name="Path 137" d="M1226.256,771.337h-.066a.857.857,0,0,0-.853.863l.182,32.333a.858.858,0,0,0,.857.854h0a11.5,11.5,0,0,0,11.43-11.577l-.062-11.026a11.5,11.5,0,0,0-11.493-11.448m.3,34.724a1.383,1.383,0,0,1-1.38-1.377L1225,772.392a1.383,1.383,0,0,1,1.372-1.393,12.006,12.006,0,0,1,12.051,11.958l.062,11.011a12,12,0,0,1-11.916,12.093h-.008" transform="translate(-277.012 -76.229)" fill="#371a45" fill-rule="evenodd"/>
      <path id="Path_138" data-name="Path 138" d="M1232.869,844.459a50.18,50.18,0,0,0,1.171-5.8q.159-.927.289-1.866a11.722,11.722,0,0,0,7.619-4.885l.013,2.294a10.274,10.274,0,0,1-9.092,10.263" transform="translate(-282.228 -116.6)" fill="#b9afbe" fill-rule="evenodd"/>
      <path id="Path_139" data-name="Path 139" d="M1224.034,770.034l.178,31.353a10.33,10.33,0,0,0,6.948-3.026,10.088,10.088,0,0,0,2.988-7.242l-.062-10.93a10.088,10.088,0,0,0-3.07-7.207,10.328,10.328,0,0,0-6.982-2.949m-.281,34.387a2.579,2.579,0,0,1-2.573-2.57L1221,769.6a2.579,2.579,0,0,1,2.558-2.6,12.983,12.983,0,0,1,9.321,3.817,13.157,13.157,0,0,1,3.9,9.32l.062,11a13.183,13.183,0,0,1-13.077,13.285h-.015" transform="translate(-274.361 -73.578)" fill="#371a45" fill-rule="evenodd"/>
      <path id="Path_140" data-name="Path 140" d="M890.583,773.252a1.118,1.118,0,0,1,1.125,1.112l.182,32.22a1.119,1.119,0,0,1-1.112,1.125,11.735,11.735,0,0,1-11.8-11.669l-.062-10.987a11.736,11.736,0,0,1,11.669-11.8" transform="translate(-47.602 -77.723)" fill="#fff" fill-rule="evenodd"/>
      <path id="Path_141" data-name="Path 141" d="M890.1,772.675a11.517,11.517,0,0,0-11.43,11.577l.062,11.025a11.517,11.517,0,0,0,11.494,11.447h.066a.858.858,0,0,0,.852-.863l-.182-32.332a.857.857,0,0,0-.255-.606.811.811,0,0,0-.608-.247m-.06,34.386A12.018,12.018,0,0,1,878.062,795.1L878,784.093A12.019,12.019,0,0,1,889.916,772a1.381,1.381,0,0,1,1.388,1.377l.182,32.292a1.384,1.384,0,0,1-1.372,1.392h-.069" transform="translate(-46.996 -76.893)" fill="#371a45" fill-rule="evenodd"/>
      <path id="Path_142" data-name="Path 142" d="M892.79,846.629a10.287,10.287,0,0,1-9.376-10.175l-.013-2.222a11.73,11.73,0,0,0,7.624,4.331,55.816,55.816,0,0,0,1.764,8.066" transform="translate(-50.577 -118.144)" fill="#b9afbe" fill-rule="evenodd"/>
      <path id="Path_143" data-name="Path 143" d="M887.633,772.034A10.286,10.286,0,0,0,877.7,782.3l.062,10.929a10.29,10.29,0,0,0,10.052,10.156l-.178-31.353m.579,34.387a13.2,13.2,0,0,1-13.15-13.137l-.061-11A13.2,13.2,0,0,1,888.078,769a2.579,2.579,0,0,1,2.587,2.57l.18,32.253a2.578,2.578,0,0,1-2.558,2.6h-.075" transform="translate(-45.008 -74.904)" fill="#371a45" fill-rule="evenodd"/>
      <path id="Path_144" data-name="Path 144" d="M1018.393,719.093a54.907,54.907,0,1,1-51.2-58.376,54.907,54.907,0,0,1,51.2,58.376" transform="translate(-67.342 -3.048)" fill="#fff" fill-rule="evenodd"/>
      <path id="Path_145" data-name="Path 145" d="M963.253,660.337a54.614,54.614,0,0,0-3.531,109.112c1.207.08,2.411.119,3.6.119a54.615,54.615,0,0,0,3.531-109.112c-1.207-.079-2.411-.118-3.6-.118m-.053,109.9q-1.834,0-3.679-.121a55,55,0,1,1,3.679.121" transform="translate(-66.883 -2.651)" fill="#371a45" fill-rule="evenodd"/>
      <path id="Path_146" data-name="Path 146" d="M1001.737,955.351h0c-1.167,0-2.346-.039-3.527-.116A53.177,53.177,0,0,1,966.167,941.8a71.84,71.84,0,0,0,32.736,9.924c1.068.044,2.122.066,3.167.066a76.406,76.406,0,0,0,30.621-6.365,53.2,53.2,0,0,1-30.955,9.929" transform="translate(-105.44 -189.446)" fill="#b9afbe" fill-rule="evenodd"/>
      <path id="Path_147" data-name="Path 147" d="M961.1,659.034a53.435,53.435,0,0,0-3.454,106.755c1.181.076,2.359.115,3.526.115a53.435,53.435,0,0,0,3.454-106.755c-1.18-.077-2.359-.116-3.526-.116m.242,109.568q-1.848,0-3.715-.122a56.278,56.278,0,1,1,3.715.122" transform="translate(-64.894)" fill="#371a45" fill-rule="evenodd"/>
      <path id="Path_148" data-name="Path 148" d="M1018.865,753.6a49.246,49.246,0,0,1-10.9,28.461c-4.777,5.955-23.681,15.847-46.362,14.91-21.031-.869-39.594-13.038-43.749-19.443a49.25,49.25,0,0,1-7.985-29.412c1.428-28.4,26.418-38.942,56.517-37.428s53.9,14.514,52.476,42.911" transform="translate(-68.082 -36.157)" fill="#371a45" fill-rule="evenodd"/>
      <path id="Path_149" data-name="Path 149" d="M958.6,709.034c-17.647,0-48.251,4.6-49.839,36.195a47.81,47.81,0,0,0,7.752,28.561c3.96,6.107,22.075,17.943,42.584,18.791,22.736.942,40.907-9.064,45.164-14.374a47.8,47.8,0,0,0,10.577-27.639c.649-12.907-4-23.1-13.82-30.3-8.835-6.48-21.723-10.318-37.271-11.1-1.535-.077-3.268-.129-5.146-.129m3.711,86.306c-1.045,0-2.1-.021-3.164-.066-21.78-.9-40.505-13.366-44.869-20.092a50.628,50.628,0,0,1-8.211-30.256c.7-13.931,6.827-24.392,18.207-31.092,9.924-5.842,23.679-8.5,39.784-7.691s29.524,4.837,38.811,11.645c10.652,7.809,15.7,18.832,15,32.764a50.62,50.62,0,0,1-11.2,29.279c-4.5,5.615-21.851,15.509-44.351,15.509" transform="translate(-65.557 -33.143)" fill="#371a45" fill-rule="evenodd"/>
      <path id="Path_150" data-name="Path 150" d="M1153.765,814.889a5.217,5.217,0,0,1-1.183-.137c-3.787-.884-5.867-5.838-4.646-11.064,1.094-4.684,4.468-8,7.883-8a5.177,5.177,0,0,1,1.184.137c3.06.715,5.006,4.087,4.995,8.113a61.847,61.847,0,0,1-1.988,6.9c-1.581,2.488-3.9,4.045-6.245,4.045m-8.955,13.576a3.334,3.334,0,0,1-1.2-.223c-1.972-.76-2.852-3.24-1.965-5.538a4.454,4.454,0,0,1,3.972-3.007,3.333,3.333,0,0,1,1.2.223c1.972.761,2.852,3.241,1.965,5.539a4.454,4.454,0,0,1-3.971,3.007" transform="translate(-221.526 -92.597)" fill="#9b8da2" fill-rule="evenodd"/>
      <path id="Path_151" data-name="Path 151" d="M1030.838,832q-1.487,0-3-.062a65.1,65.1,0,0,1-18.2-3.514c26.021-.638,47.085-11.953,52.714-18.971a63.436,63.436,0,0,0,10.389-18.619,12.829,12.829,0,0,0,1.639-3.952,13.132,13.132,0,0,0,.349-2.951,62.135,62.135,0,0,0,1.45-10.6,56.86,56.86,0,0,0-.126-7.825c5.489,6.526,8.016,14.716,7.527,24.448A47.753,47.753,0,0,1,1073,817.578c-4.067,5.071-20.838,14.426-42.158,14.425" transform="translate(-134.25 -72.591)" fill="#2a1a3b" fill-rule="evenodd"/>
      <path id="Path_152" data-name="Path 152" d="M1022.62,828.545c-.994,0-1.994-.019-3.005-.062a67.721,67.721,0,0,1-22.291-4.968c.617.012,1.236.019,1.848.019.77,0,1.539-.009,2.3-.028a65.1,65.1,0,0,0,18.2,3.514q1.515.062,3,.062c21.319,0,38.09-9.355,42.158-14.425a47.754,47.754,0,0,0,10.576-27.62c.489-9.733-2.038-17.923-7.527-24.448q-.11-1.27-.279-2.5c6.343,6.692,9.839,15.618,9.267,27.023a49.273,49.273,0,0,1-10.9,28.464c-4.565,5.689-22.031,14.973-43.36,14.973" transform="translate(-126.093 -67.669)" fill="#2a1a3b" fill-rule="evenodd"/>
      <path id="Path_153" data-name="Path 153" d="M1196.806,827.064a61.822,61.822,0,0,0,1.988-6.9,13.132,13.132,0,0,1-.349,2.951,12.829,12.829,0,0,1-1.639,3.952" transform="translate(-258.323 -108.818)" fill="#6b6577" fill-rule="evenodd"/>
      <path id="Path_154" data-name="Path 154" d="M1023.2,715.871a1.424,1.424,0,0,1-.983-.393l-.146-.13-.083-.144c-8.581-13.408-26.047-21.73-47.921-22.83-21.994-1.1-40.2,5.662-49.955,18.568l-.1.122a1.417,1.417,0,0,1-2.009.1,1.443,1.443,0,0,1-.144-1.982c10.338-13.652,29.417-20.821,52.356-19.666,22.773,1.146,41.043,9.92,50.143,24.078a1.431,1.431,0,0,1-1.154,2.276" transform="translate(-75.85 -22.137)" fill="#371a45" fill-rule="evenodd"/>
      <path id="Path_155" data-name="Path 155" d="M940.354,780.267s-7.386-28.457,8.273-38.861c10.523-6.991,23.783-8.771,31.174-8.771,3.607,0,5.815.424,5.625.872,0,0-24.339,4.612-34.7,23.149-7.993,14.294-10.368,23.61-10.368,23.61" transform="translate(-87.175 -50.799)" fill="#9b8da2" fill-rule="evenodd"/>
      <path id="Path_156" data-name="Path 156" d="M959.66,1151.9s-34.4,3.9-49.685-9.239c-20.888-17.947-2.978-40.439,12.54-34.447,13.509,5.216,19.064,9.318,43.06,13.251,20.107,3.295,37.377,23.937,22.95,35.919-10.186,8.459-28.864-5.484-28.864-5.484" transform="translate(-61.903 -299.103)" fill="#fff" fill-rule="evenodd"/>
      <path id="Path_157" data-name="Path 157" d="M984.049,1201h0c-6.441,0-13.671-4.009-17.363-6.366q.747.01,1.532.01c7.986,0,18.766-.764,27.8-4.094a12.668,12.668,0,0,1-4.708,8.013,10.921,10.921,0,0,1-7.257,2.438m-61.757-12.474a29.415,29.415,0,0,1-7.813-4.678c-4.962-4.266-7.535-8.706-8.479-12.853q.865.853,1.844,1.695c4.481,3.852,10.616,6.229,17.036,7.666a17.7,17.7,0,0,0-2.587,8.17" transform="translate(-65.557 -341.377)" fill="#b9afbe" fill-rule="evenodd"/>
      <path id="Path_158" data-name="Path 158" d="M956.931,1147.639l.445.332c.138.1,10.8,7.958,19.892,7.959a11.058,11.058,0,0,0,7.285-2.413c4.207-3.5,5.709-8.013,4.342-13.053-2.57-9.471-14.279-18.482-26.659-20.515-18.905-3.1-26.542-6.336-35.383-10.08-2.488-1.054-5.061-2.143-8.019-3.287-6.441-2.49-13.933.422-17.819,6.926-3.721,6.23-3.921,16.136,6.677,25.256,14.678,12.632,48.352,8.976,48.691,8.938l.549-.063m20.283,10.988c-9.043,0-18.833-6.568-21.076-8.162-4.643.463-35.487,3-50.166-9.617-11.888-10.215-11.533-21.528-7.236-28.709,4.576-7.648,13.482-11.042,21.177-8.07,2.992,1.155,5.58,2.249,8.082,3.307,8.656,3.66,16.132,6.82,34.664,9.858,13.344,2.187,26.012,12.051,28.839,22.457,1.648,6.067-.214,11.707-5.242,15.882a13.744,13.744,0,0,1-9.041,3.054" transform="translate(-58.928 -296.302)" fill="#371a45" fill-rule="evenodd"/>
      <path id="Path_159" data-name="Path 159" d="M978.782,1164.185a.976.976,0,0,1-.46-1.837c14.436-7.695,10.379-34.5,10.337-34.771a.976.976,0,1,1,1.927-.305c.183,1.158,4.3,28.457-11.346,36.8a.971.971,0,0,1-.458.115" transform="translate(-113.154 -311.846)" fill="#371a45" fill-rule="evenodd"/>
      <path id="Path_160" data-name="Path 160" d="M988.855,1151.9s34.4,3.9,49.686-9.239c20.888-17.947,2.977-40.439-12.54-34.447-13.509,5.216-19.065,9.318-43.06,13.251-20.107,3.295-37.378,23.937-22.951,35.919,10.186,8.459,28.864-5.484,28.864-5.484" transform="translate(-97.811 -299.103)" fill="#fff" fill-rule="evenodd"/>
      <path id="Path_161" data-name="Path 161" d="M972.244,1228.205a12.145,12.145,0,0,1-8.126-2.786,16.508,16.508,0,0,1-3.118-3.477,16.5,16.5,0,0,0,3.118,3.477,12.152,12.152,0,0,0,8.125,2.786c6.624,0,13.841-3.922,17.746-6.406h0c-3.905,2.482-11.125,6.406-17.75,6.406m62.925-12.811h0a30.615,30.615,0,0,0,7.447-4.535c.336-.285.665-.572.982-.859q-.477.432-.983.86a30.592,30.592,0,0,1-7.445,4.534" transform="translate(-102.015 -367.229)" fill="#b38982" fill-rule="evenodd"/>
      <path id="Path_162" data-name="Path 162" d="M1087.323,1233.4q-.787,0-1.535-.009h0q.749.01,1.538.01c8,0,18.8-.753,27.853-4.04-9.05,3.287-19.851,4.041-27.853,4.041" transform="translate(-184.732 -380.061)" fill="#8c7b94" fill-rule="evenodd"/>
      <path id="Path_163" data-name="Path 163" d="M1048,1232.743c1.8-1.167,2.888-2.023,2.888-2.023s4.026.479,9.921.553h0c-5.9-.074-9.921-.552-9.921-.552s-1.091.854-2.887,2.021h0m42.141-5.731h0c1.035-.311,2.049-.647,3.034-1.011-.985.365-2,.7-3.034,1.011" transform="translate(-159.684 -377.835)" fill="#371a45" fill-rule="evenodd"/>
      <path id="Path_164" data-name="Path 164" d="M961,1222.133l-.005-.007.005.007M1043.588,1210l.008-.007-.008.007m0,0,0,0,0,0" transform="translate(-102.01 -367.222)" fill="#b38982" fill-rule="evenodd"/>
      <path id="Path_165" data-name="Path 165" d="M968.144,1187.519a12.39,12.39,0,0,1-8.15-2.724,16.273,16.273,0,0,1-3.128-3.4l0,0-.012-.017-.005-.009,0-.006a12.987,12.987,0,0,1-1.667-10.907c.737,2.49,1.46,6.319,4.054,8.333a15.883,15.883,0,0,0,9.879,3.548,18.879,18.879,0,0,0,12.263-4.989c4.162-3.691,3.483-6.715,6.155-8.217a2.243,2.243,0,0,1,1.125-.289c2.951,0,7.233,4.891,15.482,5.32q2.044.106,3.989.105c15.438,0,26.063-4.853,31.288-10.192a31.259,31.259,0,0,0,8.23-15.5c1.321,6.22-.61,13.682-8.06,20.569l0,0-.019.016-.008.008-.013.012-.019.017,0,0c-.315.289-.641.578-.974.866a30.317,30.317,0,0,1-7.391,4.57c-.94.422-1.907.81-2.894,1.169-9.05,3.287-19.849,4.04-27.852,4.04q-.788,0-1.538-.009c-5.949-.071-10.011-.532-10.011-.532s-1.1.823-2.915,1.946c-3.917,2.427-11.156,6.262-17.8,6.262" transform="translate(-97.814 -326.516)" fill="#b9afbe" fill-rule="evenodd"/>
      <path id="Path_166" data-name="Path 166" d="M1029.006,1105.7a13.145,13.145,0,0,0-4.757.885c-2.958,1.144-5.531,2.233-8.018,3.287-8.842,3.744-16.479,6.978-35.384,10.08-12.38,2.032-24.09,11.043-26.659,20.515-1.367,5.04.134,9.553,4.342,13.053,9.234,7.68,27-5.413,27.177-5.546l.443-.331.55.062c.339.038,34.023,3.685,48.691-8.938,10.6-9.12,10.4-19.026,6.676-25.256A15.468,15.468,0,0,0,1029.006,1105.7Zm-63.137,52.93a13.741,13.741,0,0,1-9.042-3.054c-5.029-4.175-6.89-9.815-5.242-15.882,2.827-10.406,15.5-20.27,28.839-22.457,18.531-3.038,26.007-6.2,34.663-9.858,2.5-1.057,5.089-2.152,8.081-3.307,7.7-2.973,16.6.422,21.178,8.07,4.3,7.181,4.651,18.494-7.237,28.709-14.678,12.612-45.523,10.08-50.166,9.616-2.242,1.594-12.033,8.162-21.075,8.162Z" transform="translate(-95.386 -296.302)" fill="#371a45" fill-rule="evenodd"/>
      <path id="Path_167" data-name="Path 167" d="M1126.96,1164.184a.971.971,0,0,1-.458-.115c-15.649-8.342-11.53-35.64-11.346-36.8a.976.976,0,0,1,1.927.3c-.042.27-4.086,27.084,10.337,34.772a.976.976,0,0,1-.46,1.837" transform="translate(-203.786 -311.845)" fill="#371a45" fill-rule="evenodd"/>
      <path id="Path_168" data-name="Path 168" d="M1279.046,1033c0-4.934,5.569-8.934,10.55-8.934h4.233l3.085,17.868H1289.6a9.055,9.055,0,0,1-6.381-2.617c-1.633-1.616-4.168-3.848-4.168-6.317m-4.046-.169a14.814,14.814,0,0,0,14.8,14.834h14.193l-5.06-29.668H1289.8a14.818,14.818,0,0,0-14.8,14.833" transform="translate(-310.155 -239.959)" fill="#00c10e" fill-rule="evenodd"/>
      <path id="Path_169" data-name="Path 169" d="M1314.474,1052.948h-6.781a13.685,13.685,0,0,1-5.693-1.227,6.433,6.433,0,0,0,1.191-.8,15.163,15.163,0,0,0,4.5.678h6.187q.287.676.595,1.344m-7.558-23.6c0-.023,0-.046-.006-.068a11.1,11.1,0,0,0-.864-1.185,11.11,11.11,0,0,1,1.5-.1h2.212l-.031.5q-.026.418-.045.835h-2.135q-.313,0-.627.016" transform="translate(-328.053 -246.587)" fill="#138721" fill-rule="evenodd"/>
      <path id="Path_170" data-name="Path 170" d="M1286.911,1022.765c-4.444,0-9.168,2.658-9.168,7.585,0,7.5,9.076,7.585,9.168,7.585h5.666l-2.611-15.171h-3.055m9.037,17.868h-8.969c-4.8,0-11.933-2.738-11.933-10.282,0-6.437,6.067-10.283,11.933-10.283h5.411l3.558,20.565m-8.837-23.936a13.5,13.5,0,0,0-9.484,23.022,13.3,13.3,0,0,0,9.484,3.948h12.546l-4.586-26.97h-7.96m15.917,29.667h-15.839a16.182,16.182,0,1,1,0-32.365h10.305l5.534,32.365" transform="translate(-307.504 -237.307)" fill="#371a45" fill-rule="evenodd"/>
      <path id="Path_171" data-name="Path 171" d="M1329.956,1038.258a9.488,9.488,0,0,0,7.314,5.377,40.99,40.99,0,0,0,10.6,0,9.514,9.514,0,0,0,7.331-5.415,51.924,51.924,0,0,0,4.974-22.18c0-1.1-.031-2.2-.1-3.3l-.525-8.309c0,1.77-7.6,3.2-16.981,3.2s-16.977-1.435-16.977-3.2l-.529,8.309a51.982,51.982,0,0,0,4.893,25.521" transform="translate(-343.272 -230.962)" fill="#00c10e" fill-rule="evenodd"/>
      <path id="Path_172" data-name="Path 172" d="M1374.353,1051.6a12.631,12.631,0,0,0-2.49-3.172,10.213,10.213,0,0,1-1.316-1.606,7.659,7.659,0,0,1-1.084-2.516,6.673,6.673,0,0,1-.124-.7,7.7,7.7,0,0,1-.064-.968c0-.347.1-.5.444-.576a4.116,4.116,0,0,1,1.834.011h0a4.5,4.5,0,0,1,1.25.51,9.014,9.014,0,0,1,4.072,9.04,4.82,4.82,0,0,1-1.786,3.115,6.7,6.7,0,0,0-.738-3.139m-6.473-8.644a8.518,8.518,0,0,0,1.193,4.24,11.939,11.939,0,0,0,2.214,2.68,8.182,8.182,0,0,1,1.194,1.43,6.333,6.333,0,0,1,1.223,3.746.543.543,0,0,1-.5.611,4.26,4.26,0,0,1-3.138-.535,8.833,8.833,0,0,1-3.917-5.634,8.389,8.389,0,0,1-.095-3.424.138.138,0,0,1,0-.03,6.858,6.858,0,0,1,.176-.714,4.285,4.285,0,0,1,1.645-2.37" transform="translate(-370.424 -255.847)" fill="#fcf7fb" fill-rule="evenodd"/>
      <path id="Path_173" data-name="Path 173" d="M1422.371,1013.765c-.011-.171-.024-.342-.037-.513l-.637-8.237s0-.01,0-.016l.637,8.253c.013.17.026.342.036.512m-3.371-7.08a6.08,6.08,0,0,0,2.7-1.349,6.071,6.071,0,0,1-2.7,1.349" transform="translate(-405.609 -231.341)" fill="#fcede3" fill-rule="evenodd"/>
      <path id="Path_174" data-name="Path 174" d="M1362.37,1039.014a51.938,51.938,0,0,0,3.644-19.108c0-1.1-.032-2.2-.1-3.3l-.29-4.555a2.49,2.49,0,0,0-2.47-2.337,2.446,2.446,0,0,0-.552.063,39.622,39.622,0,0,1-8.262.792,35.465,35.465,0,0,1-5.474-.384,39.171,39.171,0,0,1-11.21-3.741,62.328,62.328,0,0,0,13.331,1.219,58.041,58.041,0,0,0,14.091-1.417,6.079,6.079,0,0,0,2.634-1.232l0,0,0,0a.832.832,0,0,0,.252-.539l.524,8.295c.011.172.021.344.03.517.049.93.072,1.856.072,2.785a51.935,51.935,0,0,1-4.975,22.183q-.125.267-.267.524-.488.126-.98.24" transform="translate(-351.687 -230.99)" fill="#b2ecb6" fill-rule="evenodd"/>
      <path id="Path_175" data-name="Path 175" d="M1347.925,1044.107a9.53,9.53,0,0,0,6.994-4.912h0c.029-.047.058-.1.084-.145-.007.013-.014.027-.02.042a9.013,9.013,0,0,1-6.9,4.994l-.16.021m-10.788,0-.152-.02a9.082,9.082,0,0,1-5.917-3.352h.047a9.465,9.465,0,0,0,6.022,3.371m-9.777-12.137h0A52.329,52.329,0,0,1,1325,1016.8h0a52.3,52.3,0,0,0,2.359,15.171m-2.027-23.936h0l.008-.337-.008.337m2.027-1.686c-1.074-.4-1.681-.859-1.686-1.34V1005c0,.484.606.941,1.686,1.346v0" transform="translate(-343.299 -231.341)" fill="#b38982" fill-rule="evenodd"/>
      <path id="Path_176" data-name="Path 176" d="M1329.675,1048.285h0q-.352-.837-.674-1.686.322.847.674,1.686m-3.725-23.6h0l.034-1.686h0l-.033,1.686" transform="translate(-343.929 -243.273)" fill="#138721" fill-rule="evenodd"/>
      <path id="Path_177" data-name="Path 177" d="M1329.687,1052.948h0q-.348-.67-.674-1.348.325.678.674,1.348m-4.736-23.6h0q.008-.422.02-.845l.014-.5h0l-.014.505c-.008.281-.014.563-.02.843" transform="translate(-343.266 -246.587)" fill="#20612e" fill-rule="evenodd"/>
      <path id="Path_178" data-name="Path 178" d="M1331.044,1046.365h-.049a8.851,8.851,0,0,1-1.081-1.605q-.285-.543-.555-1.092.215.436.438.868a9.251,9.251,0,0,0,1.248,1.829m-2.7-5.731h0q-.548-1.336-1.011-2.7.464,1.36,1.011,2.7m-3.383-17.868h0q0-1.347.024-2.7h0q-.028,1.35-.024,2.7m.013-6.068h0l.337-2.7-.336,2.7" transform="translate(-343.274 -237.307)" fill="#371a45" fill-rule="evenodd"/>
      <path id="Path_179" data-name="Path 179" d="M1342.568,1043.992a41.022,41.022,0,0,1-5.4-.357,9.421,9.421,0,0,1-6.031-3.469,9.667,9.667,0,0,1-1.182-1.9q-.212-.448-.415-.9-.306-.68-.592-1.369c-.233-.56-.457-1.125-.67-1.692q-.52-1.384-.96-2.794a51.955,51.955,0,0,1-2.358-15.115q-.01-1.4.056-2.8c.013-.285.029-.571.047-.857l.529-8.3c.005.51.641.991,1.767,1.418l-.187,2.955a52.012,52.012,0,0,0,3.057,21.128,15.378,15.378,0,0,0,14.35,10.115h.1a40.976,40.976,0,0,0,9.274-1.065q-.443,1.118-.937,2.216a9.61,9.61,0,0,0,1.916-2.456h0a9.495,9.495,0,0,1-6.969,4.877,41.088,41.088,0,0,1-5.4.356" transform="translate(-343.272 -230.976)" fill="#138721" fill-rule="evenodd"/>
      <path id="Path_180" data-name="Path 180" d="M1408.189,1108.678q.494-1.1.937-2.216.491-.114.98-.24a9.612,9.612,0,0,1-1.916,2.456" transform="translate(-398.442 -298.438)" fill="#87a38f" fill-rule="evenodd"/>
      <path id="Path_181" data-name="Path 181" d="M1326.837,998.119c0,1.77,7.6,3.2,16.977,3.2s16.981-1.435,16.981-3.2-7.6-3.209-16.981-3.209-16.977,1.439-16.977,3.209" transform="translate(-344.516 -224.653)" fill="#fff" fill-rule="evenodd"/>
      <path id="Path_182" data-name="Path 182" d="M1326.835,998.114c0,.585.827,1.132,2.272,1.6,2.936.957,8.42,1.6,14.7,1.6s11.773-.644,14.713-1.6c1.444-.472,2.272-1.019,2.272-1.6,0-1.768-7.6-3.209-16.985-3.209s-16.976,1.441-16.976,3.209" transform="translate(-344.515 -224.65)" fill="#fff" fill-rule="evenodd"/>
      <path id="Path_183" data-name="Path 183" d="M1334.281,1006.021c2.936.956,8.42,1.6,14.7,1.6s11.773-.644,14.713-1.6c-2.94-.96-8.428-1.6-14.713-1.6s-11.769.645-14.7,1.6" transform="translate(-349.451 -230.954)" fill="#93603e" fill-rule="evenodd"/>
      <path id="Path_184" data-name="Path 184" d="M1324.158,1006.371l-.361,5.677a50.66,50.66,0,0,0,4.846,25,7.715,7.715,0,0,0,5.914,4.361,39.656,39.656,0,0,0,10.652,0,7.593,7.593,0,0,0,5.841-4.215,50.808,50.808,0,0,0,5.011-21.937c0-1.124-.033-2.173-.1-3.208l-.358-5.679a20.232,20.232,0,0,1-3.479.924,78.444,78.444,0,0,1-24.487,0A20.244,20.244,0,0,1,1324.158,1006.371Zm15.891,38.1a42.65,42.65,0,0,1-5.721-.387,10.541,10.541,0,0,1-8.086-5.946,53.688,53.688,0,0,1-5.136-26.493l.53-8.334,2.8.088a.651.651,0,0,0-.119-.4c.667.746,6.129,2.208,15.733,2.208s15.069-1.462,15.736-2.208a.658.658,0,0,0-.118.4l2.8-.088.526,8.334c.071,1.1.106,2.212.106,3.4a53.846,53.846,0,0,1-5.309,23.245,10.417,10.417,0,0,1-8.01,5.792,42.624,42.624,0,0,1-5.728.388Z" transform="translate(-340.647 -230.015)" fill="#371a45" fill-rule="evenodd"/>
      <path id="Path_185" data-name="Path 185" d="M1326.371,995.553c1.807.789,6.938,1.852,15,1.852s13.2-1.063,15-1.852c-1.808-.792-6.94-1.856-15-1.856S1328.179,994.761,1326.371,995.553Zm15,4.549a70.282,70.282,0,0,1-12.262-.951c-4.225-.789-6.11-1.9-6.11-3.6s1.885-2.809,6.109-3.6a79.338,79.338,0,0,1,24.529,0c4.225.79,6.109,1.9,6.109,3.6s-1.884,2.809-6.11,3.6a70.315,70.315,0,0,1-12.265.951Z" transform="translate(-341.973 -222.061)" fill="#371a45" fill-rule="evenodd"/>
      <path id="Path_186" data-name="Path 186" d="M1255.134,1022.561c-1.225,4.186.123,8.139,2.542,9.157,5.088,2.142,8.768-7.785,8.768-7.785s-1.709-7.173-5.062-7.055c-2.379.084-5.138,1.9-6.248,5.682" transform="translate(-296.682 -239.214)" fill="#fff" fill-rule="evenodd"/>
      <path id="Path_187" data-name="Path 187" d="M1262.032,1043.179a2.223,2.223,0,0,1-.87-.187c-1.573-.662-2.651-3.684-1.787-7.052a5.077,5.077,0,0,0,2.641,3.392,3.8,3.8,0,0,0,1,.275,32.027,32.027,0,0,0-.124,3.391,2.277,2.277,0,0,1-.863.18" transform="translate(-299.595 -251.851)" fill="#b9afbe" fill-rule="evenodd"/>
      <path id="Path_188" data-name="Path 188" d="M1253.432,1019.636c-1.027,3.483.073,6.668,1.7,7.349a2.174,2.174,0,0,0,1.8-.018c2.2-.945,4.119-4.666,4.868-6.473-.664-2.4-2.163-5.514-3.471-5.459-1.781.062-3.985,1.51-4.9,4.6m2.508,10.569a5.181,5.181,0,0,1-2.023-.418c-3.3-1.393-4.79-6.225-3.4-11,1.418-4.858,5-6.692,7.637-6.785,4.354-.141,6.239,6.835,6.572,8.238l.1.438-.156.423c-.26.7-2.658,6.928-6.631,8.654a5.273,5.273,0,0,1-2.106.449" transform="translate(-293.584 -235.981)" fill="#371a45" fill-rule="evenodd"/>
      <path id="Path_189" data-name="Path 189" d="M1285.965,1021.792s-4.693-7.685-11.322-3.836c-5.153,2.993-4.384,14.161-3.858,16.69,1.883,9.054,8.454,14.29,13.449,6.409a53.817,53.817,0,0,0,1.731-19.263" transform="translate(-307.11 -239.214)" fill="#fff" fill-rule="evenodd"/>
      <path id="Path_190" data-name="Path 190" d="M1279.177,1073.8c-3.515,0-6.784-4.3-8.025-10.263-.063-.3-.13-.735-.19-1.261h0c.059.526.126.956.19,1.26,1.239,5.959,4.509,10.264,8.025,10.264h0m5.865-5.367h0a56.826,56.826,0,0,0,1.279-7.975,56.589,56.589,0,0,1-1.279,7.975m-.276,1.045c.075-.255.169-.607.276-1.045-.106.438-.2.79-.276,1.045" transform="translate(-307.479 -268.101)" fill="#371a45" fill-rule="evenodd"/>
      <path id="Path_191" data-name="Path 191" d="M1270.634,1061.2c-.074-.657-.137-1.465-.167-2.364.03.9.094,1.706.169,2.364h0" transform="translate(-307.151 -267.026)" fill="#371a45" fill-rule="evenodd"/>
      <path id="Path_192" data-name="Path 192" d="M1278.811,1057.584c-3.516,0-6.786-4.306-8.025-10.264-.063-.3-.13-.735-.19-1.261-.075-.657-.138-1.464-.169-2.364a32.34,32.34,0,0,1,.139-4.359c.066.654.144,1.183.218,1.537,1.228,5.9,4.339,8.275,7.808,8.275a10.582,10.582,0,0,0,5.643-1.864c.267-.173,1.478-5.029,1.855-11.288a53.659,53.659,0,0,1-.136,8.246,56.823,56.823,0,0,1-1.279,7.975c-.107.438-.2.79-.276,1.045a2.929,2.929,0,0,1-.163.467c-1.684,2.656-3.548,3.823-5.35,3.854h-.074" transform="translate(-307.112 -251.888)" fill="#b9afbe" fill-rule="evenodd"/>
      <path id="Path_193" data-name="Path 193" d="M1236.669,1036.941l-.008.013Zm-4.663-21.907a5.864,5.864,0,0,0-2.968.854c-4.207,2.436-3.67,12.548-3.149,15.046,1.009,4.837,3.5,8.538,6.047,9,1.972.358,3.592-1.41,4.625-3a53.82,53.82,0,0,0,1.607-17.995C1237.523,1018.005,1235.213,1015.034,1232.006,1015.034Zm.427,27.982a5.813,5.813,0,0,1-1.034-.091c-3.859-.7-7.192-5.155-8.491-11.356-.481-2.295-1.614-14.7,4.6-18.286,6.285-3.622,11.536,1.26,13.436,4.348l.177.288.034.337c.966,9.656-1.407,19.338-1.969,20.218-2.393,3.747-4.985,4.542-6.754,4.542Zm-30.586.532a.975.975,0,0,1-.965-.837c-2.816-19.664,7.222-26.656,7.65-26.944a.976.976,0,0,1,1.091,1.617c-.1.072-9.44,6.688-6.81,25.049a.977.977,0,0,1-.827,1.1,1.062,1.062,0,0,1-.14.009" transform="translate(-260.695 -235.981)" fill="#371a45" fill-rule="evenodd"/>
      <path id="Path_194" data-name="Path 194" d="M1347.989,922.755l-.192-3.079a.18.18,0,0,1,.168-.19h0l.022,0,1.384-.072c.226-.013.469-.02.684-.04a2.451,2.451,0,0,0,.6-.124,2.5,2.5,0,0,0,1.609-1.634,2.31,2.31,0,0,0-2.2-2.983c-.046,0-.092,0-.139,0-1.844.058-3.69.136-5.534.173l-2.767.067-1.384.034c-.162,0-.3.01-.475.01-.084,0-.179,0-.29-.007a3.84,3.84,0,0,1-3.455-2.7,3.885,3.885,0,0,1,.675-3.581,3.959,3.959,0,0,1,2.4-1.432,3.319,3.319,0,0,1,.473-.056l.229-.012.172,0,2.768-.033q4.621-.039,9.244-.04.912,0,1.825,0l5.534.022.347,0h.242c.033,0,.061,0,.078,0a1.909,1.909,0,0,0,.432-.053,2,2,0,0,0,.779-.377,1.961,1.961,0,0,0-.011-3.08,2.1,2.1,0,0,0-.814-.4l-.227-.041-.247-.015-.691-.01c-1.844-.019-3.69-.08-5.534-.119s-3.69-.08-5.535-.15l-2.767-.092a4.172,4.172,0,0,1-2.9-1.224,3.994,3.994,0,0,1-1.161-2.858,3.827,3.827,0,0,1,1.192-2.743,3.784,3.784,0,0,1,2.581-1.045l.109,0c.933.047,1.848.1,2.772.168l-2.762.178a3.309,3.309,0,0,0-2.241,1.138,3.167,3.167,0,0,0-.759,2.28,2.98,2.98,0,0,0,1.042,2.06,3.029,3.029,0,0,0,1.96.723c.057,0,.114,0,.171,0l2.767-.093c1.844-.07,3.69-.1,5.535-.15s3.69-.1,5.534-.119l.691-.01h.01c.124,0,.292.008.435.015s.305.037.457.064a4.22,4.22,0,0,1,1.679.749,4.161,4.161,0,0,1,.169,6.539,4.28,4.28,0,0,1-1.676.848,4.158,4.158,0,0,1-.935.13c-.087.005-.142,0-.2.005h-.172l-.347,0-5.534.022q-.909,0-1.815,0-4.627,0-9.253-.04l-2.768-.033-.172,0-.117,0h-.023a1.308,1.308,0,0,0-.191.018,1.806,1.806,0,0,0-.413.11,1.856,1.856,0,0,0-.695.5,1.838,1.838,0,0,0-.384.767,1.838,1.838,0,0,0,1.2,2.129,2.876,2.876,0,0,0,1.064.129l1.384.034,2.767.067c1.844.036,3.69.115,5.534.173a3.524,3.524,0,0,1,2.854,1.516,3.356,3.356,0,0,1,.351,3.128,3.239,3.239,0,0,1-2.3,1.971,3.013,3.013,0,0,1-.7.077h-.06c-.247,0-.465-.022-.7-.032l-1.2-.062-.18,2.878" transform="translate(-350.493 -158.343)" fill="#fcede3" fill-rule="evenodd"/>
    </g>
  </g>
</svg>
