<svg width="200" height="68" viewBox="0 0 200 68" fill="none" xmlns="http://www.w3.org/2000/svg">
<path d="M23.9316 62.7867C16.9379 62.7867 13.441 62.1822 13.441 60.9733C13.441 60.2933 13.9874 59.9533 15.0802 59.9533H16.8286C17.12 60.0289 17.4114 60.0667 17.7028 60.0667C18.0671 60.0667 18.4313 60.0667 18.7956 60.0667C26.1535 60.0667 33.0015 58.8955 39.3396 56.5533C45.8233 54.1355 51.1414 51.1889 55.2939 47.7133C59.5193 44.0867 62.834 40.2333 65.2381 36.1533C67.715 31.9978 68.9535 28.0689 68.9535 24.3667C68.9535 18.5489 66.7316 13.94 62.2876 10.54C59.7379 8.57555 57.0059 7.21555 54.0919 6.46C51.2507 5.70444 48.2638 5.32666 45.1312 5.32666H44.3663C39.4124 5.32666 33.4022 6.23333 26.3357 8.04666C19.342 9.86 11.3283 12.5044 2.29481 15.98C0.764936 15.98 0 14.8089 0 12.4667C0 11.7111 0.32783 11.1822 0.983489 10.88C1.34774 10.7289 1.96698 10.5022 2.84119 10.2C3.7154 9.82222 5.17242 9.33111 7.21225 8.72666C13.7688 6.68666 20.0705 5.17555 26.1171 4.19333C32.1637 3.13556 37.8461 2.60667 43.1642 2.60667C51.6878 2.60667 58.7544 4.72222 64.3639 8.95333C69.9006 13.1089 72.6689 18.7378 72.6689 25.84C72.6689 30.1467 71.4669 34.4911 69.0628 38.8733C66.7316 43.2556 63.4897 47.2222 59.3372 50.7733C55.1847 54.4 50.0122 57.2711 43.8199 59.3867C37.6276 61.6533 30.9981 62.7867 23.9316 62.7867ZM11.0369 68C9.87132 68 8.92425 67.2822 8.19574 65.8467C7.46723 64.4867 7.10298 62.4844 7.10298 59.84C7.10298 50.5467 12.2025 36.5689 22.4017 17.9067C22.4017 17.6044 22.766 16.8111 23.4945 15.5267C24.2958 14.2422 24.9515 13.1089 25.4614 12.1267C26.4085 10.2378 27.2827 9.29333 28.0841 9.29333C28.8854 9.29333 29.7961 9.52 30.816 9.97333C31.8359 10.3511 32.3459 10.7667 32.3459 11.22C31.3988 12.8822 30.4153 14.5444 29.3954 16.2067C28.4483 17.8689 27.4648 19.5311 26.4449 21.1933C15.2987 41.2156 9.72561 54.8911 9.72561 62.22C9.72561 63.1267 9.98059 64.2222 10.4905 65.5067C11.0005 66.7911 11.2555 67.5844 11.2555 67.8867L11.0369 68Z" fill="#f9f9f9"/>
<path d="M82.322 60.9733C76.1296 60.9733 73.0335 57.9889 73.0335 52.02C73.0335 47.4111 75.219 41.82 79.59 35.2467C84.1068 28.6733 88.405 25.3867 92.4847 25.3867C94.2331 25.3867 95.763 25.9911 97.0743 27.2C98.4585 28.3333 99.1506 29.7311 99.1506 31.3933C99.1506 34.1889 97.4385 37.0222 94.0145 39.8933C90.6634 42.6889 87.3487 44.0867 84.0704 44.0867C83.4147 44.0867 83.0869 43.9356 83.0869 43.6333L83.4147 43.0667C91.7926 40.3467 95.9815 35.8889 95.9815 29.6933C95.9815 28.7867 95.6901 28.3333 95.1073 28.3333C94.306 28.3333 92.8489 29.2022 90.7363 30.94C88.915 32.4511 87.203 34.1889 85.6003 36.1533C84.0704 38.1178 82.6862 40.1578 81.4477 42.2733C78.8251 46.8822 77.5138 50.7356 77.5138 53.8333C77.5138 56.8556 78.643 58.3667 80.9014 58.3667C83.524 58.3667 86.4016 56.9689 89.5342 54.1733C90.5541 53.1911 91.6469 52.0955 92.8125 50.8867C93.9781 49.6022 95.253 48.2044 96.6372 46.6933C99.3327 43.6711 100.753 42.16 100.899 42.16C101.336 42.16 101.555 42.3489 101.555 42.7267C101.555 43.0289 101.482 43.3311 101.336 43.6333C93.6867 55.1933 87.3487 60.9733 82.322 60.9733Z" fill="#f9f9f9"/>
<path d="M104.33 59.9533C103.602 59.9533 102.909 59.7644 102.254 59.3867C101.598 58.9333 101.234 58.48 101.161 58.0267C101.161 56.7422 102.363 52.2089 104.767 44.4267C107.171 36.5689 108.373 30.6756 108.373 26.7467C108.373 25.6133 108.118 24.9711 107.608 24.82C107.098 24.5933 106.588 24.5178 106.079 24.5933C105.569 24.5933 105.314 24.4044 105.314 24.0267C105.314 23.3467 105.86 23.0067 106.953 23.0067C111.834 23.0067 114.274 25.0844 114.274 29.24C114.274 30.7511 112.526 36.9089 109.029 47.7133C110.632 45.0689 112.198 42.6511 113.728 40.46C115.331 38.1933 116.86 36.1156 118.317 34.2267C121.304 30.4489 123.308 28.56 124.328 28.56C124.328 28.56 124.328 28.5978 124.328 28.6733C124.401 28.6733 124.437 28.7111 124.437 28.7867C124.437 28.8622 124.364 29.0511 124.218 29.3533C124.146 29.58 123.927 29.92 123.563 30.3733C115.695 40.1955 110.231 48.6578 107.171 55.76L106.188 58.7067C105.896 59.5378 105.277 59.9533 104.33 59.9533ZM126.95 61.2C124.838 61.2 123.162 60.18 121.924 58.14C120.758 56.2511 120.175 53.4178 120.175 49.64C120.175 46.0133 121.122 41.14 123.016 35.02C124.911 28.9 126.732 25.84 128.48 25.84H129.027C131.431 25.84 132.706 26.3311 132.851 27.3133C132.706 27.1622 132.523 27.3889 132.305 27.9933C131.285 29.8822 130.301 31.9978 129.354 34.34C128.48 36.6822 127.642 39.2133 126.841 41.9333C125.238 47.2222 124.437 50.7733 124.437 52.5867C124.437 57.1955 125.238 59.5 126.841 59.5C127.278 59.5 127.897 59.16 128.699 58.48C129.573 57.8 129.974 57.4222 129.901 57.3467C130.119 57.3467 130.229 57.6489 130.229 58.2533C130.229 60.2178 129.136 61.2 126.95 61.2Z" fill="#f9f9f9"/>
<path d="M148.662 20.1733C147.059 20.1733 145.748 19.72 144.728 18.8133C146.112 17.8311 147.569 16.5467 149.099 14.96C150.702 13.3733 152.341 11.4844 154.017 9.29333C154.162 9.29333 154.235 9.48222 154.235 9.86L153.689 13.1467C153.325 15.4889 152.669 17.2644 151.722 18.4733C150.775 19.6067 149.755 20.1733 148.662 20.1733ZM138.172 61.4267C135.403 61.4267 134.019 59.3489 134.019 55.1933C134.019 48.9222 136.205 40.6489 140.576 30.3733C140.576 30.0711 140.758 29.5044 141.122 28.6733C141.559 27.8422 141.887 27.3133 142.106 27.0867C142.616 26.5578 143.308 26.2933 144.182 26.2933C146.732 26.2933 148.116 26.8222 148.334 27.88C147.169 29.8444 146.04 32.1111 144.947 34.68C143.927 37.2489 142.907 40.0822 141.887 43.18C140.794 46.5044 139.993 49.2622 139.483 51.4533C139.046 53.5689 138.827 55.2689 138.827 56.5533C138.827 58.4422 139.301 59.3867 140.248 59.3867C140.904 59.3867 141.741 58.9711 142.761 58.14C143.563 57.46 144.109 56.9689 144.4 56.6667C144.765 56.3644 145.093 56.1 145.384 55.8733C145.675 55.8733 145.821 56.0244 145.821 56.3267C145.821 57.1578 144.765 58.2156 142.652 59.5C140.539 60.7844 139.046 61.4267 138.172 61.4267Z" fill="#f9f9f9"/>
<path d="M154.199 62.3333C152.378 62.3333 150.775 61.9933 149.391 61.3133C148.08 60.6333 147.424 59.9911 147.424 59.3867C155.802 57.5733 159.991 55.3822 159.991 52.8133C159.991 52.2844 159.008 51.1133 157.041 49.3C153.252 45.8244 151.358 41.9333 151.358 37.6267C151.358 34.5289 153.216 31.4689 156.931 28.4467C160.792 25.2733 164.289 23.6867 167.422 23.6867C167.932 23.6867 168.952 24.48 170.482 26.0667C172.012 27.6533 172.776 28.6733 172.776 29.1267C172.776 29.5044 172.594 29.6933 172.23 29.6933C171.429 29.5422 170.773 29.4289 170.263 29.3533C169.753 29.2022 169.389 29.1267 169.17 29.1267C165.892 29.1267 162.504 30.3733 159.008 32.8667C155.584 35.36 153.872 37.8911 153.872 40.46C153.872 40.9133 155.584 43.2178 159.008 47.3733C162.432 51.3778 164.144 54.1356 164.144 55.6467C164.144 57.1578 163.124 58.6311 161.084 60.0667C159.991 60.8222 158.825 61.3889 157.587 61.7667C156.421 62.1444 155.292 62.3333 154.199 62.3333Z" fill="#f9f9f9"/>
<path d="M173.227 63.92C172.79 63.92 172.389 63.7311 172.025 63.3533C168.164 59.1222 166.234 56.8178 166.234 56.44C166.234 55.9867 166.452 55.76 166.889 55.76H167.108C169.075 54.4756 170.714 53.3422 172.025 52.36C172.681 49.7911 173.555 46.8444 174.648 43.52C175.813 40.1956 177.125 36.7956 178.582 33.32L184.811 18.4733C186.195 15.1489 187.251 12.3156 187.98 9.97333C188.781 7.55555 189.182 5.59111 189.182 4.08C189.182 2.41778 188.49 1.58667 187.105 1.58667L183.281 2.38C182.916 2.38 182.734 2.15333 182.734 1.7C182.734 0.566666 184.118 0 186.887 0C189.655 0 191.731 0.528889 193.116 1.58667C194.5 2.56889 195.192 3.92889 195.192 5.66666C195.192 7.25333 193.553 11.5222 190.274 18.4733L183.827 32.1867L177.38 47.6C180.367 44.88 183.317 41.7067 186.231 38.08C189.218 34.3778 191.44 31.4311 192.897 29.24C194.427 26.9733 195.301 25.84 195.52 25.84H196.066C198.689 25.84 200 26.3311 200 27.3133C200 27.2378 199.964 27.2378 199.891 27.3133C199.891 27.3133 199.927 27.3511 200 27.4267V27.3133C199.927 27.1622 199.745 27.3889 199.454 27.9933C198.434 29.8822 197.45 31.9978 196.503 34.34C195.629 36.6822 194.791 39.2133 193.99 41.9333C192.387 47.2222 191.586 50.7733 191.586 52.5867C191.586 57.1955 192.351 59.5 193.881 59.5C194.39 59.5 195.447 58.7822 197.05 57.3467C197.268 57.3467 197.377 57.6489 197.377 58.2533C197.377 60.2178 196.321 61.2 194.208 61.2C192.169 61.2 190.493 60.1044 189.182 57.9133C187.87 55.7222 187.215 53.1911 187.215 50.32C187.215 47.2222 187.907 43.7467 189.291 39.8933C186.96 42.3867 184.628 44.6911 182.297 46.8067C180.039 48.8467 177.853 50.7355 175.741 52.4733C174.284 56.78 173.555 59.6889 173.555 61.2V61.7667C174.211 62.22 174.539 62.5978 174.539 62.9C174.539 63.58 174.101 63.92 173.227 63.92ZM171.151 60.4067C171.151 60.2555 171.115 60.0289 171.042 59.7267C171.042 59.5 171.042 59.2356 171.042 58.9333C171.042 58.1778 171.151 57.0822 171.37 55.6467C170.568 56.1 169.913 56.44 169.403 56.6667C168.893 56.8933 168.565 57.0444 168.419 57.12C168.783 57.6489 169.184 58.2155 169.621 58.82C170.058 59.3489 170.568 59.8778 171.151 60.4067Z" fill="#f9f9f9"/>
</svg>
