<?xml version="1.0" encoding="UTF-8"?>
<svg viewBox="0 0 250 269" version="1.1" xmlns="http://www.w3.org/2000/svg" xmlns:xlink="http://www.w3.org/1999/xlink">
    <title>Download eBook</title>
    <defs>
        <linearGradient x1="50%" y1="1.02040816%" x2="50%" y2="98.9795918%" id="linearGradient-1">
            <stop stop-color="#FFFFFF" offset="0%"></stop>
            <stop stop-color="#FFFFFF" stop-opacity="0" offset="100%"></stop>
        </linearGradient>
        <linearGradient x1="100%" y1="63.3769322%" x2="57.7860345%" y2="21.1630797%" id="linearGradient-2">
            <stop stop-color="#36D441" offset="0%"></stop>
            <stop stop-color="#5DCDD4" offset="100%"></stop>
        </linearGradient>
        <linearGradient x1="0.0856879204%" y1="0%" x2="99.9977857%" y2="99.9137305%" id="linearGradient-3">
            <stop stop-color="#EECB6E" offset="0%"></stop>
            <stop stop-color="#EA6A5D" offset="100%"></stop>
        </linearGradient>
        <linearGradient x1="-0.00232953231%" y1="15.2208549%" x2="82.0436604%" y2="97.2679181%" id="linearGradient-4">
            <stop stop-color="#F18476" offset="0%"></stop>
            <stop stop-color="#DE4A4A" offset="100%"></stop>
        </linearGradient>
        <linearGradient x1="-0.000415982492%" y1="-2.13711377e-05%" x2="99.9997364%" y2="100.000032%" id="linearGradient-5">
            <stop stop-color="#9DC7EB" offset="0%"></stop>
            <stop stop-color="#5070D5" offset="100%"></stop>
        </linearGradient>
        <linearGradient x1="18.9911674%" y1="40.19567%" x2="79.7403427%" y2="67.0635414%" id="linearGradient-6">
            <stop stop-color="#6587DB" offset="0%"></stop>
            <stop stop-color="#698CDC" offset="100%"></stop>
        </linearGradient>
        <linearGradient x1="25.4945513%" y1="29.4362512%" x2="73.5029951%" y2="85.7893276%" id="linearGradient-7">
            <stop stop-color="#6587DB" offset="0%"></stop>
            <stop stop-color="#698CDC" offset="100%"></stop>
        </linearGradient>
    </defs>
    <g id="Page-1" stroke="none" stroke-width="1" fill="none" fill-rule="evenodd">
        <g id="Download-eBook" transform="translate(2.500000, -0.000000)">
            <g id="bg" transform="translate(0.000000, 21.500000)">
                <path d="M122.5,242.5 C188.774,242.5 242.5,188.774 242.5,122.5 C242.5,56.2258 188.774,2.5 122.5,2.5 C56.2258,2.5 2.5,56.2258 2.5,122.5 C2.5,188.774 56.2258,242.5 122.5,242.5 Z" id="Path" fill-opacity="0.5" fill="#F2F8FD" fill-rule="nonzero"></path>
                <path d="M122.5,245 C190.155,245 245,190.155 245,122.5 C245,54.8451 190.155,0 122.5,0 C54.8451,0 0,54.8451 0,122.5 C0,190.155 54.8451,245 122.5,245 Z" id="Path" stroke="url(#linearGradient-1)" stroke-width="5"></path>
            </g>
            <path d="M21.4904,52.8888005 C24.4388,51.9297005 26.0521,48.7600005 25.0938,45.8092005 C24.1355,42.8584005 20.9685,41.2438005 18.0201,42.2029005 C15.0718,43.1620005 13.4585,46.3316005 14.4168,49.2824005 C15.3751,52.2332005 18.5421,53.8479005 21.4904,52.8888005 Z" id="circle_Path_1" fill="#EAEEF9" fill-rule="nonzero"></path>
            <path d="M33.7458,34.5572005 C35.7507,33.9050005 36.8477,31.7497005 36.1961,29.7431005 C35.5445,27.7365005 33.3909,26.6386005 31.386,27.2908005 C29.3811,27.9430005 28.2841,30.0983005 28.9358,32.1049005 C29.5874,34.1115005 31.7409,35.2094005 33.7458,34.5572005 Z" id="circle_Path_2" fill="#EAEEF9" fill-rule="nonzero"></path>
            <path d="M232.674,86.6352005 C236.153,83.4536005 236.396,78.0519005 233.217,74.5703005 C230.038,71.0887005 224.641,70.8455005 221.162,74.0272005 C217.683,77.2088005 217.44,82.6105005 220.619,86.0921005 C223.798,89.5737005 229.196,89.8169005 232.674,86.6352005 Z" id="circle_Path_3" fill="#EAEEF9" fill-rule="nonzero"></path>
            <path d="M233.32,48.3498005 C234.784,47.0102005 234.887,44.7358005 233.548,43.2698005 C232.21,41.8039005 229.937,41.7015005 228.472,43.0412005 C227.008,44.3808005 226.905,46.6552005 228.244,48.1211005 C229.582,49.5871005 231.855,49.6895005 233.32,48.3498005 Z" id="circle_Path_4" fill="#EAEEF9" fill-rule="nonzero"></path>
            <g id="Doc" transform="translate(46.864700, 47.142600)" fill-rule="nonzero">
                <path d="M150.9723,48.3732 L152.7273,187.0824 C152.7273,191.7444 148.6313,195.8244 143.9503,195.8244 L8.7775,195.8244 C4.0962,195.8244 0,191.7444 0,187.0824 L0,8.7421 C0,4.0796 4.0962,0 8.7775,0 L107.0843,0 L150.9723,48.3732 Z" id="Path" fill="#FFFFFF"></path>
                <path d="M128.4543,143.9574 L47.1441,143.9574 C45.9742,143.9574 45.3892,142.7904 45.3892,142.2074 C45.3892,141.0404 46.5591,140.4574 47.1441,140.4574 L128.4543,140.4574 C129.6243,140.4574 130.2093,141.6234 130.2093,142.2074 C130.2093,142.7904 129.6243,143.9574 128.4543,143.9574 Z" id="Path" fill="#E3EAF2"></path>
                <path d="M37.2028,143.9574 L23.1637,143.9574 C21.9937,143.9574 21.4087,142.7904 21.4087,142.2074 C21.4087,141.0404 22.5787,140.4574 23.1637,140.4574 L37.2028,140.4574 C38.3727,140.4574 38.9577,141.6234 38.9577,142.2074 C38.9577,142.7904 38.3727,143.9574 37.2028,143.9574 Z" id="Path" fill="#E3EAF2"></path>
                <path d="M127.8673,122.3934 L91.5993,122.3934 C90.4293,122.3934 89.8443,121.2274 89.8443,120.6434 C89.8443,120.0604 91.0143,118.8934 91.5993,118.8934 L127.8673,118.8934 C129.0373,118.8934 129.6223,120.0604 129.6223,120.6434 C129.6223,121.2274 129.0373,122.3934 127.8673,122.3934 Z" id="Path" fill="#E3EAF2"></path>
                <path d="M76.3953,122.3934 L23.1636,122.3934 C21.9937,122.3934 21.4087,121.2274 21.4087,120.6434 C21.4087,120.0604 22.5787,118.8934 23.1636,118.8934 L76.3953,118.8934 C77.5653,118.8934 78.1503,120.0604 78.1503,120.6434 C78.1503,121.2274 77.5653,122.3934 76.3953,122.3934 Z" id="Path" fill="#E3EAF2"></path>
                <path d="M129.0353,100.2474 L114.9953,100.2474 C113.8253,100.2474 113.2403,99.0804 113.2403,98.4974 C113.2403,97.9134 114.4103,96.7474 114.9953,96.7474 L129.0353,96.7474 C130.2043,96.7474 130.7893,97.9134 130.7893,98.4974 C130.7893,99.0804 130.2043,100.2474 129.0353,100.2474 Z" id="Path" fill="#E3EAF2"></path>
                <path d="M101.5473,100.2474 L24.3316,100.2474 C23.1617,100.2474 22.5767,99.0804 22.5767,98.4974 C22.5767,97.9134 23.7466,96.7474 24.3316,96.7474 L101.5473,96.7474 C102.7173,96.7474 103.3023,97.9134 103.3023,98.4974 C103.3023,99.0804 102.7173,100.2474 101.5473,100.2474 Z" id="Path" fill="#E3EAF2"></path>
                <path d="M67.0283,167.8524 L61.7633,167.8524 C60.5933,167.8524 60.0083,166.6864 60.0083,166.1024 C60.0083,164.9354 61.1783,164.3524 61.7633,164.3524 L66.4433,164.3524 C67.6133,164.3524 68.1983,165.5194 68.1983,166.1024 C68.7833,166.6864 68.1983,167.8524 67.0283,167.8524 Z" id="Path" fill="#E3EAF2"></path>
                <path d="M52.9953,167.8524 L24.3316,167.8524 C23.1617,167.8524 22.5767,166.6864 22.5767,166.1024 C22.5767,164.9354 23.7466,164.3524 24.3316,164.3524 L52.9953,164.3524 C54.1653,164.3524 54.7493,165.5194 54.7493,166.1024 C55.3343,166.6864 54.1653,167.8524 52.9953,167.8524 Z" id="Path" fill="#E3EAF2"></path>
                <path d="M129.6193,78.6824 L79.3123,78.6824 C78.1423,78.6824 77.5573,77.5164 77.5573,76.9324 C77.5573,76.3494 78.7273,75.1824 79.3123,75.1824 L129.0343,75.1824 C130.2043,75.1824 130.7893,76.3494 130.7893,76.9324 C130.7893,77.5164 130.7893,78.6824 129.6193,78.6824 Z" id="Path" fill="#E3EAF2"></path>
                <path d="M63.5253,78.6824 L24.9175,78.6824 C23.7476,78.6824 23.1626,77.5164 23.1626,76.9324 C23.1626,76.3494 24.3326,75.1824 24.9175,75.1824 L63.5253,75.1824 C64.6953,75.1824 65.2803,76.3494 65.2803,76.9324 C65.2803,77.5164 64.6953,78.6824 63.5253,78.6824 Z" id="Path" fill="#E3EAF2"></path>
                <path d="M90.4323,29.1461 L25.5015,29.1461 C23.7466,29.1461 22.5767,27.9793 22.5767,26.2293 C22.5767,24.4792 23.7466,23.3125 25.5015,23.3125 L90.4323,23.3125 C92.1873,23.3125 93.3573,24.4792 93.3573,26.2293 C93.3573,27.9793 92.1873,29.1461 90.4323,29.1461 Z" id="Path" fill="#CED7E2"></path>
                <path d="M50.6563,44.8824 L26.0875,44.8824 C24.3326,44.8824 23.1626,43.7157 23.1626,41.9656 C23.1626,40.2155 24.3326,39.0488 26.0875,39.0488 L50.6563,39.0488 C52.4113,39.0488 53.5803,40.2155 53.5803,41.9656 C52.9963,43.7157 51.8263,44.8824 50.6563,44.8824 Z" id="Path" fill="#CED7E2"></path>
                <path d="M107.3953,-1.42108547e-14 L107.3953,38.4654 C107.3953,43.7107 112.0743,48.3732 117.3393,48.3732 L151.2673,48.3732" id="Path" fill="#CED7E2"></path>
            </g>
            <g id="ebook" transform="translate(17.501500, 102.000000)" fill-rule="nonzero">
                <path d="M3.55271368e-15,5 C3.55271368e-15,2.239 2.2385,0 5,0 L53,0 C55.7614,0 58,2.239 58,5 L58,25 C58,27.761 55.7614,30 53,30 L5,30 C2.2385,30 3.55271368e-15,27.761 3.55271368e-15,25 L3.55271368e-15,5 Z" id="Path" fill="url(#linearGradient-2)"></path>
                <path d="M14.2836,20.12 C13.6036,20.12 13.0076,19.98 12.4956,19.7 C11.9836,19.42 11.5836,19.036 11.2956,18.548 C11.0156,18.06 10.8756,17.5 10.8756,16.868 C10.8756,16.212 11.0116,15.636 11.2836,15.14 C11.5636,14.636 11.9436,14.24 12.4236,13.952 C12.9116,13.664 13.4716,13.52 14.1036,13.52 C14.6716,13.52 15.1796,13.66 15.6276,13.94 C16.0836,14.212 16.4356,14.584 16.6836,15.056 C16.9396,15.528 17.0596,16.068 17.0436,16.676 L17.0316,17.192 L12.4716,17.192 C12.5596,17.648 12.7756,18.008 13.1196,18.272 C13.4716,18.536 13.9156,18.668 14.4516,18.668 C14.7396,18.668 14.9996,18.624 15.2316,18.536 C15.4716,18.448 15.7276,18.292 15.9996,18.068 L16.7916,19.172 C16.4476,19.476 16.0516,19.712 15.6036,19.88 C15.1636,20.04 14.7236,20.12 14.2836,20.12 Z M14.1156,14.936 C13.2116,14.936 12.6676,15.344 12.4836,16.16 L15.4836,16.16 L15.4836,16.112 C15.4596,15.768 15.3156,15.488 15.0516,15.272 C14.7956,15.048 14.4836,14.936 14.1156,14.936 Z M21.9269,20.12 C21.5269,20.12 21.1429,20.04 20.7749,19.88 C20.4149,19.712 20.1269,19.504 19.9109,19.256 L19.8749,19.976 L18.3149,19.976 L18.3149,11.12 L19.9589,11.12 L19.9589,14.408 C20.1669,14.16 20.4429,13.952 20.7869,13.784 C21.1389,13.616 21.5069,13.532 21.8909,13.532 C22.4429,13.532 22.9349,13.672 23.3669,13.952 C23.8069,14.232 24.1509,14.62 24.3989,15.116 C24.6549,15.612 24.7829,16.18 24.7829,16.82 C24.7829,17.46 24.6589,18.028 24.4109,18.524 C24.1629,19.02 23.8229,19.412 23.3909,19.7 C22.9669,19.98 22.4789,20.12 21.9269,20.12 Z M21.5549,18.716 C22.0349,18.716 22.4269,18.54 22.7309,18.188 C23.0349,17.836 23.1869,17.38 23.1869,16.82 C23.1869,16.268 23.0349,15.82 22.7309,15.476 C22.4349,15.124 22.0429,14.948 21.5549,14.948 C21.0589,14.948 20.6589,15.124 20.3549,15.476 C20.0509,15.82 19.8989,16.268 19.8989,16.82 C19.8989,17.38 20.0509,17.836 20.3549,18.188 C20.6589,18.54 21.0589,18.716 21.5549,18.716 Z M29.0127,20.12 C28.3647,20.12 27.7887,19.98 27.2847,19.7 C26.7807,19.412 26.3847,19.02 26.0967,18.524 C25.8087,18.028 25.6647,17.46 25.6647,16.82 C25.6647,16.188 25.8087,15.624 26.0967,15.128 C26.3847,14.632 26.7807,14.244 27.2847,13.964 C27.7887,13.676 28.3647,13.532 29.0127,13.532 C29.6447,13.532 30.2127,13.676 30.7167,13.964 C31.2207,14.244 31.6167,14.632 31.9047,15.128 C32.1927,15.624 32.3367,16.188 32.3367,16.82 C32.3367,17.46 32.1927,18.028 31.9047,18.524 C31.6167,19.02 31.2207,19.412 30.7167,19.7 C30.2127,19.98 29.6447,20.12 29.0127,20.12 Z M29.0127,18.692 C29.3327,18.692 29.6207,18.612 29.8767,18.452 C30.1327,18.284 30.3287,18.06 30.4647,17.78 C30.6087,17.5 30.6807,17.18 30.6807,16.82 C30.6807,16.46 30.6087,16.14 30.4647,15.86 C30.3287,15.58 30.1327,15.36 29.8767,15.2 C29.6207,15.04 29.3327,14.96 29.0127,14.96 C28.6847,14.96 28.3927,15.04 28.1367,15.2 C27.8807,15.36 27.6807,15.58 27.5367,15.86 C27.3927,16.14 27.3207,16.46 27.3207,16.82 C27.3207,17.18 27.3927,17.5 27.5367,17.78 C27.6807,18.06 27.8807,18.284 28.1367,18.452 C28.3927,18.612 28.6847,18.692 29.0127,18.692 Z M36.5713,20.12 C35.9233,20.12 35.3473,19.98 34.8433,19.7 C34.3393,19.412 33.9433,19.02 33.6553,18.524 C33.3673,18.028 33.2233,17.46 33.2233,16.82 C33.2233,16.188 33.3673,15.624 33.6553,15.128 C33.9433,14.632 34.3393,14.244 34.8433,13.964 C35.3473,13.676 35.9233,13.532 36.5713,13.532 C37.2033,13.532 37.7713,13.676 38.2753,13.964 C38.7793,14.244 39.1753,14.632 39.4633,15.128 C39.7513,15.624 39.8953,16.188 39.8953,16.82 C39.8953,17.46 39.7513,18.028 39.4633,18.524 C39.1753,19.02 38.7793,19.412 38.2753,19.7 C37.7713,19.98 37.2033,20.12 36.5713,20.12 Z M36.5713,18.692 C36.8913,18.692 37.1793,18.612 37.4353,18.452 C37.6913,18.284 37.8873,18.06 38.0233,17.78 C38.1673,17.5 38.2393,17.18 38.2393,16.82 C38.2393,16.46 38.1673,16.14 38.0233,15.86 C37.8873,15.58 37.6913,15.36 37.4353,15.2 C37.1793,15.04 36.8913,14.96 36.5713,14.96 C36.2433,14.96 35.9513,15.04 35.6953,15.2 C35.4393,15.36 35.2393,15.58 35.0953,15.86 C34.9513,16.14 34.8793,16.46 34.8793,16.82 C34.8793,17.18 34.9513,17.5 35.0953,17.78 C35.2393,18.06 35.4393,18.284 35.6953,18.452 C35.9513,18.612 36.2433,18.692 36.5713,18.692 Z M41.2139,20 L41.2139,11.12 L42.8459,11.12 L42.8459,16.16 L45.3179,13.664 L47.4779,13.664 L44.5379,16.424 L47.4779,20 L45.4979,20 L43.4459,17.444 L42.8459,18.008 L42.8459,20 L41.2139,20 Z" id="Shape" fill="#FFFFFF"></path>
            </g>
            <path d="M25.062,228.022 L24.1639,228.022 C23.7148,228.022 23.4902,227.573 23.2657,227.348 C23.2657,227.123 23.0412,226.899 22.8166,226.449 C22.5921,226 22.5921,225.55 22.8166,225.326 L23.2657,224.651 C23.4902,224.202 23.4902,223.528 23.2657,223.303 L21.9184,221.73 C21.4694,221.281 21.0203,221.281 20.5712,221.73 L19.8976,222.179 C19.673,222.404 19.2239,222.404 18.7749,222.179 C18.5503,221.955 18.3258,221.955 17.8767,221.73 C17.4276,221.73 17.2031,221.281 17.2031,220.831 L16.9785,219.932 C16.9785,219.483 16.5294,219.033 15.8558,219.033 L13.8349,219.033 C13.3858,219.033 12.9368,219.483 12.7122,219.932 L12.7122,220.831 C12.7122,221.281 12.2631,221.505 12.0386,221.73 C11.8141,221.73 11.5895,221.955 11.1404,222.179 C10.6913,222.404 10.2423,222.404 10.0177,222.179 L9.3441,221.73 C8.895,221.505 8.2214,221.505 7.9968,221.73 L6.42504,223.078 C5.97596,223.528 5.97596,223.977 6.42504,224.427 L6.87413,225.326 C7.09867,225.55 7.09867,226 6.87413,226.449 C6.64958,226.674 6.64958,226.899 6.42504,227.348 C6.42504,227.573 6.2005,227.798 5.75142,228.022 L4.85325,228.247 C4.40416,228.247 3.95508,228.697 3.95508,229.371 L3.95508,231.393 C3.95508,231.843 4.40416,232.292 4.85325,232.517 L5.75142,232.742 C6.2005,232.742 6.42504,233.191 6.64958,233.416 C6.64958,233.641 6.87413,234.09 7.09867,234.315 C7.32321,234.764 7.32321,235.214 7.09867,235.438 L6.64958,236.113 C6.42504,236.562 6.42504,237.236 6.64958,237.461 L7.9968,238.809 C8.4459,239.259 8.895,239.259 9.3441,238.809 L10.0177,238.36 C10.2423,238.135 10.6913,238.135 11.1404,238.36 C11.365,238.585 11.5895,238.585 12.0386,238.809 C12.4877,239.034 12.7122,239.259 12.7122,239.708 L12.9368,240.158 C12.9368,240.832 13.3858,241.057 13.8349,241.057 L15.8558,241.057 C16.3049,241.057 16.754,240.607 16.9785,240.158 L17.2031,239.259 C17.2031,238.809 17.6521,238.585 17.8767,238.36 C18.1012,238.36 18.3258,238.135 18.7749,237.911 C19.2239,237.686 19.673,237.686 19.8976,237.911 L20.5712,238.809 C21.0203,239.034 21.6939,239.034 21.9184,238.809 L23.2657,237.461 C23.7148,237.012 23.7148,236.562 23.2657,236.113 L22.8166,235.438 C22.5921,235.214 22.5921,234.764 22.8166,234.315 C23.0412,234.09 23.0412,233.865 23.2657,233.416 C23.4902,232.966 23.7148,232.742 24.1639,232.742 L25.062,232.517 C25.5111,232.517 25.9602,232.068 25.9602,231.393 L25.9602,229.371 C25.9602,228.472 25.5111,228.022 25.062,228.022 Z M14.9576,233.865 C12.9368,233.865 11.1404,232.292 11.1404,230.045 C11.1404,228.022 12.7122,226.225 14.9576,226.225 C16.9785,226.225 18.7749,227.798 18.7749,230.045 C18.7749,232.292 16.9785,233.865 14.9576,233.865 Z" id="setting" fill="url(#linearGradient-3)" fill-rule="nonzero"></path>
            <g id="pie" transform="translate(184.318437, 0.000000)" fill-rule="nonzero">
                <path d="M30.7925632,17.1449005 L17.7185632,20.0149005 C17.0415632,20.2357005 16.3655632,19.7942005 16.1405632,19.1319005 L13.2095632,6.32709047 C12.9845632,5.22323047 12.0825632,4.78169047 10.9555632,5.00246047 L10.7295632,5.00246047 C2.1635632,8.09326047 -2.1194368,17.3657005 1.0365632,25.7550005 C4.1925632,34.1443005 13.6605632,38.3390005 22.2265632,35.2482005 C29.2145632,32.8197005 33.4985632,25.9758005 33.0475632,18.9111005 C33.0475632,17.8072005 32.1455632,17.1449005 31.0185632,17.1449005 C30.7925632,16.9241005 30.7925632,16.9241005 30.7925632,17.1449005 Z" id="pie_path_1" fill-opacity="0.15" fill="#17448D"></path>
                <path d="M15.9155632,1.91219047 L18.8465632,14.7170005 C19.0715632,15.6000005 19.7475632,16.0416005 20.6495632,15.8208005 L33.7245632,12.9508005 C34.6265632,12.7300005 35.0765632,12.0677005 34.8515632,11.1846005 C32.8225632,4.34068047 24.9325632,-0.957843528 17.2685632,0.146015472 C16.3665632,0.366787472 15.6905632,1.02910047 15.9155632,1.91219047 Z" id="pie_path_2" fill="url(#linearGradient-4)"></path>
            </g>
            <g id="download" transform="translate(162.500291, 184.000015)" fill-rule="nonzero">
                <path d="M69.2287088,41.973985 C68.8447088,44.092985 68.2697088,46.017985 67.5027088,47.943985 C62.8997088,59.496985 52.5447088,67.583985 40.6547088,69.509985 C36.4357088,70.279985 32.2167088,70.086985 27.8057088,69.316985 C9.01170881,65.465985 -3.26129119,46.788985 0.765708813,27.918985 C4.79270881,9.04898504 23.2027088,-3.27501496 41.9967088,0.76898504 C48.7087088,2.11698504 54.8457088,5.38998504 59.6397088,10.395985 C68.0777088,18.290985 71.7217088,30.420985 69.2287088,41.973985 Z" id="Path" fill="url(#linearGradient-5)"></path>
                <path d="M64.4177088,54.3250837 C58.7090797,61.8462375 52.5187088,67.564985 40.6287088,69.489985 L37.5607088,66.408985 L20.4927088,48.309985 L21.4517088,46.961985 L40.2457088,47.346985 L49.3053655,46.961985 L49.3053655,39.1601823 L64.4177088,54.3250837 Z" id="Path" fill="url(#linearGradient-6)"></path>
                <g id="arrow" transform="translate(26.750709, 18.789985)">
                    <path d="M40.727,29.135 C36.5621917,38.9722732 30.463035,43.2403548 27.9079457,44.9068943 L13.495,28.557 L1.03,12.383 L11.577,7.569 L5.057,1.792 L11.961,0.252 L40.727,29.135 Z" id="Path" fill="url(#linearGradient-7)"></path>
                    <path d="M7.096,21.565 C7.671,22.335 8.822,22.528 9.589,21.95 C9.78,21.95 9.78,21.757 9.972,21.565 L16.876,12.9 C17.451,12.13 17.26,10.975 16.492,10.397 C16.109,10.204 15.725,10.012 15.342,10.012 L12.082,10.012 L12.082,4.813 C12.082,4.428 11.89,4.235 11.506,4.235 L10.356,4.235 L5.561,4.235 C5.178,4.235 4.986,4.428 4.986,4.813 L4.986,10.012 L1.726,10.012 C0.767,10.012 0,10.782 0,11.745 C0,12.13 0.192,12.515 0.384,12.9 L7.096,21.565 Z" id="Path" fill="#FFFFFF"></path>
                    <path d="M11.689,1.926 L5.552,1.926 C5.36,1.926 4.977,1.733 4.977,1.348 L4.977,0.578 C4.977,0.385 5.168,0 5.552,0 L11.689,0 C11.88,0 12.264,0.193 12.264,0.578 L12.264,1.348 C12.264,1.733 11.88,1.926 11.689,1.926 Z" id="Path" fill="#FFFFFF"></path>
                </g>
                <path d="M23.6727088,49.596985 C21.1797088,49.596985 19.2627088,47.671985 19.2627088,45.360985 L19.2627088,38.429985 C19.2627088,37.273985 20.2217088,36.311985 21.3717088,36.311985 C22.5227088,36.311985 23.2897088,37.273985 23.2897088,38.429985 L23.2897088,45.553985 L47.4527088,45.553985 L47.4527088,38.429985 C47.4527088,37.273985 48.4117088,36.503985 49.3707088,36.503985 C50.5217088,36.503985 51.4807088,37.466985 51.4807088,38.429985 L51.4807088,45.360985 C51.4807088,47.671985 49.5627088,49.596985 47.0697088,49.596985 L23.6727088,49.596985 Z" id="Path" fill="#FFFFFF"></path>
            </g>
        </g>
    </g>
</svg>