<svg xmlns="http://www.w3.org/2000/svg" width="195.041" height="198.24" viewBox="0 0 195.041 198.24">
  <g id="Group_12" data-name="Group 12" transform="translate(-4451.148 990)">
    <g id="Group_5" data-name="Group 5" transform="translate(4451.148 -958.284)">
      <path id="Path_10" data-name="Path 10" d="M147.045,1627.982c-2.029-2.344.126-3.81,2.292-2.57,1.968,1.127,3.726,2.486,5.959,1.84a5.271,5.271,0,0,1-1.961,2.973c-1.792,1.556-6.289-2.243-6.289-2.243" transform="translate(-139.921 -1554.819)" fill="#fff" fill-rule="evenodd"/>
      <path id="Path_11" data-name="Path 11" d="M127.7,1610.666a3.7,3.7,0,0,1-.988-1.623,2.207,2.207,0,0,1-.008-1.191,1.928,1.928,0,0,1,.738-1.063,2.413,2.413,0,0,1,1.072-.427,3.141,3.141,0,0,1,1.021.033,3.6,3.6,0,0,1,.9.3,4.559,4.559,0,0,1,.4.22c.069.04.126.077.178.113l.164.109a28.483,28.483,0,0,0,2.518,1.638,5.216,5.216,0,0,0,1.339.5,4.346,4.346,0,0,0,1.463.049h0a.111.111,0,0,1,.06.212,4.015,4.015,0,0,1-1.578.345,5.315,5.315,0,0,1-1.629-.251,19.249,19.249,0,0,1-2.878-1.29l-.168-.084c-.058-.03-.112-.056-.157-.075-.095-.044-.192-.079-.288-.113a2.668,2.668,0,0,0-.571-.121,1.214,1.214,0,0,0-.844.18.348.348,0,0,0-.116.179.7.7,0,0,0,.009.327,2.111,2.111,0,0,0,.189.487,5.6,5.6,0,0,0,.335.534l.025.036a.773.773,0,0,1-1.193.975" transform="translate(-121.158 -1536.997)" fill="#371a45" fill-rule="evenodd"/>
      <path id="Path_12" data-name="Path 12" d="M60.021,1667.819a2.426,2.426,0,0,1-1.106-.131,2.89,2.89,0,0,1-.951-.632,7.284,7.284,0,0,1-.722-.822l-.642-.825a13,13,0,0,0-1.346-1.491,11.062,11.062,0,0,0-1.557-1.211c-.584-.39-1.149-.75-1.726-1.072a13.094,13.094,0,0,0-1.765-.823,9.579,9.579,0,0,0-3.721-.6h-.021a.774.774,0,0,1-.134-1.538,8.549,8.549,0,0,1,4.483.577,14.412,14.412,0,0,1,3.7,2.329,10.941,10.941,0,0,1,1.6,1.53,12.318,12.318,0,0,1,1.25,1.782c.363.612.674,1.237,1.054,1.764a2.382,2.382,0,0,0,.682.652,2.334,2.334,0,0,0,.925.292h0a.111.111,0,0,1,0,.221" transform="translate(-43.699 -1586.993)" fill="#371a45" fill-rule="evenodd"/>
      <path id="Path_39" data-name="Path 39" d="M316.62,505.311a.619.619,0,0,1,.622.615l.1,17.818a.619.619,0,0,1-.615.622,6.489,6.489,0,0,1-6.526-6.453l-.035-6.076a6.49,6.49,0,0,1,6.453-6.526" transform="translate(-296.778 -483.5)" fill="#fff" fill-rule="evenodd"/>
      <path id="Path_40" data-name="Path 40" d="M313.4,502.233a6.352,6.352,0,0,0-6.309,6.38l.034,6.076A6.352,6.352,0,0,0,313.465,521h.036a.473.473,0,0,0,.471-.476l-.1-17.818a.472.472,0,0,0-.141-.334.448.448,0,0,0-.335-.136m.069,19.055a6.643,6.643,0,0,1-6.635-6.6l-.034-6.076a6.643,6.643,0,0,1,6.6-6.672.771.771,0,0,1,.542.221.759.759,0,0,1,.227.539l.1,17.818a.765.765,0,0,1-.76.768h-.038" transform="translate(-293.553 -480.275)" fill="#371a45" fill-rule="evenodd"/>
      <path id="Path_41" data-name="Path 41" d="M334.741,775.547a5.689,5.689,0,0,1-5.185-5.627l-.007-1.229a6.487,6.487,0,0,0,4.216,2.4,30.864,30.864,0,0,0,.976,4.461" transform="translate(-315.324 -735.511)" fill="#b9afbe" fill-rule="evenodd"/>
      <path id="Path_42" data-name="Path 42" d="M298.5,488.184a5.688,5.688,0,0,0-5.458,5.709l.034,6.076a5.688,5.688,0,0,0,5.522,5.646l-.1-17.431m.256,19.051a7.306,7.306,0,0,1-7.3-7.258l-.034-6.076a7.307,7.307,0,0,1,7.258-7.34,1.428,1.428,0,0,1,1.436,1.42l.1,17.818a1.427,1.427,0,0,1-1.42,1.436h-.042" transform="translate(-278.846 -465.559)" fill="#371a45" fill-rule="evenodd"/>
      <path id="Path_53" data-name="Path 53" d="M550.448,157.769a.787.787,0,0,1-.544-.217l-.081-.072-.046-.079c-4.745-7.415-14.4-12.017-26.5-12.625-12.163-.611-22.233,3.131-27.625,10.269l-.057.067a.784.784,0,0,1-1.111.056.8.8,0,0,1-.08-1.1c5.717-7.55,16.268-11.514,28.953-10.876,12.593.634,22.7,5.486,27.729,13.315a.791.791,0,0,1-.638,1.259" transform="translate(-472.89 -136.95)" fill="#371a45" fill-rule="evenodd"/>
      <g id="Group_2" data-name="Group 2" transform="translate(42.984 90.421) rotate(74)">
        <g id="Group_1" data-name="Group 1" transform="translate(0 0)">
          <path id="Path_55" data-name="Path 55" d="M32.722,24.7S13.7,26.861,5.246,19.6C-6.306,9.671,3.6-2.767,12.18.546,19.651,3.431,22.723,5.7,35.993,7.874,47.112,9.7,56.663,21.112,48.684,27.738,43.051,32.415,32.722,24.7,32.722,24.7" transform="translate(0.778 0.766)" fill="#fff" fill-rule="evenodd"/>
          <path id="Path_56" data-name="Path 56" d="M43.146,16.624h0c-3.569,0-7.575-2.188-9.621-3.474q.414.005.849.005c4.425,0,10.4-.417,15.4-2.235a6.892,6.892,0,0,1-2.608,4.373,6.111,6.111,0,0,1-4.021,1.33M9.082,9.767A16.4,16.4,0,0,1,4.726,7.16,13.569,13.569,0,0,1,0,0Q.482.475,1.028.944a21.926,21.926,0,0,0,9.5,4.271A9.856,9.856,0,0,0,9.082,9.767" transform="translate(1.801 12.616)" fill="#b9afbe" fill-rule="evenodd"/>
          <path id="Path_57" data-name="Path 57" d="M33.716,24.669l.246.183c.076.057,5.962,4.387,10.984,4.388a6.112,6.112,0,0,0,4.023-1.33,6.611,6.611,0,0,0,2.4-7.2c-1.419-5.222-7.885-10.19-14.721-11.31C26.206,7.692,21.989,5.91,17.107,3.846c-1.374-.581-2.795-1.181-4.428-1.812A8.189,8.189,0,0,0,2.84,5.852C.786,9.287.675,14.748,6.527,19.776c8.105,6.964,26.7,4.949,26.886,4.928l.3-.035m11.235,6.12c-5,0-10.424-3.635-11.665-4.518-2.57.256-19.642,1.658-27.766-5.323C-1.06,15.295-.864,9.033,1.514,5.059A9.727,9.727,0,0,1,13.236.592c1.656.639,3.088,1.245,4.473,1.83C22.5,4.448,26.638,6.2,36.9,7.878c7.386,1.211,14.4,6.67,15.962,12.43a8.162,8.162,0,0,1-2.9,8.791,7.607,7.607,0,0,1-5,1.69" transform="translate(0)" fill="#371a45" fill-rule="evenodd"/>
        </g>
      </g>
      <path id="Path_60" data-name="Path 60" d="M671.805,2400.8a6.847,6.847,0,0,1-4.507-1.506,9.006,9.006,0,0,1-1.729-1.88,9,9,0,0,0,1.73,1.88,6.852,6.852,0,0,0,4.507,1.506c3.674,0,7.677-2.121,9.843-3.463h0c-2.166,1.342-6.171,3.463-9.845,3.463m34.845-7.121h0a16.76,16.76,0,0,0,4.087-2.527c.184-.159.365-.319.539-.479q-.262.241-.54.479a16.739,16.739,0,0,1-4.086,2.527" transform="translate(-609.318 -2267.171)" fill="#b38982" fill-rule="evenodd"/>
      <path id="Path_61" data-name="Path 61" d="M1204.529,2477.526q-.435,0-.849-.005h0q.414.005.85.005c4.426,0,10.4-.416,15.4-2.234-5,1.818-10.978,2.235-15.4,2.235" transform="translate(-1124.2 -2348.138)" fill="#8c7b94" fill-rule="evenodd"/>
      <path id="Path_62" data-name="Path 62" d="M1038.089,2463.97c1-.622,1.612-1.076,1.612-1.076s2.246.254,5.536.294h0c-3.291-.04-5.536-.293-5.536-.293s-.609.454-1.611,1.075h0m23.4-3.011h0c.546-.2,1.081-.414,1.6-.646-.52.233-1.054.448-1.6.646" transform="translate(-965.758 -2333.805)" fill="#371a45" fill-rule="evenodd"/>
      <path id="Path_63" data-name="Path 63" d="M665.405,2396.923l-.007-.01.007.01m45.709-6.741.01-.01-.01.01m.018-.016,0,0,0,0" transform="translate(-609.155 -2266.683)" fill="#b38982" fill-rule="evenodd"/>
      <g id="Group_3" data-name="Group 3" transform="translate(41.555 91.014)">
        <path id="Path_59" data-name="Path 59" d="M18.911,24.7S37.933,26.861,46.388,19.6C57.939,9.671,48.034-2.767,39.453.546,31.983,3.431,28.91,5.7,15.641,7.874,4.522,9.7-5.03,21.112,2.949,27.738,8.582,32.415,18.911,24.7,18.911,24.7" transform="matrix(0.208, -0.978, 0.978, 0.208, 0.747, 50.505)" fill="#fff" fill-rule="evenodd"/>
        <path id="Path_64" data-name="Path 64" d="M7.455,21.534a6.852,6.852,0,0,1-4.507-1.506,9,9,0,0,1-1.73-1.88h0l-.006-.009,0,0,0,0A7.182,7.182,0,0,1,.284,12.1c.407,1.377.807,3.495,2.242,4.608a8.783,8.783,0,0,0,5.463,1.962,10.44,10.44,0,0,0,6.782-2.759c2.3-2.041,1.926-3.713,3.4-4.544a1.241,1.241,0,0,1,.622-.16c1.632,0,4,2.7,8.561,2.942q1.13.059,2.206.058c8.537,0,14.413-2.684,17.3-5.636A17.286,17.286,0,0,0,51.418,0c.73,3.44-.338,7.566-4.457,11.375h0l-.01.009,0,0-.007.006-.01.009v0c-.174.16-.354.32-.539.479A16.761,16.761,0,0,1,42.3,14.413c-.52.233-1.055.448-1.6.647-5,1.818-10.977,2.234-15.4,2.234q-.436,0-.85-.005c-3.29-.039-5.536-.294-5.536-.294s-.609.455-1.612,1.076c-2.166,1.342-6.169,3.463-9.843,3.463" transform="matrix(0.208, -0.978, 0.978, 0.208, 8.452, 53.027)" fill="#b9afbe" fill-rule="evenodd"/>
        <path id="Path_65" data-name="Path 65" d="M43.128,1.546a7.269,7.269,0,0,0-2.627.488c-1.633.631-3.054,1.231-4.427,1.812C31.192,5.91,26.975,7.693,16.536,9.4,9.7,10.524,3.234,15.492,1.815,20.713a6.611,6.611,0,0,0,2.4,7.2c5.1,4.234,14.908-2.984,15.006-3.057l.245-.183.3.034c.187.021,18.787,2.032,26.886-4.928C52.506,14.748,52.4,9.287,50.34,5.852A8.543,8.543,0,0,0,43.128,1.546ZM8.23,30.789a7.605,7.605,0,0,1-5-1.69,8.162,8.162,0,0,1-2.9-8.791C1.888,14.549,8.9,9.089,16.286,7.878,26.543,6.2,30.681,4.448,35.472,2.422c1.385-.585,2.817-1.191,4.473-1.83A9.727,9.727,0,0,1,51.667,5.059c2.378,3.975,2.574,10.236-4.006,15.89-8.124,6.981-25.2,5.579-27.766,5.323-1.241.882-6.66,4.518-11.665,4.518Z" transform="matrix(0.208, -0.978, 0.978, 0.208, 0, 52.019)" fill="#371a45" fill-rule="evenodd"/>
        <path id="Path_66" data-name="Path 66" d="M6.872,20.869a.536.536,0,0,1-.253-.063C-2.035,16.192.243,1.1.345.456A.539.539,0,0,1,1.41.624C1.387.773-.849,15.6,7.127,19.853a.54.54,0,0,1-.254,1.016" transform="matrix(0.208, -0.978, 0.978, 0.208, 10.612, 23.015)" fill="#371a45" fill-rule="evenodd"/>
      </g>
      <g id="Group_4" data-name="Group 4" transform="translate(0 0)">
        <path id="Path_1" data-name="Path 1" d="M615.2,1245.706v29.813a9.142,9.142,0,0,1-9.115,9.115H575.943a9.142,9.142,0,0,1-9.115-9.115v-29.812a9.141,9.141,0,0,1,9.115-9.115h30.141a9.146,9.146,0,0,1,9.115,9.115" transform="translate(-542.361 -1183.214)" fill="#fff" fill-rule="evenodd"/>
        <path id="Path_2" data-name="Path 2" d="M571.838,1200.772H541.7a10.672,10.672,0,0,0-10.66,10.66v29.813a10.673,10.673,0,0,0,10.66,10.661h30.139a10.673,10.673,0,0,0,10.661-10.661v-29.813a10.673,10.673,0,0,0-10.661-10.66m0,1.545a9.142,9.142,0,0,1,9.115,9.115v29.813a9.142,9.142,0,0,1-9.115,9.115H541.7a9.141,9.141,0,0,1-9.115-9.115v-29.813a9.142,9.142,0,0,1,9.115-9.115h30.139" transform="translate(-508.116 -1148.94)" fill="#371a45" fill-rule="evenodd"/>
        <path id="Path_3" data-name="Path 3" d="M1392.609,1211.872c11.226,3.855,12.055,12.745,19.821,17.906,3.362,2.233,6.873,1.688,11.067.563,2.235-.6,3.308,1.616,3.455,5.409.2,5.284-1.614,9.023-12.611,9.238-12.817.25-15.036-14.924-15.036-14.924l-6.7-18.192" transform="translate(-1332.496 -1159.561)" fill="#fff" fill-rule="evenodd"/>
        <path id="Path_4" data-name="Path 4" d="M1557.393,1588.507a11.9,11.9,0,0,1-8.289-3.124,4.011,4.011,0,0,0-.044-.636,3.971,3.971,0,0,0-3.027-3.3c-.187-.331-.362-.662-.525-.99-.017-.074-.035-.147-.052-.221a37.382,37.382,0,0,0-2.51-7.825.263.263,0,0,0-.237-.151l-.026,0a.226.226,0,0,0-.046.009q-.083-.288-.168-.577c4.133,3.923,4.218,13.528,14.907,13.528.118,0,.236,0,.357,0a29.7,29.7,0,0,0,6.07-.648,9.068,9.068,0,0,0,2.412,2.415c-1.909.947-4.717,1.447-8.5,1.521q-.163,0-.324,0" transform="translate(-1475.888 -1503.849)" fill="#b9afbe" fill-rule="evenodd"/>
        <path id="Path_5" data-name="Path 5" d="M1396.9,1228.632c-5.393,0-9.775-2.677-12.689-7.76a24.559,24.559,0,0,1-2.806-7.828.773.773,0,1,1,1.529-.224,23.436,23.436,0,0,0,2.64,7.321c2.711,4.7,6.622,7.048,11.617,6.941,5.246-.1,8.621-1.026,10.317-2.824,1.165-1.235,1.64-2.966,1.538-5.611-.124-3.2-.878-4.225-1.316-4.547a1.252,1.252,0,0,0-1.167-.145c-4.014,1.077-7.929,1.836-11.694-.666-3.275-2.176-5.371-5.009-7.4-7.749-2.992-4.043-5.818-7.861-12.246-10.069a.773.773,0,0,1,.5-1.461c6.883,2.364,9.986,6.556,12.987,10.611,2.038,2.754,3.963,5.355,7.012,7.381,2.939,1.953,5.936,1.668,10.439.461a2.819,2.819,0,0,1,2.484.394c1.175.866,1.829,2.795,1.943,5.732.081,2.083-.069,4.729-1.957,6.731-2.024,2.145-5.65,3.2-11.411,3.309-.107,0-.214,0-.321,0" transform="translate(-1315.364 -1142.429)" fill="#371a45" fill-rule="evenodd"/>
        <path id="Path_6" data-name="Path 6" d="M54.285,1211.872c-11.226,3.855-12.849,13.052-20.492,18.4-2.281,1.594-5.422,2.469-10.392,1.691-2.286-.358-5-.677-5.475,3.091-.382,3.061,4.911,9.961,14.627,9.939,12.82-.029,15.036-14.924,15.036-14.924l6.7-18.192" transform="translate(-17.134 -1159.561)" fill="#fff" fill-rule="evenodd"/>
        <path id="Path_7" data-name="Path 7" d="M61.2,1616.567h-.045a15.544,15.544,0,0,1-11.875-4.917,9.544,9.544,0,0,1-1.432-2.08c2.224,3.237,7.076,5.13,13.527,5.13h.07c7.206-.016,9.245-4.394,11.133-8.5a10.828,10.828,0,0,1,.549,2.76c-.1.18-.2.36-.3.541a3.968,3.968,0,0,0-3.072,3.312,4.013,4.013,0,0,0-.044.577,12.4,12.4,0,0,1-8.506,3.179m12.655-9.877a13.078,13.078,0,0,0-.635-1.87,13.159,13.159,0,0,1,2.486-3.8c-.19.391-.36.789-.521,1.19a17.016,17.016,0,0,0-.676,1.956c-.189.662-.371,1.327-.533,2-.043.175-.083.35-.121.527" transform="translate(-45.783 -1531.913)" fill="#b9afbe" fill-rule="evenodd"/>
        <path id="Path_8" data-name="Path 8" d="M15.373,1228.629A17.088,17.088,0,0,1,2.34,1223.19c-1.638-1.851-2.5-3.859-2.315-5.369a4.525,4.525,0,0,1,1.586-3.211c1.422-1.072,3.36-.769,4.775-.547,4.236.662,7.359.167,9.83-1.561,2.927-2.046,4.926-4.657,7.043-7.422,3.263-4.26,6.637-8.666,13.641-11.071a.773.773,0,1,1,.5,1.461c-6.562,2.254-9.792,6.471-12.915,10.549a34.116,34.116,0,0,1-7.385,7.749c-2.78,1.944-6.363,2.54-10.955,1.821-1.426-.223-2.775-.371-3.606.255a3.043,3.043,0,0,0-.983,2.168c-.1.794.349,2.358,1.939,4.154a15.544,15.544,0,0,0,11.875,4.917h.045c12.016-.027,14.252-14.122,14.273-14.265a.773.773,0,1,1,1.529.228,24.172,24.172,0,0,1-2.806,7.724c-2.968,5.128-7.46,7.846-12.993,7.858h-.049" transform="translate(0 -1142.429)" fill="#371a45" fill-rule="evenodd"/>
        <path id="Path_9" data-name="Path 9" d="M491.24,1533.636a.54.54,0,0,1-.54-.54c0-6.4-6.179-11-6.241-11.041a.539.539,0,1,1,.636-.871c.273.2,6.684,4.954,6.684,11.913a.54.54,0,0,1-.54.54" transform="translate(-463.336 -1455.423)" fill="#371a45" fill-rule="evenodd"/>
        <path id="Path_13" data-name="Path 13" d="M642.99,1277.031H597.248a110.215,110.215,0,0,1,.85-12.7c.161-1.362.353-2.805.583-4.314a114.3,114.3,0,0,1,5.648-22.426q.659-1.775,1.4-3.54.592-1.4,1.238-2.787.471-1.015.976-2.02H632.3q.5,1,.976,2.02.657,1.4,1.251,2.82.85,2.02,1.591,4.054a114.883,114.883,0,0,1,5.444,21.878c.23,1.514.423,2.962.585,4.329a110.2,110.2,0,0,1,.849,12.688" transform="translate(-571.467 -1176.181)" fill="#fff" fill-rule="evenodd"/>
        <path id="Path_14" data-name="Path 14" d="M696.036,1778.931c-1.072-.2-2.067-.411-3-.618h5.484c-.776.208-1.6.414-2.487.618m10.931-3.553a4.135,4.135,0,0,0,.181-1.215v-.384a19.98,19.98,0,0,0,2.936.287c-1.085.451-2.1.887-3.117,1.311m-26.566-1.23-.186-.079-.17-.071q.179-.015.356-.033v.183m-4.487-8.243q-.461-.011-.9-.026c.069-.313.141-.624.215-.935l.1-.442q.267.714.587,1.4m37.259-.005q.306-.659.564-1.343.049.252.1.5.084.406.165.813-.4.014-.825.026" transform="translate(-645.872 -1688.337)" fill="#b9afbe" fill-rule="evenodd"/>
        <path id="Path_15" data-name="Path 15" d="M621.36,1581.987a37.375,37.375,0,0,1,2.51,7.825c.32,1.333.547,2.684.789,4.032.115.675.21,1.353.316,2.029l.158,1.014.14,1.017.275,2.034.251,2.037c.149,1.36.292,2.721.4,4.085.227,2.733.385,5.451.4,8.224l0,.765H602.566V1613.5h.779v1.546H579.309l0-.765c.011-2.786.17-5.517.4-8.263s.541-5.474.947-8.193l.147-1.021.168-1.017c.114-.678.219-1.358.342-2.034.26-1.351.5-2.706.766-4.055.135-.675.251-1.354.416-2.022s.343-1.333.533-2a17,17,0,0,1,.676-1.956,15.6,15.6,0,0,1,.888-1.89.265.265,0,0,1,.5.135v.008a24.588,24.588,0,0,1-.545,4.08c-.132.667-.271,1.331-.431,1.991l-.458,1.985c-.631,2.643-1.063,5.33-1.468,8.017s-.708,5.391-.936,8.1-.383,5.435-.393,8.119l-.773-.765h23.26v1.546h-.779V1613.5h23.26l-.773.765c-.01-2.67-.165-5.39-.39-8.08s-.521-5.386-.938-8.06l-.151-1-.172-1c-.12-.665-.229-1.333-.358-2-.266-1.326-.506-2.655-.781-3.979-.5-2.66-1.123-5.281-1.4-8.023v-.006a.261.261,0,0,1,.5-.136" transform="translate(-554.303 -1513.428)" fill="#371a45" fill-rule="evenodd"/>
        <path id="Path_16" data-name="Path 16" d="M585.191,1810.352c-2.834,1.147-7.22.907-10.21.546a3.213,3.213,0,0,1,.535-6.4,42.969,42.969,0,0,0,9.649-.4l.026,6.25" transform="translate(-547.46 -1726.227)" fill="#fff" fill-rule="evenodd"/>
        <path id="Path_17" data-name="Path 17" d="M596.66,1873.62q-.75,0-1.557-.04l-.647-.252a8.815,8.815,0,0,0-3.183-.592c-.128,0-.256,0-.384.008a2.457,2.457,0,0,1-.331-.356,2.424,2.424,0,0,1-.474-1.839,2.471,2.471,0,0,1,.093-.4,3.194,3.194,0,0,0,1.931.966,38.78,38.78,0,0,0,4.585.3,23.458,23.458,0,0,0,2.422-.117v2.2a22.719,22.719,0,0,1-2.456.123" transform="translate(-564.587 -1789.426)" fill="#b9afbe" fill-rule="evenodd"/>
        <path id="Path_18" data-name="Path 18" d="M558.22,1787.894a2.44,2.44,0,0,0-.29,4.862c4.273.518,7.763.342,9.828-.494.595-.241.773-1.206.821-1.61a5.157,5.157,0,0,0-.539-3.137,44.328,44.328,0,0,1-9.7.382c-.039,0-.078,0-.117,0m4.194,6.7a39.442,39.442,0,0,1-4.669-.3,3.986,3.986,0,0,1,.664-7.938,41.965,41.965,0,0,0,9.445-.379c.4-.089,1.4-.093,1.986,1.792.593,1.906.525,5.108-1.5,5.929a16.4,16.4,0,0,1-5.924.9" transform="translate(-530.318 -1708.854)" fill="#371a45" fill-rule="evenodd"/>
        <path id="Path_19" data-name="Path 19" d="M1386.529,1810.887a38.1,38.1,0,0,1-4.83.3c-.118,0-.234,0-.352-.006s-.249-.005-.372-.011c-.084,0-.166-.005-.247-.009l-.292-.016c-.123-.007-.247-.016-.369-.025h-.009c-.122-.009-.245-.019-.367-.032l-.24-.025c-.068-.006-.136-.015-.2-.022-.105-.012-.211-.027-.313-.041s-.2-.029-.29-.044a.286.286,0,0,1-.057-.009c-.113-.016-.224-.036-.333-.057s-.22-.041-.328-.064l-.027-.005c-.061-.014-.122-.027-.181-.042s-.132-.03-.2-.048h0c-.2-.051-.4-.108-.594-.168-.1-.032-.208-.068-.31-.1s-.2-.075-.3-.114l.027-6.25a18.247,18.247,0,0,0,2.294.334,57.406,57.406,0,0,0,7.354.063c.05,0,.1,0,.152,0a3.213,3.213,0,0,1,.383,6.4" transform="translate(-1316.91 -1726.218)" fill="#fff" fill-rule="evenodd"/>
        <path id="Path_20" data-name="Path 20" d="M1423.369,1869.678a19.35,19.35,0,0,1-3.79-.327v-2.432l.071.013c.109.021.22.041.333.057a.273.273,0,0,0,.057.009c.095.016.191.031.29.045s.208.029.313.041c.066.007.134.016.2.021s.159.018.24.025c.122.012.245.023.367.032h.009c.122.009.245.018.369.026l.292.016.247.009c.124.005.249.009.372.01s.234.006.353.006h.266a38.712,38.712,0,0,0,4.564-.3,3.19,3.19,0,0,0,1.866-.9,2.456,2.456,0,0,1,.157.576,2.437,2.437,0,0,1-2.116,2.779,37.405,37.405,0,0,1-4.46.291" transform="translate(-1358.302 -1785.484)" fill="#b9afbe" fill-rule="evenodd"/>
        <path id="Path_21" data-name="Path 21" d="M1329.686,1792.251c2.065.836,5.555,1.012,9.828.494a2.44,2.44,0,0,0-.406-4.859,44.255,44.255,0,0,1-9.7-.383,5.159,5.159,0,0,0-.54,3.138c.049.4.227,1.369.822,1.609m5.345,2.333a16.388,16.388,0,0,1-5.924-.9c-2.027-.821-2.095-4.023-1.5-5.929.586-1.885,1.584-1.882,1.986-1.792a41.968,41.968,0,0,0,9.446.379,3.985,3.985,0,0,1,.664,7.938,39.476,39.476,0,0,1-4.669.3" transform="translate(-1269.988 -1708.843)" fill="#371a45" fill-rule="evenodd"/>
        <path id="Path_22" data-name="Path 22" d="M843.021,1681.389v10.016a3.39,3.39,0,0,1-3.379,3.379H821.2a3.389,3.389,0,0,1-3.377-3.379v-10.016a3.387,3.387,0,0,1,3.377-3.377h18.446a3.387,3.387,0,0,1,3.379,3.377" transform="translate(-782.517 -1605.58)" fill="#fff" fill-rule="evenodd"/>
        <path id="Path_23" data-name="Path 23" d="M856.78,1809.855H841.036c-1.947-.622-3.6-1.264-5.22-1.935a2.6,2.6,0,0,1-.087-.67v-2.614c2.211,2.553,6.807,3.773,11.172,3.773a22.517,22.517,0,0,0,2.271-.113,2.057,2.057,0,0,0,1.822-2.5,4.772,4.772,0,0,1-.135-1.135,4.654,4.654,0,0,1,.376-1.853,2.913,2.913,0,0,0,5.716,0,4.619,4.619,0,0,1,.372,1.641,11.158,11.158,0,0,0,2.062-5.364v8.169a2.609,2.609,0,0,1-1.514,2.365l-.371.138a2.586,2.586,0,0,1-.72.1" transform="translate(-799.654 -1721.424)" fill="#b9afbe" fill-rule="evenodd"/>
        <path id="Path_24" data-name="Path 24" d="M804.069,1661.637a2.608,2.608,0,0,0-2.605,2.6v10.018a2.608,2.608,0,0,0,2.605,2.6h18.447a2.608,2.608,0,0,0,2.6-2.6v-10.018a2.608,2.608,0,0,0-2.6-2.6H804.069m18.447,16.773H804.069a4.155,4.155,0,0,1-4.151-4.15v-10.018a4.155,4.155,0,0,1,4.151-4.15h18.447a4.155,4.155,0,0,1,4.15,4.15v10.018a4.155,4.155,0,0,1-4.15,4.15" transform="translate(-765.39 -1588.433)" fill="#371a45" fill-rule="evenodd"/>
        <path id="Path_25" data-name="Path 25" d="M1199.485,1807.715a2.913,2.913,0,1,1-2.913-2.913,2.913,2.913,0,0,1,2.913,2.913" transform="translate(-1142.134 -1726.897)" fill="#22a7f0" fill-rule="evenodd"/>
        <path id="Path_26" data-name="Path 26" d="M1199.466,1807.715a2.746,2.746,0,0,1-.038.464,2.913,2.913,0,0,0-5.751,0,2.746,2.746,0,0,1-.038-.464,2.914,2.914,0,1,1,5.827,0" transform="translate(-1142.115 -1726.897)" fill="#fff" fill-rule="evenodd"/>
        <path id="Path_27" data-name="Path 27" d="M1197.375,1862.056a2.913,2.913,0,0,1-2.876-2.452s0,0,0,.005a2.887,2.887,0,0,1,.391-1.057,2.912,2.912,0,0,0,4.969,0,2.287,2.287,0,0,1-2.485,3.5" transform="translate(-1142.938 -1778.327)" fill="#2976b4" fill-rule="evenodd"/>
        <path id="Path_28" data-name="Path 28" d="M1193.7,1849.371s0,0,0-.005a2.953,2.953,0,0,1-.036-.46,2.844,2.844,0,0,1,.2-1.054,2.859,2.859,0,0,0,.228.462,2.888,2.888,0,0,0-.391,1.057m5.751,0a2.89,2.89,0,0,0-.391-1.056,2.925,2.925,0,0,0,.228-.462,2.849,2.849,0,0,1,.2,1.054,2.878,2.878,0,0,1-.037.464" transform="translate(-1142.134 -1768.089)" fill="#b9afbe" fill-rule="evenodd"/>
        <path id="Path_29" data-name="Path 29" d="M982.03,1669.693a2.333,2.333,0,1,0,2.333,2.333A2.336,2.336,0,0,0,982.03,1669.693Zm0,5.826a3.492,3.492,0,1,1,3.492-3.493,3.5,3.5,0,0,1-3.492,3.493Zm-8.255,5.541a.648.648,0,0,1-.648-.647v-4.834a4,4,0,0,0-1.586-3.18,5.3,5.3,0,0,1-2.1-4.215v-4.544a.647.647,0,1,1,1.295,0v4.544a4,4,0,0,0,1.586,3.181,5.3,5.3,0,0,1,2.1,4.214v4.834a.647.647,0,0,1-.647.647" transform="translate(-927.593 -1591.209)" fill="#371a45" fill-rule="evenodd"/>
        <path id="Path_30" data-name="Path 30" d="M691.191,1269.16q-.322-.312-.662-.616.548-.414,1.077-.851c.166.124.328.254.486.389q-.439.552-.9,1.079m-39.861-.422q-.41-.488-.8-1a9.154,9.154,0,0,1,.79-.54c.3.262.607.519.918.769q-.468.377-.906.768m35.345,4.6q-.361-.951-.746-1.9a31.272,31.272,0,0,0,3.317-1.968q.468.406.9.828a28.434,28.434,0,0,1-3.471,3.04" transform="translate(-622.449 -1212.503)" fill="#b9afbe" fill-rule="evenodd"/>
        <path id="Path_31" data-name="Path 31" d="M1548.39,1300.051q-.435-.422-.9-.828.654-.445,1.284-.921.34.3.662.616-.508.581-1.045,1.133" transform="translate(-1480.691 -1242.26)" fill="#371a45" fill-rule="evenodd"/>
        <path id="Path_32" data-name="Path 32" d="M696.325,1311.573a28.543,28.543,0,0,1-3.316-3.035q.552-.49,1.149-.957a31.08,31.08,0,0,0,2.995,1.919q-.427,1.035-.827,2.073" transform="translate(-663.095 -1251.14)" fill="#b9afbe" fill-rule="evenodd"/>
        <path id="Path_33" data-name="Path 33" d="M670.14,1286.943q-.53-.567-1.032-1.163.44-.391.906-.768.624.5,1.275.974-.6.466-1.149.957" transform="translate(-640.227 -1229.544)" fill="#371a45" fill-rule="evenodd"/>
        <path id="Path_34" data-name="Path 34" d="M785.628,1359.631q-.91,0-1.829-.067a25.686,25.686,0,0,1-13.96-5.45q.4-1.038.827-2.073a30.989,30.989,0,0,0,13.212,3.92q1.035.068,2.057.067a30.955,30.955,0,0,0,14.154-3.418q.385.949.746,1.9a25.467,25.467,0,0,1-15.208,5.12" transform="translate(-736.608 -1293.681)" fill="#b9afbe" fill-rule="evenodd"/>
        <path id="Path_35" data-name="Path 35" d="M1808.67,516.7a.618.618,0,0,1-.622-.615l-.1-17.818a.618.618,0,0,1,.615-.622,6.49,6.49,0,0,1,6.526,6.453l.034,6.076a6.49,6.49,0,0,1-6.453,6.526" transform="translate(-1729.908 -476.166)" fill="#fff" fill-rule="evenodd"/>
        <path id="Path_36" data-name="Path 36" d="M1805.376,494.568h-.037a.472.472,0,0,0-.47.476l.1,17.818a.473.473,0,0,0,.473.471h0a6.344,6.344,0,0,0,6.309-6.38l-.034-6.076a6.344,6.344,0,0,0-6.343-6.309m.066,19.055a.765.765,0,0,1-.764-.76l-.1-17.818a.765.765,0,0,1,.76-.768,6.636,6.636,0,0,1,6.672,6.6l.034,6.076a6.635,6.635,0,0,1-6.6,6.672h0" transform="translate(-1726.683 -472.941)" fill="#371a45" fill-rule="evenodd"/>
        <path id="Path_37" data-name="Path 37" d="M1838.949,765.576a27.771,27.771,0,0,0,.648-3.21q.088-.513.159-1.032a6.483,6.483,0,0,0,4.214-2.7l.007,1.269a5.681,5.681,0,0,1-5.028,5.675" transform="translate(-1759.57 -725.885)" fill="#b9afbe" fill-rule="evenodd"/>
        <path id="Path_38" data-name="Path 38" d="M1790.817,480.517l.1,17.431a5.681,5.681,0,0,0,5.458-5.708l-.034-6.076a5.681,5.681,0,0,0-5.522-5.646m-.092,19.054a1.428,1.428,0,0,1-1.428-1.42l-.1-17.818a1.428,1.428,0,0,1,1.42-1.436,7.3,7.3,0,0,1,7.34,7.258l.035,6.076a7.3,7.3,0,0,1-7.258,7.34h-.008" transform="translate(-1711.967 -458.225)" fill="#371a45" fill-rule="evenodd"/>
        <path id="Path_43" data-name="Path 43" d="M499.456,51.09A30.364,30.364,0,1,1,471.14,18.807,30.364,30.364,0,0,1,499.456,51.09" transform="translate(-419.851 -17.933)" fill="#fff" fill-rule="evenodd"/>
        <path id="Path_44" data-name="Path 44" d="M465.921,15.673a30.219,30.219,0,0,0-1.954,60.373c.668.044,1.334.066,1.994.066a30.219,30.219,0,0,0,1.954-60.374c-.668-.044-1.334-.065-1.994-.065m.064,60.73q-1.015,0-2.036-.067a30.44,30.44,0,1,1,2.036.067" transform="translate(-416.636 -14.718)" fill="#371a45" fill-rule="evenodd"/>
        <path id="Path_45" data-name="Path 45" d="M706.7,1240.777h0c-.645,0-1.3-.022-1.95-.064a29.408,29.408,0,0,1-17.72-7.431,39.729,39.729,0,0,0,18.1,5.488c.591.025,1.173.036,1.752.036a42.256,42.256,0,0,0,16.934-3.52,29.42,29.42,0,0,1-17.118,5.491" transform="translate(-657.373 -1180.047)" fill="#b9afbe" fill-rule="evenodd"/>
        <path id="Path_46" data-name="Path 46" d="M451.211,1.619a29.555,29.555,0,0,0-1.91,59.048c.653.042,1.3.064,1.95.064a29.555,29.555,0,0,0,1.911-59.047c-.653-.043-1.3-.064-1.95-.064m.041,60.73q-1.023,0-2.057-.067a31.161,31.161,0,1,1,2.057.067" transform="translate(-401.926 0)" fill="#371a45" fill-rule="evenodd"/>
        <path id="Path_47" data-name="Path 47" d="M503.916,258.288a27.233,27.233,0,0,1-6.026,15.739c-2.642,3.293-13.1,8.763-25.639,8.245-11.63-.48-21.9-7.21-24.194-10.752a27.236,27.236,0,0,1-4.416-16.265c.79-15.7,14.609-21.535,31.255-20.7s29.81,8.026,29.019,23.73" transform="translate(-424.459 -224.359)" fill="#371a45" fill-rule="evenodd"/>
        <path id="Path_48" data-name="Path 48" d="M454.067,217.355c-9.758,0-26.682,2.54-27.56,20a26.408,26.408,0,0,0,4.287,15.783c2.19,3.375,12.207,9.916,23.548,10.384,12.572.521,22.621-5.009,24.974-7.943a26.408,26.408,0,0,0,5.849-15.274c.359-7.133-2.212-12.767-7.642-16.746-4.885-3.581-12.012-5.7-20.61-6.135-.849-.043-1.807-.071-2.846-.071m1.959,47.823c-.578,0-1.161-.012-1.752-.036-12.057-.5-22.423-7.4-24.839-11.12a28.016,28.016,0,0,1-4.545-16.746c.388-7.711,3.779-13.5,10.079-17.209,5.494-3.233,13.108-4.706,22.024-4.257s16.345,2.677,21.485,6.445c5.9,4.322,8.69,10.423,8.3,18.134a28.013,28.013,0,0,1-6.2,16.205c-2.493,3.107-12.1,8.584-24.552,8.584" transform="translate(-406.516 -206.419)" fill="#371a45" fill-rule="evenodd"/>
        <path id="Path_49" data-name="Path 49" d="M1450.322,612.848a2.885,2.885,0,0,1-.654-.076c-2.094-.489-3.244-3.228-2.569-6.118.605-2.59,2.471-4.422,4.359-4.422a2.866,2.866,0,0,1,.655.076c1.692.4,2.768,2.26,2.762,4.487a34.217,34.217,0,0,1-1.1,3.817,4.321,4.321,0,0,1-3.453,2.237m-4.952,7.508a1.841,1.841,0,0,1-.666-.123,2.311,2.311,0,0,1-1.087-3.062,2.463,2.463,0,0,1,2.2-1.663,1.845,1.845,0,0,1,.666.123,2.312,2.312,0,0,1,1.087,3.063,2.463,2.463,0,0,1-2.2,1.663" transform="translate(-1381.12 -576.236)" fill="#9b8da2" fill-rule="evenodd"/>
        <path id="Path_50" data-name="Path 50" d="M886.477,508.643q-.822,0-1.661-.034a36,36,0,0,1-10.067-1.943c14.39-.353,26.038-6.61,29.151-10.491a35.084,35.084,0,0,0,5.745-10.3,7.094,7.094,0,0,0,.906-2.185,7.267,7.267,0,0,0,.193-1.632,34.353,34.353,0,0,0,.8-5.862,31.425,31.425,0,0,0-.07-4.327c3.035,3.609,4.433,8.138,4.162,13.52a26.407,26.407,0,0,1-5.849,15.274c-2.249,2.8-11.524,7.978-23.313,7.977" transform="translate(-836.99 -451.503)" fill="#2a1a3b" fill-rule="evenodd"/>
        <path id="Path_51" data-name="Path 51" d="M835.588,478.767c-.55,0-1.1-.011-1.662-.034a37.45,37.45,0,0,1-12.327-2.747c.341.007.683.01,1.022.01.426,0,.851-.005,1.273-.016a36,36,0,0,0,10.067,1.943q.838.034,1.661.034c11.79,0,21.064-5.173,23.313-7.977a26.407,26.407,0,0,0,5.849-15.274c.271-5.382-1.127-9.912-4.162-13.52q-.061-.7-.154-1.384c3.508,3.7,5.441,8.637,5.125,14.944a27.249,27.249,0,0,1-6.025,15.741c-2.525,3.146-12.183,8.28-23.979,8.28" transform="translate(-786.134 -420.818)" fill="#2a1a3b" fill-rule="evenodd"/>
        <path id="Path_52" data-name="Path 52" d="M1683.188,711.739a34.162,34.162,0,0,0,1.1-3.817,7.263,7.263,0,0,1-.193,1.632,7.089,7.089,0,0,1-.907,2.185" transform="translate(-1610.533 -677.364)" fill="#6b6577" fill-rule="evenodd"/>
        <path id="Path_54" data-name="Path 54" d="M568.982,356.223s-4.085-15.737,4.575-21.49c5.819-3.866,13.152-4.85,17.24-4.85,1.995,0,3.216.234,3.111.482,0,0-13.46,2.55-19.192,12.8a60.744,60.744,0,0,0-5.734,13.057" transform="translate(-543.501 -315.643)" fill="#9b8da2" fill-rule="evenodd"/>
        <path id="Path_75" data-name="Path 75" d="M2240.57,1596.089h0c-.129-.309-.252-.622-.37-.935.118.313.241.626.37.935m-2.131-13.143h0l.06-.934h0l-.06.934" transform="translate(-2141.816 -1513.724)" fill="#138721" fill-rule="evenodd"/>
        <path id="Path_76" data-name="Path 76" d="M2239.921,1617.562h0q-.169-.376-.328-.757.158.381.328.757m-2.5-13.142h0c.008-.158.016-.316.026-.475l.018-.283h0l-.018.284c-.01.158-.019.316-.026.474" transform="translate(-2140.84 -1534.439)" fill="#20612e" fill-rule="evenodd"/>
        <path id="Path_77" data-name="Path 77" d="M2240.108,1564.137h-.026a5.136,5.136,0,0,1-.567-.92c-.1-.208-.2-.416-.291-.625q.113.25.229.5a5.364,5.364,0,0,0,.654,1.048m-1.582-3.238h0q-.288-.765-.531-1.545.244.78.531,1.545m-1.835-9.9h0q-.005-.772.031-1.546h0q-.036.774-.03,1.546m.134-3.238h0l.1-1.545-.1,1.545" transform="translate(-2140.143 -1479.469)" fill="#371a45" fill-rule="evenodd"/>
        <path id="Path_85" data-name="Path 85" d="M1933.38,1560.706c-.677,2.315.068,4.5,1.406,5.064,2.813,1.184,4.849-4.3,4.849-4.3s-.945-3.967-2.8-3.9a3.975,3.975,0,0,0-3.455,3.142" transform="translate(-1849.682 -1490.331)" fill="#fff" fill-rule="evenodd"/>
        <path id="Path_86" data-name="Path 86" d="M1953.749,1643.9a1.23,1.23,0,0,1-.481-.1c-.87-.366-1.466-2.037-.988-3.9a2.808,2.808,0,0,0,1.46,1.876,2.1,2.1,0,0,0,.555.152,17.773,17.773,0,0,0-.069,1.875,1.26,1.26,0,0,1-.477.1" transform="translate(-1867.847 -1569.115)" fill="#b9afbe" fill-rule="evenodd"/>
        <path id="Path_87" data-name="Path 87" d="M1916.049,1542.824c-.566,1.934.04,3.7.938,4.081a1.19,1.19,0,0,0,.991-.01c1.215-.525,2.271-2.591,2.683-3.594-.366-1.332-1.192-3.062-1.913-3.031a3.2,3.2,0,0,0-2.7,2.555m1.419,5.817a2.867,2.867,0,0,1-1.115-.229c-1.818-.766-2.641-3.422-1.872-6.047a4.738,4.738,0,0,1,4.21-3.73c2.4-.078,3.44,3.757,3.623,4.529l.057.241-.086.233c-.143.387-1.465,3.809-3.656,4.757a2.917,2.917,0,0,1-1.161.247" transform="translate(-1831.567 -1472.219)" fill="#371a45" fill-rule="evenodd"/>
        <path id="Path_88" data-name="Path 88" d="M2009.681,1560.281s-2.595-4.25-6.261-2.121c-2.85,1.655-2.425,7.831-2.134,9.229,1.041,5.007,4.675,7.9,7.437,3.544a29.762,29.762,0,0,0,.957-10.653" transform="translate(-1914.7 -1490.331)" fill="#fff" fill-rule="evenodd"/>
        <path id="Path_89" data-name="Path 89" d="M2008.021,1753.16c-1.944,0-3.752-2.38-4.438-5.675-.035-.168-.072-.406-.1-.7h0c.033.291.07.529.1.7.685,3.3,2.494,5.676,4.438,5.676h0m3.243-2.968h0a31.42,31.42,0,0,0,.708-4.41,31.28,31.28,0,0,1-.708,4.41m-.153.578c.041-.141.094-.336.153-.578-.059.242-.111.437-.153.578" transform="translate(-1916.998 -1670.425)" fill="#371a45" fill-rule="evenodd"/>
        <path id="Path_90" data-name="Path 90" d="M2001.431,1740.089c-.041-.363-.076-.81-.092-1.307.017.5.052.943.093,1.307h0" transform="translate(-1914.951 -1663.727)" fill="#371a45" fill-rule="evenodd"/>
        <path id="Path_91" data-name="Path 91" d="M2005.734,1652.08c-1.944,0-3.753-2.381-4.438-5.676-.035-.168-.072-.406-.1-.7-.041-.364-.076-.809-.093-1.307a17.9,17.9,0,0,1,.077-2.411c.037.362.08.654.12.85.679,3.263,2.4,4.576,4.318,4.576a5.852,5.852,0,0,0,3.12-1.031,23.317,23.317,0,0,0,1.026-6.243,29.635,29.635,0,0,1-.075,4.56,31.421,31.421,0,0,1-.707,4.41c-.059.242-.111.437-.153.578a1.621,1.621,0,0,1-.09.258c-.931,1.469-1.962,2.114-2.958,2.131h-.041" transform="translate(-1914.71 -1569.345)" fill="#b9afbe" fill-rule="evenodd"/>
        <path id="Path_92" data-name="Path 92" d="M1718.655,1552.34l-.011.017Zm-2.56-12.1a3.24,3.24,0,0,0-1.643.474c-2.33,1.353-2.033,6.969-1.744,8.356.559,2.686,1.936,4.742,3.349,5,1.092.2,1.989-.783,2.561-1.668a29.98,29.98,0,0,0,.89-9.994C1719.15,1541.886,1717.871,1540.236,1716.1,1540.236Zm.236,15.489a3.179,3.179,0,0,1-.567-.05c-2.116-.385-3.944-2.848-4.657-6.274-.264-1.268-.885-8.124,2.523-10.1,3.447-2,6.327.7,7.369,2.4l.1.159.019.186a29.327,29.327,0,0,1-1.08,11.171c-1.312,2.07-2.734,2.51-3.7,2.51Zm-16.879.219a.539.539,0,0,1-.534-.463c-1.557-10.875,3.994-14.741,4.231-14.9a.539.539,0,0,1,.6.894c-.058.04-5.22,3.7-3.766,13.853a.54.54,0,0,1-.458.611.569.569,0,0,1-.077.005" transform="translate(-1625.322 -1472.174)" fill="#371a45" fill-rule="evenodd"/>
      </g>
    </g>
    <g id="Ellipse_6" data-name="Ellipse 6" transform="translate(4545.892 -934.46)" fill="#fff" stroke="#371a45" stroke-width="2">
      <ellipse cx="3.058" cy="2.897" rx="3.058" ry="2.897" stroke="none"/>
      <ellipse cx="3.058" cy="2.897" rx="2.058" ry="1.897" fill="none"/>
    </g>
    <g id="Ellipse_7" data-name="Ellipse 7" transform="translate(4552.007 -942.334)" fill="#fff" stroke="#371a45" stroke-width="2">
      <circle cx="3.937" cy="3.937" r="3.937" stroke="none"/>
      <circle cx="3.937" cy="3.937" r="2.937" fill="none"/>
    </g>
    <g id="Ellipse_8" data-name="Ellipse 8" transform="translate(4559.881 -951.461)" fill="#fff" stroke="#371a45" stroke-width="2">
      <circle cx="4.563" cy="4.563" r="4.563" stroke="none"/>
      <circle cx="4.563" cy="4.563" r="3.563" fill="none"/>
    </g>
    <g id="Ellipse_9" data-name="Ellipse 9" transform="translate(4562 -990)" fill="#fff" stroke="#371a45" stroke-width="2">
      <ellipse cx="42.094" cy="20.404" rx="42.094" ry="20.404" stroke="none"/>
      <ellipse cx="42.094" cy="20.404" rx="41.094" ry="19.404" fill="none"/>
    </g>
    <ellipse id="Ellipse_11" data-name="Ellipse 11" cx="52.446" cy="14.524" rx="52.446" ry="14.524" transform="translate(4451.148 -820.807)" fill="#ccc" opacity="0.103"/>
    <text id="oops_" data-name="oops!" transform="translate(4581 -964)" fill="#371a45" font-size="17" font-family="HelveticaNeue-Bold, Helvetica Neue" font-weight="700"><tspan x="0" y="0">oops!</tspan></text>
  </g>
</svg>
