<svg xmlns="http://www.w3.org/2000/svg" width="254.242" height="224.95" viewBox="0 0 254.242 224.95">
  <g id="Group_11" data-name="Group 11" transform="translate(-4131.858 999.504)">
    <g id="Group_10" data-name="Group 10" transform="translate(0 377.05)">
      <path id="Path_7" data-name="Path 7" d="M69.463,1626.186H69.39c-10.99,0-17.1-5.563-19.223-7.959a15.458,15.458,0,0,1-2.319-3.366c3.6,5.24,11.455,8.3,21.9,8.3h.113c11.665-.025,14.966-7.113,18.021-13.762a17.529,17.529,0,0,1,.889,4.469c-.157.291-.322.583-.493.875a6.424,6.424,0,0,0-4.974,5.361,6.493,6.493,0,0,0-.071.934,20.075,20.075,0,0,1-13.769,5.146M89.949,1610.2a21.18,21.18,0,0,0-1.028-3.028,21.3,21.3,0,0,1,4.024-6.148c-.307.634-.583,1.277-.844,1.926a27.534,27.534,0,0,0-1.094,3.167c-.307,1.072-.6,2.147-.862,3.23-.07.283-.134.568-.2.853" transform="translate(4087.353 -2865.707)" fill="#b9afbe" fill-rule="evenodd"/>
      <path id="Path_9" data-name="Path 9" d="M495.573,1541.405a.874.874,0,0,1-.873-.873c0-10.366-10-17.8-10.1-17.873a.873.873,0,1,1,1.029-1.411c.442.322,10.82,8.019,10.82,19.284a.873.873,0,0,1-.873.873" transform="translate(3681.455 -2791.352)" fill="#371a45" fill-rule="evenodd"/>
      <path id="Path_10" data-name="Path 10" d="M147.548,1629.852c-3.284-3.795.2-6.168,3.711-4.16,3.186,1.824,6.032,4.024,9.645,2.979,0,0-.274,2.295-3.175,4.812s-10.181-3.631-10.181-3.631" transform="translate(3995.842 -2887.974)" fill="#fff" fill-rule="evenodd"/>
      <path id="Path_11" data-name="Path 11" d="M128.362,1613.345a5.982,5.982,0,0,1-1.6-2.627,3.572,3.572,0,0,1-.012-1.928,3.124,3.124,0,0,1,1.195-1.721,3.9,3.9,0,0,1,1.735-.69,5.079,5.079,0,0,1,1.653.054,5.835,5.835,0,0,1,1.461.486,7.306,7.306,0,0,1,.653.356c.111.065.2.125.289.183l.265.176a46.079,46.079,0,0,0,4.076,2.652,8.44,8.44,0,0,0,2.168.809,7.034,7.034,0,0,0,2.368.079h0a.18.18,0,0,1,.1.344,6.5,6.5,0,0,1-2.555.558,8.6,8.6,0,0,1-2.636-.406,31.17,31.17,0,0,1-4.659-2.088l-.273-.137c-.094-.048-.182-.091-.254-.121-.154-.072-.311-.128-.466-.184a4.348,4.348,0,0,0-.924-.2,1.965,1.965,0,0,0-1.367.292.563.563,0,0,0-.188.29,1.139,1.139,0,0,0,.014.529,3.419,3.419,0,0,0,.307.788,9.087,9.087,0,0,0,.542.865l.04.059a1.252,1.252,0,0,1-1.932,1.578" transform="translate(4014.082 -2870.649)" fill="#371a45" fill-rule="evenodd"/>
      <path id="Path_12" data-name="Path 12" d="M68.9,1673.531a3.924,3.924,0,0,1-1.79-.212,4.676,4.676,0,0,1-1.54-1.022,11.772,11.772,0,0,1-1.168-1.33l-1.039-1.336a21.06,21.06,0,0,0-2.179-2.414,17.893,17.893,0,0,0-2.52-1.96c-.946-.631-1.859-1.214-2.794-1.736a21.215,21.215,0,0,0-2.857-1.333,15.5,15.5,0,0,0-6.023-.973h-.033a1.252,1.252,0,0,1-.217-2.49,13.842,13.842,0,0,1,7.258.933,23.334,23.334,0,0,1,5.989,3.77,17.732,17.732,0,0,1,2.583,2.476,19.959,19.959,0,0,1,2.024,2.885c.587.991,1.091,2,1.706,2.855a3.857,3.857,0,0,0,1.1,1.055,3.785,3.785,0,0,0,1.5.473h0a.18.18,0,0,1,0,.357" transform="translate(4089.378 -2919.25)" fill="#371a45" fill-rule="evenodd"/>
      <path id="Path_33" data-name="Path 33" d="M670.779,1288.137q-.857-.917-1.67-1.883.712-.633,1.467-1.242,1.01.814,2.063,1.577-.968.754-1.86,1.548" transform="translate(3509.502 -2571.778)" fill="#371a45" fill-rule="evenodd"/>
      <path id="Path_97" data-name="Path 97" d="M1.1,45.534l10.616-10.6a3.756,3.756,0,0,1,5.308,0l4.234-4.23A19.714,19.714,0,1,1,26.565,36h0l-4.234,4.23a3.747,3.747,0,0,1,0,5.3L11.715,56.139a3.756,3.756,0,0,1-5.308,0L1.1,50.837A3.747,3.747,0,0,1,1.1,45.534Z" transform="translate(4249.124 -1300.127) rotate(-21)" fill="#fff" stroke="#371a45" stroke-width="3"/>
      <path id="Path_1" data-name="Path 1" d="M645.128,1251.346V1299.6a14.8,14.8,0,0,1-14.755,14.755h-48.79a14.8,14.8,0,0,1-14.755-14.755v-48.259a14.8,14.8,0,0,1,14.755-14.755h48.79a14.805,14.805,0,0,1,14.755,14.755" transform="translate(3604.635 -2526.741)" fill="#fff" fill-rule="evenodd"/>
      <path id="Path_2" data-name="Path 2" d="M597.083,1200.772H548.3a17.276,17.276,0,0,0-17.257,17.257v48.26a17.276,17.276,0,0,0,17.257,17.257h48.787a17.276,17.276,0,0,0,17.257-17.257v-48.26a17.276,17.276,0,0,0-17.257-17.257m0,2.5a14.8,14.8,0,0,1,14.755,14.755v48.26a14.8,14.8,0,0,1-14.755,14.755H548.3a14.8,14.8,0,0,1-14.755-14.755v-48.26a14.8,14.8,0,0,1,14.755-14.755h48.787" transform="translate(3637.925 -2493.424)" fill="#371a45" fill-rule="evenodd"/>
      <path id="Path_3" data-name="Path 3" d="M1392.609,1211.872c18.173,6.24,19.514,20.631,32.086,28.985,5.442,3.615,11.126,2.733,17.914.911,3.618-.97,5.354,2.616,5.592,8.757.331,8.554-2.612,14.606-20.414,14.954-20.748.405-24.34-24.157-24.34-24.157l-10.838-29.449" transform="translate(2836.556 -2503.749)" fill="#fff" fill-rule="evenodd"/>
      <path id="Path_4" data-name="Path 4" d="M1566.627,1598.911a19.254,19.254,0,0,1-13.418-5.057,6.48,6.48,0,0,0-4.971-6.375c-.3-.535-.586-1.071-.85-1.6q-.042-.179-.084-.357a60.5,60.5,0,0,0-4.063-12.667.425.425,0,0,0-.383-.244.284.284,0,0,0-.042,0,.364.364,0,0,0-.074.014q-.134-.466-.273-.933c6.69,6.351,6.828,21.9,24.13,21.9.191,0,.381,0,.577-.006a48.04,48.04,0,0,0,9.826-1.049,14.674,14.674,0,0,0,3.9,3.909c-3.09,1.532-7.636,2.342-13.755,2.462-.176,0-.351.006-.525.006" transform="translate(2697.167 -2838.427)" fill="#b9afbe" fill-rule="evenodd"/>
      <path id="Path_5" data-name="Path 5" d="M1410.637,1250.081c-8.73,0-15.824-4.334-20.54-12.561a39.756,39.756,0,0,1-4.542-12.672,1.251,1.251,0,1,1,2.475-.362,37.94,37.94,0,0,0,4.273,11.851c4.389,7.614,10.72,11.409,18.806,11.236,8.492-.166,13.954-1.661,16.7-4.572,1.887-2,2.655-4.8,2.489-9.082-.2-5.188-1.421-6.839-2.13-7.361a2.025,2.025,0,0,0-1.889-.235c-6.5,1.743-12.835,2.972-18.93-1.078-5.3-3.522-8.695-8.109-11.977-12.544-4.843-6.544-9.417-12.725-19.823-16.3a1.251,1.251,0,1,1,.812-2.366c11.143,3.826,16.165,10.613,21.022,17.177,3.3,4.458,6.415,8.669,11.35,11.948,4.758,3.162,9.609,2.7,16.9.746a4.562,4.562,0,0,1,4.021.637c1.9,1.4,2.961,4.524,3.145,9.279.131,3.371-.112,7.656-3.168,10.9-3.276,3.472-9.146,5.174-18.472,5.357-.173,0-.347.005-.52.005" transform="translate(2853.21 -2487.095)" fill="#371a45" fill-rule="evenodd"/>
      <path id="Path_6" data-name="Path 6" d="M76.795,1211.872c-18.173,6.24-20.8,21.129-33.171,29.777-3.692,2.581-8.776,4-16.822,2.737-3.7-.579-8.1-1.095-8.863,5-.619,4.956,7.95,16.124,23.678,16.089,20.752-.046,24.34-24.157,24.34-24.157l10.838-29.449" transform="translate(4115.202 -2503.749)" fill="#fff" fill-rule="evenodd"/>
      <path id="Path_8" data-name="Path 8" d="M24.885,1250.076c-12.009,0-18.751-6.154-21.1-8.8-2.652-3-4.052-6.246-3.747-8.692a7.324,7.324,0,0,1,2.568-5.2c2.3-1.735,5.439-1.245,7.729-.885,6.857,1.072,11.913.27,15.913-2.527,4.737-3.312,7.974-7.539,11.4-12.014,5.282-6.9,10.743-14.028,22.081-17.921a1.251,1.251,0,1,1,.812,2.366c-10.623,3.648-15.85,10.475-20.906,17.076-3.392,4.429-6.9,9.01-11.954,12.543-4.5,3.146-10.3,4.111-17.733,2.948-2.308-.361-4.492-.6-5.837.412a4.927,4.927,0,0,0-1.591,3.509c-.16,1.285.565,3.816,3.138,6.725,2.12,2.4,8.233,7.959,19.223,7.959h.073c19.451-.043,23.071-22.861,23.105-23.091a1.251,1.251,0,0,1,2.475.369,39.13,39.13,0,0,1-4.542,12.5c-4.8,8.3-12.076,12.7-21.032,12.721h-.079" transform="translate(4131.858 -2487.095)" fill="#371a45" fill-rule="evenodd"/>
      <path id="Path_13" data-name="Path 13" d="M671.294,1306.6H597.248a178.419,178.419,0,0,1,1.376-20.561c.26-2.2.571-4.541.944-6.983a185.012,185.012,0,0,1,9.142-36.3q1.067-2.873,2.269-5.731.958-2.268,2-4.512.763-1.643,1.58-3.27h39.418q.815,1.627,1.58,3.27,1.063,2.268,2.026,4.566,1.375,3.27,2.575,6.562a185.959,185.959,0,0,1,8.812,35.415c.373,2.451.684,4.8.947,7.008a178.371,178.371,0,0,1,1.374,20.539" transform="translate(3576.343 -2519.905)" fill="#fff" fill-rule="evenodd"/>
      <path id="Path_14" data-name="Path 14" d="M709.046,1787.859c-1.735-.331-3.346-.665-4.852-1h8.878c-1.256.336-2.593.669-4.025,1m17.695-5.752a6.7,6.7,0,0,0,.293-1.966v-.621a32.3,32.3,0,0,0,4.753.465c-1.756.73-3.4,1.437-5.046,2.123m-43-1.991-.3-.128-.275-.116q.289-.024.576-.053v.3m-7.264-13.343q-.746-.018-1.464-.043.168-.759.348-1.513l.166-.716q.433,1.155.95,2.272m60.314-.008q.495-1.067.913-2.174.079.408.156.816.136.657.267,1.316-.655.023-1.336.041" transform="translate(3504.015 -3017.764)" fill="#b9afbe" fill-rule="evenodd"/>
      <path id="Path_15" data-name="Path 15" d="M647.38,1582.163a60.5,60.5,0,0,1,4.063,12.667c.518,2.157.885,4.345,1.277,6.526.186,1.092.34,2.19.511,3.285l.256,1.641.226,1.646.445,3.293.407,3.3c.241,2.2.473,4.4.654,6.613.368,4.424.623,8.824.64,13.312l0,1.239H616.956v-2.5h1.261v2.5H579.309l0-1.239c.017-4.51.275-8.931.646-13.376s.876-8.861,1.534-13.263l.238-1.653.272-1.647c.185-1.1.354-2.2.553-3.293.421-2.186.8-4.38,1.24-6.564.218-1.092.407-2.191.674-3.274s.555-2.158.862-3.23a27.542,27.542,0,0,1,1.094-3.167,25.235,25.235,0,0,1,1.437-3.059.429.429,0,0,1,.8.219v.013a39.8,39.8,0,0,1-.882,6.6c-.213,1.079-.439,2.155-.7,3.223l-.742,3.213c-1.022,4.278-1.72,8.628-2.376,12.978s-1.146,8.727-1.516,13.11-.62,8.8-.637,13.142l-1.251-1.239h37.652v2.5h-1.261v-2.5h37.653l-1.251,1.239c-.016-4.322-.268-8.724-.631-13.079s-.843-8.719-1.518-13.047l-.244-1.624-.279-1.618c-.194-1.077-.371-2.157-.58-3.232-.43-2.146-.82-4.3-1.264-6.44-.81-4.306-1.817-8.548-2.265-12.987v-.01a.422.422,0,0,1,.8-.221" transform="translate(3593.028 -2847.738)" fill="#371a45" fill-rule="evenodd"/>
      <path id="Path_16" data-name="Path 16" d="M593.255,1814.219c-4.588,1.857-11.688,1.469-16.528.883a5.2,5.2,0,0,1,.866-10.358c4.528.213,11.319.312,15.62-.642l.043,10.117" transform="translate(3599.679 -3054.597)" fill="#fff" fill-rule="evenodd"/>
      <path id="Path_17" data-name="Path 17" d="M600.746,1875.766q-1.214,0-2.521-.064-.515-.2-1.047-.408a14.259,14.259,0,0,0-5.152-.958c-.208,0-.414,0-.622.013a3.968,3.968,0,0,1-1.3-3.553,4,4,0,0,1,.15-.644,5.172,5.172,0,0,0,3.126,1.563,62.8,62.8,0,0,0,7.423.486,38.052,38.052,0,0,0,3.921-.189v3.556a36.77,36.77,0,0,1-3.975.2" transform="translate(3583.031 -3116.032)" fill="#b9afbe" fill-rule="evenodd"/>
      <path id="Path_18" data-name="Path 18" d="M560.682,1789.1a3.95,3.95,0,0,0-.469,7.871c6.917.838,12.566.553,15.909-.8.963-.39,1.251-1.952,1.33-2.606a8.349,8.349,0,0,0-.873-5.079c-4.364.913-10.928.843-15.708.619-.063,0-.126,0-.189,0m6.789,10.848a63.881,63.881,0,0,1-7.558-.493,6.452,6.452,0,0,1,1.075-12.849c4.717.221,11.2.293,15.29-.614.65-.144,2.266-.15,3.215,2.9.959,3.085.85,8.269-2.432,9.6a26.546,26.546,0,0,1-9.59,1.458" transform="translate(3616.343 -3037.709)" fill="#371a45" fill-rule="evenodd"/>
      <path id="Path_19" data-name="Path 19" d="M1392.846,1815.092a61.63,61.63,0,0,1-7.818.481c-.191,0-.379,0-.57-.009s-.4-.008-.6-.017c-.136,0-.269-.008-.4-.014l-.472-.027c-.2-.011-.4-.026-.6-.041h-.015c-.2-.014-.4-.031-.594-.052-.13-.012-.261-.026-.388-.041-.11-.009-.22-.024-.328-.035-.17-.02-.342-.043-.507-.067s-.316-.046-.469-.072a.435.435,0,0,1-.092-.015c-.182-.026-.362-.058-.539-.093s-.356-.066-.53-.1l-.043-.008c-.1-.023-.2-.043-.293-.067s-.214-.049-.322-.078h0c-.327-.082-.649-.174-.961-.272-.168-.052-.336-.11-.5-.168s-.328-.122-.484-.185l.044-10.117a29.572,29.572,0,0,0,3.713.542,92.951,92.951,0,0,0,11.9.1c.081,0,.162-.006.246-.006a5.2,5.2,0,0,1,.62,10.363" transform="translate(2851.708 -3054.588)" fill="#fff" fill-rule="evenodd"/>
      <path id="Path_20" data-name="Path 20" d="M1425.714,1871.934a31.332,31.332,0,0,1-6.136-.53v-3.937l.115.021c.177.034.356.066.539.092a.441.441,0,0,0,.093.015c.154.026.309.05.469.073s.336.046.507.066c.107.012.217.026.327.035.128.014.258.029.389.041.2.02.4.038.593.052h.015c.2.015.4.029.6.041l.472.026c.13.006.263.011.4.015.2.008.4.014.6.017s.379.009.571.009l.43,0a62.644,62.644,0,0,0,7.388-.483,5.162,5.162,0,0,0,3.021-1.456,3.98,3.98,0,0,1,.255.933,3.945,3.945,0,0,1-3.426,4.5,60.5,60.5,0,0,1-7.219.472" transform="translate(2811.47 -3112.2)" fill="#b9afbe" fill-rule="evenodd"/>
      <path id="Path_21" data-name="Path 21" d="M1331.175,1796.16c3.343,1.353,8.992,1.638,15.909.8a3.95,3.95,0,0,0-.657-7.866c-4.78.224-11.344.294-15.708-.62a8.353,8.353,0,0,0-.873,5.08c.079.653.367,2.216,1.33,2.606m8.652,3.777a26.525,26.525,0,0,1-9.59-1.458c-3.282-1.329-3.391-6.513-2.432-9.6.948-3.052,2.564-3.047,3.214-2.9,4.091.908,10.573.834,15.291.614a6.452,6.452,0,0,1,1.075,12.849,63.893,63.893,0,0,1-7.558.493" transform="translate(2897.32 -3037.698)" fill="#371a45" fill-rule="evenodd"/>
      <path id="Path_22" data-name="Path 22" d="M858.616,1683.479v16.214a5.487,5.487,0,0,1-5.47,5.47h-29.86a5.487,5.487,0,0,1-5.467-5.47v-16.214a5.483,5.483,0,0,1,5.467-5.467h29.86a5.483,5.483,0,0,1,5.47,5.467" transform="translate(3371.183 -2937.318)" fill="#fff" fill-rule="evenodd"/>
      <path id="Path_23" data-name="Path 23" d="M869.806,1816.521H844.32c-3.152-1.006-5.821-2.046-8.45-3.133a4.2,4.2,0,0,1-.141-1.084v-4.231c3.58,4.132,11.018,6.107,18.084,6.107a36.495,36.495,0,0,0,3.675-.183,3.33,3.33,0,0,0,2.949-4.05,7.731,7.731,0,0,1-.219-1.838,7.534,7.534,0,0,1,.609-3,4.716,4.716,0,0,0,9.253,0,7.483,7.483,0,0,1,.6,2.656,18.061,18.061,0,0,0,3.339-8.683V1812.3a4.223,4.223,0,0,1-2.451,3.829q-.3.112-.6.224a4.192,4.192,0,0,1-1.165.164" transform="translate(3354.525 -3049.928)" fill="#b9afbe" fill-rule="evenodd"/>
      <path id="Path_24" data-name="Path 24" d="M806.638,1662.593a4.222,4.222,0,0,0-4.217,4.217v16.216a4.221,4.221,0,0,0,4.217,4.217H836.5a4.221,4.221,0,0,0,4.216-4.217V1666.81a4.222,4.222,0,0,0-4.216-4.217H806.638m29.861,27.151H806.638a6.726,6.726,0,0,1-6.719-6.718V1666.81a6.726,6.726,0,0,1,6.719-6.718H836.5a6.727,6.727,0,0,1,6.718,6.718v16.216a6.726,6.726,0,0,1-6.718,6.718" transform="translate(3387.833 -2920.65)" fill="#371a45" fill-rule="evenodd"/>
      <path id="Path_25" data-name="Path 25" d="M1203.089,1809.517a4.715,4.715,0,1,1-4.716-4.715,4.715,4.715,0,0,1,4.716,4.715" transform="translate(3021.604 -3055.248)" fill="#22a7f0" fill-rule="evenodd"/>
      <path id="Path_26" data-name="Path 26" d="M1203.072,1809.518a4.449,4.449,0,0,1-.062.751,4.715,4.715,0,0,0-9.31,0,4.437,4.437,0,0,1-.062-.751,4.716,4.716,0,1,1,9.433,0" transform="translate(3021.623 -3055.248)" fill="#fff" fill-rule="evenodd"/>
      <path id="Path_27" data-name="Path 27" d="M1199.154,1864.225a4.715,4.715,0,0,1-4.656-3.969s0,.006,0,.008a4.673,4.673,0,0,1,.633-1.711,4.713,4.713,0,0,0,8.044,0,3.7,3.7,0,0,1-4.023,5.673" transform="translate(3020.823 -3105.242)" fill="#2976b4" fill-rule="evenodd"/>
      <path id="Path_28" data-name="Path 28" d="M1193.719,1850.311s0-.006,0-.008a4.765,4.765,0,0,1-.059-.745,4.6,4.6,0,0,1,.324-1.706,1.7,1.7,0,0,1-.264,2.46m9.309,0a1.7,1.7,0,0,1-.263-2.458,4.607,4.607,0,0,1,.323,1.706,4.674,4.674,0,0,1-.06.751" transform="translate(3021.604 -3095.29)" fill="#b9afbe" fill-rule="evenodd"/>
      <path id="Path_29" data-name="Path 29" d="M989.821,1673.839a3.777,3.777,0,1,0,3.777,3.777A3.781,3.781,0,0,0,989.821,1673.839Zm0,9.43a5.653,5.653,0,1,1,5.653-5.653,5.66,5.66,0,0,1-5.653,5.653Zm-13.363,8.97a1.049,1.049,0,0,1-1.048-1.048v-7.824a6.478,6.478,0,0,0-2.568-5.148,8.582,8.582,0,0,1-3.4-6.823v-7.356a1.048,1.048,0,0,1,2.1,0v7.356a6.477,6.477,0,0,0,2.568,5.148,8.582,8.582,0,0,1,3.4,6.823v7.824a1.048,1.048,0,0,1-1.048,1.048" transform="translate(3230.157 -2923.347)" fill="#371a45" fill-rule="evenodd"/>
      <path id="Path_30" data-name="Path 30" d="M716.352,1270.373q-.521-.505-1.071-1,.887-.67,1.743-1.378.4.3.786.63-.711.893-1.458,1.746m-64.525-.684q-.664-.79-1.3-1.613a14.852,14.852,0,0,1,1.279-.873c.486.423.983.84,1.486,1.244q-.757.61-1.467,1.242m57.215,7.439q-.585-1.54-1.208-3.076a50.636,50.636,0,0,0,5.369-3.185q.757.656,1.458,1.34a46.026,46.026,0,0,1-5.619,4.921" transform="translate(3526.784 -2555.212)" fill="#b9afbe" fill-rule="evenodd"/>
      <path id="Path_31" data-name="Path 31" d="M1548.947,1301.133q-.7-.683-1.458-1.34,1.059-.72,2.078-1.491.55.493,1.071,1-.823.941-1.691,1.833" transform="translate(2692.498 -2584.139)" fill="#371a45" fill-rule="evenodd"/>
      <path id="Path_32" data-name="Path 32" d="M698.377,1314.044a46.207,46.207,0,0,1-5.368-4.914q.893-.793,1.86-1.548a50.373,50.373,0,0,0,4.848,3.107q-.692,1.675-1.339,3.355" transform="translate(3487.272 -2592.771)" fill="#b9afbe" fill-rule="evenodd"/>
      <path id="Path_34" data-name="Path 34" d="M795.4,1364.328q-1.473,0-2.961-.108a41.581,41.581,0,0,1-22.6-8.822q.647-1.68,1.339-3.355a50.166,50.166,0,0,0,21.387,6.345q1.675.11,3.33.109a50.11,50.11,0,0,0,22.912-5.533q.624,1.536,1.208,3.076a41.224,41.224,0,0,1-24.618,8.289" transform="translate(3415.811 -2634.124)" fill="#b9afbe" fill-rule="evenodd"/>
      <path id="Path_35" data-name="Path 35" d="M1809.117,528.493a1,1,0,0,1-1.007-1l-.162-28.843a1,1,0,0,1,1-1.007,10.506,10.506,0,0,1,10.564,10.446l.055,9.835a10.506,10.506,0,0,1-10.446,10.564" transform="translate(2450.238 -1839.429)" fill="#fff" fill-rule="evenodd"/>
      <path id="Path_36" data-name="Path 36" d="M1805.87,494.748h-.059a.765.765,0,0,0-.762.77l.162,28.843a.766.766,0,0,0,.766.762h0a10.269,10.269,0,0,0,10.212-10.327l-.055-9.835a10.269,10.269,0,0,0-10.268-10.212m.107,30.846a1.237,1.237,0,0,1-1.237-1.23l-.162-28.843a1.237,1.237,0,0,1,1.23-1.244,10.742,10.742,0,0,1,10.8,10.68l.055,9.835a10.74,10.74,0,0,1-10.68,10.8h-.007" transform="translate(2453.372 -1836.294)" fill="#371a45" fill-rule="evenodd"/>
      <path id="Path_37" data-name="Path 37" d="M1838.949,769.872a44.886,44.886,0,0,0,1.048-5.2q.143-.83.259-1.671a10.493,10.493,0,0,0,6.82-4.373l.012,2.054a9.2,9.2,0,0,1-8.139,9.187" transform="translate(2421.403 -2082.178)" fill="#b9afbe" fill-rule="evenodd"/>
      <path id="Path_38" data-name="Path 38" d="M1791.819,481.52l.159,28.216a9.2,9.2,0,0,0,8.835-9.24l-.055-9.836a9.2,9.2,0,0,0-8.938-9.14m-.148,30.843a2.311,2.311,0,0,1-2.311-2.3l-.162-28.843a2.312,2.312,0,0,1,2.3-2.324,11.814,11.814,0,0,1,11.881,11.749l.056,9.836a11.816,11.816,0,0,1-11.749,11.881h-.013" transform="translate(2467.678 -1821.989)" fill="#371a45" fill-rule="evenodd"/>
      <path id="Path_45" data-name="Path 45" d="M718.869,1245.415h0c-1.045,0-2.1-.035-3.157-.1a47.6,47.6,0,0,1-28.684-12.029,64.309,64.309,0,0,0,29.3,8.884c.956.04,1.9.059,2.836.059a68.4,68.4,0,0,0,27.411-5.7,47.624,47.624,0,0,1-27.711,8.889" transform="translate(3492.834 -2523.663)" fill="#b9afbe" fill-rule="evenodd"/>
      <g id="Group_9" data-name="Group 9" transform="translate(4152.221 -1376.555)">
        <path id="Path_39" data-name="Path 39" d="M320.613,505.311a1,1,0,0,1,1.007,1l.163,28.843a1,1,0,0,1-1,1.007,10.5,10.5,0,0,1-10.564-10.446l-.056-9.835a10.506,10.506,0,0,1,10.446-10.564" transform="translate(-308.857 -470.003)" fill="#fff" fill-rule="evenodd"/>
        <path id="Path_40" data-name="Path 40" d="M317.479,502.413a10.282,10.282,0,0,0-10.212,10.327l.055,9.835a10.282,10.282,0,0,0,10.269,10.212h.059a.766.766,0,0,0,.762-.77l-.162-28.843a.764.764,0,0,0-.228-.541.725.725,0,0,0-.543-.221m.113,30.846a10.753,10.753,0,0,1-10.74-10.68l-.055-9.835a10.754,10.754,0,0,1,10.68-10.8,1.249,1.249,0,0,1,.877.357,1.228,1.228,0,0,1,.367.873l.163,28.843a1.238,1.238,0,0,1-1.23,1.244h-.061" transform="translate(-305.722 -466.869)" fill="#371a45" fill-rule="evenodd"/>
        <path id="Path_41" data-name="Path 41" d="M337.953,779.79a9.209,9.209,0,0,1-8.393-9.109l-.011-1.989a10.5,10.5,0,0,0,6.825,3.877,49.969,49.969,0,0,0,1.579,7.221" transform="translate(-326.885 -714.98)" fill="#b9afbe" fill-rule="evenodd"/>
        <path id="Path_42" data-name="Path 42" d="M302.88,489.188a9.207,9.207,0,0,0-8.835,9.241l.055,9.835a9.208,9.208,0,0,0,8.938,9.14l-.159-28.216m.414,30.839a11.827,11.827,0,0,1-11.814-11.749l-.055-9.835a11.829,11.829,0,0,1,11.749-11.882,2.312,2.312,0,0,1,2.324,2.3l.162,28.844a2.311,2.311,0,0,1-2.3,2.324h-.068" transform="translate(-291.426 -452.564)" fill="#371a45" fill-rule="evenodd"/>
        <path id="Path_43" data-name="Path 43" d="M536.992,71.106a49.152,49.152,0,1,1-45.836-52.257,49.152,49.152,0,0,1,45.836,52.257" transform="translate(-428.494 -17.432)" fill="#fff" fill-rule="evenodd"/>
        <path id="Path_44" data-name="Path 44" d="M484.787,15.853a48.917,48.917,0,0,0-3.162,97.73c1.081.071,2.16.106,3.228.106a48.917,48.917,0,0,0,3.162-97.73c-1.081-.071-2.16-.106-3.228-.106m.1,98.308q-1.643,0-3.3-.108a49.276,49.276,0,1,1,3.3.108" transform="translate(-425.369 -14.307)" fill="#371a45" fill-rule="evenodd"/>
        <path id="Path_46" data-name="Path 46" d="M470.488,2.62A47.843,47.843,0,0,0,467.4,98.2c1.057.068,2.112.1,3.157.1a47.843,47.843,0,0,0,3.093-95.583c-1.056-.069-2.112-.1-3.157-.1m.066,98.306q-1.656,0-3.33-.109a50.443,50.443,0,1,1,3.33.109" transform="translate(-411.069 0)" fill="#371a45" fill-rule="evenodd"/>
        <path id="Path_47" data-name="Path 47" d="M541.232,273.02a44.084,44.084,0,0,1-9.754,25.478c-4.276,5.331-21.2,14.186-41.5,13.347-18.827-.778-35.443-11.672-39.163-17.4a44.088,44.088,0,0,1-7.148-26.329c1.279-25.42,23.649-34.86,50.593-33.5s48.255,12.993,46.975,38.413" transform="translate(-432.974 -218.096)" fill="#371a45" fill-rule="evenodd"/>
        <path id="Path_48" data-name="Path 48" d="M472.142,218.36c-15.8,0-43.191,4.112-44.613,32.378a42.748,42.748,0,0,0,6.939,25.549c3.545,5.463,19.76,16.051,38.118,16.81,20.351.843,36.617-8.108,40.427-12.858a42.748,42.748,0,0,0,9.468-24.725c.581-11.546-3.581-20.667-12.37-27.108-7.908-5.8-19.445-9.23-33.363-9.931-1.374-.069-2.926-.116-4.607-.116m3.172,77.413c-.936,0-1.88-.019-2.835-.059-19.518-.806-36.3-11.975-40.208-18a45.351,45.351,0,0,1-7.358-27.107c.628-12.482,6.117-21.854,16.316-27.856,8.893-5.234,21.219-7.619,35.652-6.891s26.458,4.334,34.78,10.433c9.545,7,14.066,16.872,13.439,29.354a45.346,45.346,0,0,1-10.041,26.232c-4.035,5.03-19.581,13.9-39.744,13.9" transform="translate(-415.531 -200.657)" fill="#371a45" fill-rule="evenodd"/>
        <path id="Path_49" data-name="Path 49" d="M1454.589,619.416a4.666,4.666,0,0,1-1.059-.122c-3.39-.792-5.252-5.226-4.159-9.9.98-4.193,4-7.159,7.057-7.159a4.634,4.634,0,0,1,1.06.122c2.739.64,4.481,3.659,4.471,7.263a55.384,55.384,0,0,1-1.78,6.179c-1.416,2.227-3.494,3.621-5.59,3.621m-8.017,12.153a2.982,2.982,0,0,1-1.078-.2,3.741,3.741,0,0,1-1.76-4.958,3.987,3.987,0,0,1,3.555-2.692,2.984,2.984,0,0,1,1.078.2,3.743,3.743,0,0,1,1.76,4.958,3.987,3.987,0,0,1-3.555,2.692" transform="translate(-1362.932 -560.152)" fill="#9b8da2" fill-rule="evenodd"/>
        <path id="Path_50" data-name="Path 50" d="M893.733,531.4q-1.331,0-2.689-.055a58.276,58.276,0,0,1-16.3-3.146c23.294-.571,42.15-10.7,47.188-16.983a56.79,56.79,0,0,0,9.3-16.668,11.481,11.481,0,0,0,1.467-3.538,11.751,11.751,0,0,0,.312-2.641,55.613,55.613,0,0,0,1.3-9.489,50.889,50.889,0,0,0-.113-7c4.914,5.841,7.176,13.173,6.738,21.886a42.747,42.747,0,0,1-9.468,24.725c-3.641,4.539-18.654,12.914-37.739,12.913" transform="translate(-833.99 -438.9)" fill="#2a1a3b" fill-rule="evenodd"/>
        <path id="Path_51" data-name="Path 51" d="M844.243,502.877c-.89,0-1.785-.017-2.69-.055a60.624,60.624,0,0,1-19.955-4.447c.552.011,1.106.017,1.654.017.69,0,1.378-.008,2.06-.025a58.271,58.271,0,0,0,16.3,3.146q1.356.056,2.689.055c19.085,0,34.1-8.374,37.739-12.913a42.748,42.748,0,0,0,9.468-24.725c.438-8.713-1.824-16.044-6.738-21.886q-.1-1.137-.249-2.241c5.678,5.991,8.808,13.981,8.3,24.191a44.11,44.11,0,0,1-9.753,25.48c-4.087,5.093-19.722,13.4-38.816,13.4" transform="translate(-784.554 -409.071)" fill="#2a1a3b" fill-rule="evenodd"/>
        <path id="Path_52" data-name="Path 52" d="M1683.189,714.1a55.335,55.335,0,0,0,1.78-6.179,11.762,11.762,0,0,1-.312,2.641,11.485,11.485,0,0,1-1.467,3.538" transform="translate(-1585.941 -658.457)" fill="#6b6577" fill-rule="evenodd"/>
        <path id="Path_53" data-name="Path 53" d="M585.237,166.828a1.275,1.275,0,0,1-.88-.351l-.131-.117-.074-.129c-7.681-12-23.317-19.452-42.9-20.437-19.688-.988-35.989,5.068-44.718,16.622l-.092.109a1.268,1.268,0,0,1-1.8.09,1.292,1.292,0,0,1-.129-1.774c9.255-12.221,26.333-18.639,46.868-17.605,20.386,1.026,36.741,8.881,44.887,21.554a1.281,1.281,0,0,1-1.033,2.038" transform="translate(-480.053 -133.127)" fill="#371a45" fill-rule="evenodd"/>
        <path id="Path_54" data-name="Path 54" d="M569.578,372.522s-6.612-25.474,7.406-34.787c9.42-6.259,21.291-7.852,27.907-7.852,3.229,0,5.206.379,5.036.781,0,0-21.788,4.128-31.067,20.723-7.155,12.8-9.281,21.135-9.281,21.135" transform="translate(-548.693 -306.833)" fill="#9b8da2" fill-rule="evenodd"/>
      </g>
      <path id="Path_55" data-name="Path 55" d="M456.321,1987.779s-30.791,3.49-44.477-8.27c-18.7-16.066-2.666-36.2,11.225-30.837,12.093,4.67,17.066,8.342,38.546,11.863,18,2.949,33.46,21.428,20.544,32.154-9.119,7.572-25.839-4.909-25.839-4.909" transform="translate(3756.69 -3188.243)" fill="#fff" fill-rule="evenodd"/>
      <path id="Path_56" data-name="Path 56" d="M496.9,2249.212h0c-5.777,0-12.262-3.542-15.574-5.624q.67.008,1.374.008c7.163,0,16.833-.675,24.934-3.617a11.157,11.157,0,0,1-4.222,7.079,9.892,9.892,0,0,1-6.509,2.154m-55.142-11.1a26.547,26.547,0,0,1-7.05-4.219c-4.478-3.847-6.8-7.851-7.65-11.591q.781.769,1.664,1.528c4.043,3.474,9.579,5.617,15.371,6.913a15.956,15.956,0,0,0-2.334,7.368" transform="translate(3734.639 -3443.576)" fill="#b9afbe" fill-rule="evenodd"/>
      <path id="Path_57" data-name="Path 57" d="M439.912,1969.965l.4.3c.123.092,9.652,7.1,17.78,7.1a9.9,9.9,0,0,0,6.512-2.153c3.761-3.124,5.1-7.152,3.881-11.649-2.3-8.453-12.763-16.494-23.829-18.308-16.9-2.769-23.724-5.655-31.627-9-2.224-.941-4.524-1.912-7.168-2.933-5.757-2.223-12.454.377-15.927,6.181-3.326,5.56-3.5,14.4,5.968,22.54,13.12,11.273,43.219,8.011,43.521,7.977l.491-.056m18.187,9.906c-8.1,0-16.874-5.885-18.883-7.313-4.16.415-31.8,2.684-44.947-8.616-10.652-9.152-10.333-19.288-6.484-25.722,4.1-6.853,12.08-9.893,18.974-7.23,2.681,1.035,5,2.015,7.241,2.963,7.755,3.279,14.454,6.11,31.057,8.832,11.956,1.96,23.306,10.8,25.839,20.121,1.476,5.435-.191,10.489-4.7,14.23a12.315,12.315,0,0,1-8.1,2.736" transform="translate(3773.449 -3171.728)" fill="#371a45" fill-rule="evenodd"/>
      <path id="Path_58" data-name="Path 58" d="M738.168,2064.6a.873.873,0,0,1-.412-1.644c12.922-6.888,9.291-30.886,9.253-31.127a.873.873,0,1,1,1.725-.273c.164,1.037,3.851,25.474-10.157,32.941a.871.871,0,0,1-.41.1" transform="translate(3446.081 -3265.472)" fill="#371a45" fill-rule="evenodd"/>
      <path id="Path_59" data-name="Path 59" d="M667.931,1987.779s30.791,3.49,44.478-8.27c18.7-16.066,2.665-36.2-11.225-30.837-12.093,4.67-17.067,8.342-38.547,11.863-18,2.949-33.46,21.428-20.545,32.154,9.118,7.572,25.839-4.909,25.839-4.909" transform="translate(3539.071 -3188.243)" fill="#fff" fill-rule="evenodd"/>
      <path id="Path_60" data-name="Path 60" d="M675.664,2407.065a11.085,11.085,0,0,1-7.3-2.439,14.578,14.578,0,0,1-2.8-3.043,14.565,14.565,0,0,0,2.8,3.043,11.092,11.092,0,0,0,7.3,2.439c5.948,0,12.428-3.433,15.934-5.606h0c-3.506,2.172-9.989,5.606-15.937,5.606m56.4-11.527h0a27.135,27.135,0,0,0,6.616-4.091c.3-.257.59-.516.872-.775q-.424.39-.873.776a27.11,27.11,0,0,1-6.615,4.09" transform="translate(3512.795 -3600.181)" fill="#b38982" fill-rule="evenodd"/>
      <path id="Path_61" data-name="Path 61" d="M1205.054,2478.909q-.7,0-1.375-.009h0q.671.009,1.376.009c7.164,0,16.832-.674,24.933-3.617-8.1,2.942-17.77,3.617-24.934,3.617" transform="translate(3012.285 -3678.889)" fill="#8c7b94" fill-rule="evenodd"/>
      <path id="Path_62" data-name="Path 62" d="M1038.089,2466.233c1.623-1.006,2.609-1.742,2.609-1.742s3.636.412,8.961.476h0c-5.327-.063-8.961-.475-8.961-.475s-.985.735-2.608,1.741h0m37.88-4.875h0c.884-.321,1.75-.669,2.591-1.047-.841.377-1.707.726-2.591,1.047" transform="translate(3166.304 -3664.956)" fill="#371a45" fill-rule="evenodd"/>
      <path id="Path_63" data-name="Path 63" d="M665.409,2401.106l-.01-.015.01.015m73.992-10.912.017-.015-.017.015m.029-.026.007-.007-.007.007" transform="translate(3512.953 -3599.707)" fill="#b38982" fill-rule="evenodd"/>
      <path id="Path_64" data-name="Path 64" d="M649.405,2161.26a11.092,11.092,0,0,1-7.3-2.439,14.564,14.564,0,0,1-2.8-3.043v0l-.01-.015,0-.008,0-.006a11.626,11.626,0,0,1-1.492-9.763c.66,2.229,1.307,5.657,3.629,7.46a14.217,14.217,0,0,0,8.844,3.176,16.9,16.9,0,0,0,10.978-4.466c3.726-3.3,3.118-6.011,5.51-7.356a2.01,2.01,0,0,1,1.007-.259c2.642,0,6.474,4.378,13.859,4.763q1.83.1,3.571.094c13.82,0,23.331-4.344,28.009-9.123a27.983,27.983,0,0,0,7.368-13.871c1.182,5.568-.547,12.248-7.215,18.413l0,0-.017.015-.007.007-.012.01-.017.015,0,0c-.282.258-.574.518-.872.775a27.135,27.135,0,0,1-6.616,4.091c-.841.377-1.707.725-2.591,1.047-8.1,2.942-17.769,3.617-24.933,3.617q-.705,0-1.377-.008c-5.325-.064-8.961-.476-8.961-.476s-.986.737-2.609,1.742c-3.506,2.173-9.986,5.606-15.934,5.606" transform="translate(3539.054 -3354.377)" fill="#b9afbe" fill-rule="evenodd"/>
      <path id="Path_65" data-name="Path 65" d="M689.294,1932.53a11.767,11.767,0,0,0-4.252.79c-2.644,1.021-4.943,1.993-7.167,2.933-7.9,3.341-14.729,6.227-31.628,9-11.066,1.814-21.533,9.856-23.829,18.308-1.222,4.5.12,8.526,3.881,11.649,8.253,6.854,24.132-4.831,24.292-4.949l.4-.3.492.055c.3.034,30.411,3.289,43.522-7.977,9.473-8.14,9.294-16.98,5.967-22.54A13.829,13.829,0,0,0,689.294,1932.53ZM632.8,1979.867a12.312,12.312,0,0,1-8.1-2.736c-4.505-3.741-6.173-8.794-4.7-14.23,2.533-9.323,13.883-18.161,25.839-20.121,16.6-2.722,23.3-5.553,31.057-8.832,2.242-.948,4.56-1.928,7.24-2.963,6.9-2.664,14.875.378,18.975,7.23,3.849,6.434,4.167,16.57-6.484,25.722-13.151,11.3-40.787,9.031-44.947,8.616-2.009,1.428-10.781,7.313-18.883,7.313Z" transform="translate(3555.664 -3171.724)" fill="#371a45" fill-rule="evenodd"/>
      <path id="Path_66" data-name="Path 66" d="M1338.961,2064.59a.869.869,0,0,1-.41-.1c-14.009-7.468-10.321-31.9-10.157-32.941a.873.873,0,0,1,1.725.272c-.038.242-3.658,24.245,9.253,31.127a.873.873,0,0,1-.412,1.644" transform="translate(2896.802 -3265.464)" fill="#371a45" fill-rule="evenodd"/>
      <path id="Path_85" data-name="Path 85" d="M1933.538,1562.651c-1.1,3.747.11,7.286,2.275,8.2,4.554,1.917,7.849-6.969,7.849-6.969s-1.53-6.421-4.531-6.315c-2.13.075-4.6,1.7-5.593,5.087" transform="translate(2333.807 -2825.285)" fill="#fff" fill-rule="evenodd"/>
      <path id="Path_86" data-name="Path 86" d="M1954.763,1646.381a1.991,1.991,0,0,1-.779-.167c-1.408-.593-2.373-3.3-1.6-6.312a4.545,4.545,0,0,0,2.364,3.037,3.393,3.393,0,0,0,.9.246,28.712,28.712,0,0,0-.111,3.036,2.038,2.038,0,0,1-.772.161" transform="translate(2316.149 -2901.871)" fill="#b9afbe" fill-rule="evenodd"/>
      <path id="Path_87" data-name="Path 87" d="M1917.2,1545.417c-.917,3.131.065,5.994,1.518,6.606a1.926,1.926,0,0,0,1.6-.016c1.966-.85,3.675-4.195,4.343-5.818-.593-2.157-1.93-4.956-3.1-4.907-1.589.056-3.556,1.357-4.369,4.136m2.3,9.417a4.636,4.636,0,0,1-1.805-.372c-2.943-1.24-4.275-5.539-3.031-9.788,1.266-4.323,4.462-5.955,6.816-6.038,3.886-.126,5.568,6.082,5.865,7.331l.093.39-.139.376c-.232.627-2.372,6.165-5.918,7.7a4.719,4.719,0,0,1-1.88.4" transform="translate(2351.417 -2807.679)" fill="#371a45" fill-rule="evenodd"/>
      <path id="Path_88" data-name="Path 88" d="M2015.005,1561.963s-4.2-6.88-10.135-3.434c-4.613,2.679-3.925,12.677-3.454,14.94,1.685,8.105,7.568,12.792,12.039,5.737a48.184,48.184,0,0,0,1.55-17.244" transform="translate(2270.603 -2825.285)" fill="#fff" fill-rule="evenodd"/>
      <path id="Path_89" data-name="Path 89" d="M2010.832,1757.725c-3.146,0-6.073-3.853-7.184-9.187-.057-.272-.117-.658-.17-1.129h0c.053.471.113.856.17,1.128,1.109,5.334,4.037,9.188,7.184,9.188h0m5.25-4.8h0a50.916,50.916,0,0,0,1.145-7.139,50.7,50.7,0,0,1-1.145,7.139m-.247.936c.067-.229.152-.544.247-.936-.095.392-.18.707-.247.936" transform="translate(2268.369 -3000.352)" fill="#371a45" fill-rule="evenodd"/>
      <path id="Path_90" data-name="Path 90" d="M2001.488,1740.9c-.066-.588-.122-1.312-.149-2.116.027.806.084,1.527.151,2.116h0" transform="translate(2270.36 -2993.842)" fill="#371a45" fill-rule="evenodd"/>
      <path id="Path_91" data-name="Path 91" d="M2008.609,1659.467c-3.147,0-6.075-3.854-7.184-9.188-.057-.273-.117-.658-.17-1.128-.067-.588-.124-1.31-.151-2.116a28.944,28.944,0,0,1,.124-3.9c.059.586.129,1.059.195,1.376,1.1,5.282,3.884,7.408,6.99,7.408a9.472,9.472,0,0,0,5.051-1.669c.239-.155,1.323-4.5,1.66-10.105a48,48,0,0,1-.122,7.381,50.9,50.9,0,0,1-1.145,7.139c-.1.392-.18.707-.247.936a2.653,2.653,0,0,1-.146.418c-1.508,2.378-3.176,3.422-4.789,3.45h-.066" transform="translate(2271.155 -2901.597)" fill="#b9afbe" fill-rule="evenodd"/>
      <path id="Path_92" data-name="Path 92" d="M1731.037,1560.849l-.017.028Zm-4.143-19.593a5.247,5.247,0,0,0-2.66.768c-3.771,2.19-3.29,11.281-2.823,13.527.9,4.348,3.133,7.676,5.421,8.092,1.768.322,3.22-1.267,4.146-2.7a48.519,48.519,0,0,0,1.441-16.178C1731.839,1543.927,1729.768,1541.256,1726.893,1541.256Zm.383,25.072a5.116,5.116,0,0,1-.918-.082c-3.426-.623-6.385-4.61-7.539-10.157-.427-2.052-1.433-13.15,4.085-16.355,5.579-3.24,10.242,1.127,11.929,3.889l.157.258.03.3c.858,8.636-1.249,17.3-1.748,18.083-2.124,3.351-4.426,4.063-6,4.063Zm-27.323.354a.873.873,0,0,1-.864-.749c-2.521-17.6,6.465-23.862,6.848-24.12a.873.873,0,0,1,.977,1.448c-.094.064-8.451,5.987-6.1,22.424a.874.874,0,0,1-.741.989.964.964,0,0,1-.125.008" transform="translate(2552.466 -2807.138)" fill="#371a45" fill-rule="evenodd"/>
      <ellipse id="Ellipse_5" data-name="Ellipse 5" cx="72.866" cy="20.178" rx="72.866" ry="20.178" transform="translate(4144.189 -1191.962)" fill="#ccc" opacity="0.103"/>
      <path id="Path_96" data-name="Path 96" d="M59.635,170.683v.165a1.579,1.579,0,0,0,3.083,0v-.165a1.579,1.579,0,0,0-3.083,0Zm-4.624-1.237a1.414,1.414,0,0,1,1.541,1.237v.165a1.579,1.579,0,0,1-3.083,0v-.165A1.414,1.414,0,0,1,55.011,169.446Zm-6.165,0a1.414,1.414,0,0,1,1.541,1.237v.165a1.579,1.579,0,0,1-3.083,0v-.165A1.414,1.414,0,0,1,48.845,169.446Z" transform="translate(4260.935 -1415.326)" fill="#717171"/>
      <path id="Path_99" data-name="Path 99" d="M0,13.123A13.136,13.136,0,1,0,13.136,0,13.13,13.13,0,0,0,0,13.123Z" transform="translate(4274.306 -1302.765) rotate(-21)" fill="#c3e4ed"/>
      <path id="Path_100" data-name="Path 100" d="M0,7.954l16.787,16.77a13.165,13.165,0,0,0,6.108-4.5L4.507,1.852A13.154,13.154,0,0,0,0,7.954ZM7.962,0,24.749,16.77a13.025,13.025,0,0,1-.789,1.78L6.18.788A13.084,13.084,0,0,1,7.962,0Z" transform="translate(4275.29 -1302.327) rotate(-21)" fill="#dcf3f9"/>
      <g id="Rectangle_2" data-name="Rectangle 2" transform="matrix(1, -0.017, 0.017, 1, 4291.625, -1257.013)" fill="none" stroke="#371a45" stroke-width="2">
        <rect width="94.034" height="26.157" rx="13.078" stroke="none"/>
        <rect x="1" y="1" width="92.034" height="24.157" rx="12.078" fill="none"/>
      </g>
    </g>
  </g>
</svg>
